<svg version="1.1" viewBox="0.0 0.0 701.0 433.0" fill="none" stroke="none" stroke-linecap="square" stroke-miterlimit="10" width="701" height="433" xmlns:xlink="http://www.w3.org/1999/xlink" xmlns="http://www.w3.org/2000/svg"><path fill="#ffffff" d="M0 0L701.0 0L701.0 433.0L0 433.0L0 0Z" fill-rule="nonzero"/><path stroke="#cccccc" stroke-width="1.0" stroke-linecap="butt" d="M104.5 95.5L104.5 359.5" fill-rule="nonzero"/><path stroke="#cccccc" stroke-width="1.0" stroke-linecap="butt" d="M248.5 95.5L248.5 359.5" fill-rule="nonzero"/><path stroke="#cccccc" stroke-width="1.0" stroke-linecap="butt" d="M392.5 95.5L392.5 359.5" fill-rule="nonzero"/><path stroke="#cccccc" stroke-width="1.0" stroke-linecap="butt" d="M535.5 95.5L535.5 359.5" fill-rule="nonzero"/><path stroke="#cccccc" stroke-width="1.0" stroke-linecap="butt" d="M679.5 95.5L679.5 359.5" fill-rule="nonzero"/><path stroke="#333333" stroke-width="1.0" stroke-linecap="butt" d="M104.5 359.5L679.5 359.5" fill-rule="nonzero"/><path stroke="#cccccc" stroke-width="1.0" stroke-linecap="butt" d="M104.5 306.5L679.5 306.5" fill-rule="nonzero"/><path stroke="#cccccc" stroke-width="1.0" stroke-linecap="butt" d="M104.5 253.5L679.5 253.5" fill-rule="nonzero"/><path stroke="#cccccc" stroke-width="1.0" stroke-linecap="butt" d="M104.5 201.5L679.5 201.5" fill-rule="nonzero"/><path stroke="#cccccc" stroke-width="1.0" stroke-linecap="butt" d="M104.5 148.5L679.5 148.5" fill-rule="nonzero"/><path stroke="#cccccc" stroke-width="1.0" stroke-linecap="butt" d="M104.5 95.5L679.5 95.5" fill-rule="nonzero"/><clipPath id="id_0"><path d="M104.65 95.51667L679.35 95.51667L679.35 359.35L104.65 359.35L104.65 95.51667Z" clip-rule="nonzero"/></clipPath><path stroke="#4285f4" stroke-width="2.0" stroke-linecap="butt" clip-path="url(#id_0)" d="M104.65 359.26505L248.325 359.24976L392.0 359.26556L535.675 359.30197L679.35 359.29617" fill-rule="nonzero"/><path stroke="#ea4335" stroke-width="2.0" stroke-linecap="butt" clip-path="url(#id_0)" d="M104.65 359.13947L248.325 358.47775L392.0 351.97534L535.675 325.76242L679.35 99.63616" fill-rule="nonzero"/><path fill="#000000" fill-opacity="0.0" clip-path="url(#id_0)" d="M107.65 359.26505C107.65 360.9219 106.306854 362.26505 104.65 362.26505C102.99315 362.26505 101.65 360.9219 101.65 359.26505C101.65 357.6082 102.99315 356.26505 104.65 356.26505C106.306854 356.26505 107.65 357.6082 107.65 359.26505Z" fill-rule="nonzero"/><path fill="#000000" fill-opacity="0.0" clip-path="url(#id_0)" d="M251.325 359.24976C251.325 360.9066 249.98186 362.24976 248.325 362.24976C246.66815 362.24976 245.325 360.9066 245.325 359.24976C245.325 357.5929 246.66815 356.24976 248.325 356.24976C249.98186 356.24976 251.325 357.5929 251.325 359.24976Z" fill-rule="nonzero"/><path fill="#000000" fill-opacity="0.0" clip-path="url(#id_0)" d="M395.0 359.26556C395.0 360.92242 393.65686 362.26556 392.0 362.26556C390.34314 362.26556 389.0 360.92242 389.0 359.26556C389.0 357.60873 390.34314 356.26556 392.0 356.26556C393.65686 356.26556 395.0 357.60873 395.0 359.26556Z" fill-rule="nonzero"/><path fill="#000000" fill-opacity="0.0" clip-path="url(#id_0)" d="M538.675 359.30197C538.675 360.95883 537.33185 362.30197 535.675 362.30197C534.0181 362.30197 532.675 360.95883 532.675 359.30197C532.675 357.64514 534.0181 356.30197 535.675 356.30197C537.33185 356.30197 538.675 357.64514 538.675 359.30197Z" fill-rule="nonzero"/><path fill="#000000" fill-opacity="0.0" clip-path="url(#id_0)" d="M682.35 359.29617C682.35 360.95303 681.00684 362.29617 679.35 362.29617C677.6931 362.29617 676.35 360.95303 676.35 359.29617C676.35 357.6393 677.6931 356.29617 679.35 356.29617C681.00684 356.29617 682.35 357.6393 682.35 359.29617Z" fill-rule="nonzero"/><path fill="#000000" fill-opacity="0.0" clip-path="url(#id_0)" d="M107.65 359.13947C107.65 360.79633 106.306854 362.13947 104.65 362.13947C102.99315 362.13947 101.65 360.79633 101.65 359.13947C101.65 357.4826 102.99315 356.13947 104.65 356.13947C106.306854 356.13947 107.65 357.4826 107.65 359.13947Z" fill-rule="nonzero"/><path fill="#000000" fill-opacity="0.0" clip-path="url(#id_0)" d="M251.325 358.47775C251.325 360.1346 249.98186 361.47775 248.325 361.47775C246.66815 361.47775 245.325 360.1346 245.325 358.47775C245.325 356.82092 246.66815 355.47775 248.325 355.47775C249.98186 355.47775 251.325 356.82092 251.325 358.47775Z" fill-rule="nonzero"/><path fill="#000000" fill-opacity="0.0" clip-path="url(#id_0)" d="M395.0 351.97534C395.0 353.63217 393.65686 354.97534 392.0 354.97534C390.34314 354.97534 389.0 353.63217 389.0 351.97534C389.0 350.31848 390.34314 348.97534 392.0 348.97534C393.65686 348.97534 395.0 350.31848 395.0 351.97534Z" fill-rule="nonzero"/><path fill="#000000" fill-opacity="0.0" clip-path="url(#id_0)" d="M538.675 325.76242C538.675 327.41928 537.33185 328.76242 535.675 328.76242C534.0181 328.76242 532.675 327.41928 532.675 325.76242C532.675 324.1056 534.0181 322.76242 535.675 322.76242C537.33185 322.76242 538.675 324.1056 538.675 325.76242Z" fill-rule="nonzero"/><path fill="#000000" fill-opacity="0.0" clip-path="url(#id_0)" d="M682.35 99.63616C682.35 101.293015 681.00684 102.63616 679.35 102.63616C677.6931 102.63616 676.35 101.293015 676.35 99.63616C676.35 97.97931 677.6931 96.63616 679.35 96.63616C681.00684 96.63616 682.35 97.97931 682.35 99.63616Z" fill-rule="nonzero"/><path fill="#000000" d="M377.40625 405.24063Q377.40625 403.50626 378.35938 402.67813Q379.15625 401.99063 380.3125 401.99063Q381.59375 401.99063 382.40625 402.83438Q383.23438 403.6625 383.23438 405.14688Q383.23438 406.35 382.875 407.0375Q382.51562 407.725 381.8125 408.11563Q381.125 408.49063 380.3125 408.49063Q379.01562 408.49063 378.20312 407.6625Q377.40625 406.81876 377.40625 405.24063ZM378.48438 405.24063Q378.48438 406.42813 379.0 407.02188Q379.53125 407.61563 380.3125 407.61563Q381.10938 407.61563 381.625 407.02188Q382.14062 406.42813 382.14062 405.20938Q382.14062 404.05313 381.60938 403.45938Q381.09375 402.86563 380.3125 402.86563Q379.53125 402.86563 379.0 403.45938Q378.48438 404.0375 378.48438 405.24063ZM385.04688 408.35L385.04688 402.94376L384.10938 402.94376L384.10938 402.13126L385.04688 402.13126L385.04688 401.45938Q385.04688 400.83438 385.15625 400.5375Q385.3125 400.11563 385.6875 399.86563Q386.07812 399.61563 386.76562 399.61563Q387.21875 399.61563 387.75 399.725L387.59375 400.63126Q387.26562 400.58438 386.96875 400.58438Q386.48438 400.58438 386.28125 400.7875Q386.09375 400.99063 386.09375 401.55313L386.09375 402.13126L387.3125 402.13126L387.3125 402.94376L386.09375 402.94376L386.09375 408.35L385.04688 408.35ZM388.04688 408.35L388.04688 402.94376L387.10938 402.94376L387.10938 402.13126L388.04688 402.13126L388.04688 401.45938Q388.04688 400.83438 388.15625 400.5375Q388.3125 400.11563 388.6875 399.86563Q389.07812 399.61563 389.76562 399.61563Q390.21875 399.61563 390.75 399.725L390.59375 400.63126Q390.26562 400.58438 389.96875 400.58438Q389.48438 400.58438 389.28125 400.7875Q389.09375 400.99063 389.09375 401.55313L389.09375 402.13126L390.3125 402.13126L390.3125 402.94376L389.09375 402.94376L389.09375 408.35L388.04688 408.35ZM390.375 406.49063L391.40625 406.33438Q391.5 406.95938 391.89062 407.2875Q392.29688 407.61563 393.03125 407.61563Q393.75 407.61563 394.09375 407.33438Q394.45312 407.0375 394.45312 406.63126Q394.45312 406.27188 394.14062 406.06876Q393.92188 405.92813 393.0625 405.70938Q391.90625 405.4125 391.45312 405.20938Q391.01562 404.99063 390.78125 404.61563Q390.54688 404.24063 390.54688 403.77188Q390.54688 403.36563 390.73438 403.00626Q390.92188 402.64688 391.25 402.4125Q391.5 402.24063 391.92188 402.11563Q392.34375 401.99063 392.84375 401.99063Q393.5625 401.99063 394.10938 402.20938Q394.67188 402.4125 394.9375 402.77188Q395.20312 403.13126 395.29688 403.725L394.26562 403.86563Q394.20312 403.39688 393.85938 403.13126Q393.53125 402.85 392.90625 402.85Q392.1875 402.85 391.875 403.1Q391.5625 403.33438 391.5625 403.6625Q391.5625 403.86563 391.6875 404.02188Q391.82812 404.19376 392.09375 404.30313Q392.25 404.36563 393.03125 404.56876Q394.15625 404.88126 394.59375 405.06876Q395.03125 405.25626 395.28125 405.61563Q395.53125 405.975 395.53125 406.52188Q395.53125 407.05313 395.21875 407.52188Q394.92188 407.975 394.34375 408.24063Q393.76562 408.49063 393.03125 408.49063Q391.8125 408.49063 391.17188 407.99063Q390.54688 407.475 390.375 406.49063ZM402.04688 406.35L403.14062 406.475Q402.89062 407.42813 402.1875 407.95938Q401.48438 408.49063 400.40625 408.49063Q399.04688 408.49063 398.23438 407.64688Q397.4375 406.80313 397.4375 405.2875Q397.4375 403.725 398.25 402.86563Q399.0625 401.99063 400.34375 401.99063Q401.59375 401.99063 402.375 402.83438Q403.17188 403.67813 403.17188 405.225Q403.17188 405.31876 403.17188 405.50626L398.53125 405.50626Q398.59375 406.5375 399.10938 407.08438Q399.625 407.61563 400.40625 407.61563Q400.98438 407.61563 401.39062 407.31876Q401.8125 407.00626 402.04688 406.35ZM398.59375 404.64688L402.0625 404.64688Q402.0 403.85 401.67188 403.45938Q401.15625 402.85 400.35938 402.85Q399.625 402.85 399.125 403.33438Q398.64062 403.81876 398.59375 404.64688ZM407.09375 407.4125L407.25 408.33438Q406.79688 408.42813 406.45312 408.42813Q405.875 408.42813 405.5625 408.25626Q405.25 408.06876 405.10938 407.77188Q404.98438 407.475 404.98438 406.52188L404.98438 402.94376L404.21875 402.94376L404.21875 402.13126L404.98438 402.13126L404.98438 400.58438L406.03125 399.95938L406.03125 402.13126L407.09375 402.13126L407.09375 402.94376L406.03125 402.94376L406.03125 406.58438Q406.03125 407.0375 406.07812 407.1625Q406.14062 407.2875 406.26562 407.36563Q406.39062 407.44376 406.625 407.44376Q406.8125 407.44376 407.09375 407.4125Z" fill-rule="nonzero"/><path fill="#000000" d="M32.650005 268.63647L26.431255 268.63647L26.431255 267.69897L27.306255 267.69897Q26.837505 267.4021 26.57188 266.91772Q26.29063 266.43335 26.29063 265.80835Q26.29063 265.12085 26.57188 264.68335Q26.85313 264.23022 27.368755 264.05835Q26.29063 263.30835 26.29063 262.13647Q26.29063 261.19897 26.806255 260.7146Q27.306255 260.2146 28.38438 260.2146L32.650005 260.2146L32.650005 261.26147L28.72813 261.26147Q28.10313 261.26147 27.82188 261.37085Q27.54063 261.4646 27.368755 261.73022Q27.19688 261.99585 27.19688 262.37085Q27.19688 263.0271 27.63438 263.4646Q28.07188 263.88647 29.04063 263.88647L32.650005 263.88647L32.650005 264.94897L28.60313 264.94897Q27.900005 264.94897 27.556255 265.2146Q27.19688 265.4646 27.19688 266.04272Q27.19688 266.49585 27.431255 266.87085Q27.66563 267.24585 28.118755 267.41772Q28.57188 267.5896 29.41563 267.5896L32.650005 267.5896L32.650005 268.63647ZM25.275005 257.63647L24.056255 257.63647L24.056255 256.57397L25.275005 256.57397L25.275005 257.63647ZM32.650005 257.63647L26.431255 257.63647L26.431255 256.57397L32.650005 256.57397L32.650005 257.63647ZM32.650005 254.66771L24.056255 254.66771L24.056255 253.60521L32.650005 253.60521L32.650005 254.66771ZM32.650005 251.66771L24.056255 251.66771L24.056255 250.60521L32.650005 250.60521L32.650005 251.66771ZM25.275005 248.63646L24.056255 248.63646L24.056255 247.57396L25.275005 247.57396L25.275005 248.63646ZM32.650005 248.63646L26.431255 248.63646L26.431255 247.57396L32.650005 247.57396L32.650005 248.63646ZM30.79063 246.05833L30.63438 245.02708Q31.25938 244.93333 31.587505 244.54271Q31.91563 244.13646 31.91563 243.40208Q31.91563 242.68333 31.63438 242.33958Q31.337505 241.98021 30.931255 241.98021Q30.57188 241.98021 30.368755 242.29271Q30.22813 242.51146 30.00938 243.37083Q29.712505 244.52708 29.50938 244.98021Q29.29063 245.41771 28.91563 245.65208Q28.54063 245.88646 28.07188 245.88646Q27.66563 245.88646 27.306255 245.69896Q26.94688 245.51146 26.712505 245.18333Q26.54063 244.93333 26.41563 244.51146Q26.29063 244.08958 26.29063 243.58958Q26.29063 242.87083 26.50938 242.32396Q26.712505 241.76146 27.07188 241.49583Q27.431255 241.23021 28.025005 241.13646L28.16563 242.16771Q27.69688 242.23021 27.431255 242.57396Q27.150005 242.90208 27.150005 243.52708Q27.150005 244.24583 27.400005 244.55833Q27.63438 244.87083 27.962505 244.87083Q28.16563 244.87083 28.32188 244.74583Q28.493755 244.60521 28.60313 244.33958Q28.66563 244.18333 28.868755 243.40208Q29.181255 242.27708 29.368755 241.83958Q29.556255 241.40208 29.91563 241.15208Q30.275005 240.90208 30.82188 240.90208Q31.35313 240.90208 31.82188 241.21458Q32.275005 241.51146 32.54063 242.08958Q32.79063 242.66771 32.79063 243.40208Q32.79063 244.62083 32.29063 245.26146Q31.775005 245.88646 30.79063 246.05833ZM30.650005 234.38646L30.775005 233.29271Q31.72813 233.54271 32.25938 234.24583Q32.79063 234.94896 32.79063 236.02708Q32.79063 237.38646 31.94688 238.19896Q31.10313 238.99583 29.587505 238.99583Q28.025005 238.99583 27.16563 238.18333Q26.29063 237.37083 26.29063 236.08958Q26.29063 234.83958 27.13438 234.05833Q27.97813 233.26146 29.525005 233.26146Q29.618755 233.26146 29.806255 233.26146L29.806255 237.90208Q30.837505 237.83958 31.38438 237.32396Q31.91563 236.80833 31.91563 236.02708Q31.91563 235.44896 31.618755 235.04271Q31.306255 234.62083 30.650005 234.38646ZM28.94688 237.83958L28.94688 234.37083Q28.150005 234.43333 27.75938 234.76146Q27.150005 235.27708 27.150005 236.07396Q27.150005 236.80833 27.63438 237.30833Q28.118755 237.79271 28.94688 237.83958ZM30.368755 227.57396L30.50938 226.54271Q31.57188 226.71458 32.181255 227.41771Q32.79063 228.12083 32.79063 229.13646Q32.79063 230.41771 31.962505 231.19896Q31.118755 231.96458 29.556255 231.96458Q28.556255 231.96458 27.806255 231.63646Q27.04063 231.29271 26.66563 230.62083Q26.29063 229.93333 26.29063 229.12083Q26.29063 228.12083 26.806255 227.48021Q27.306255 226.82396 28.25938 226.63646L28.41563 227.66771Q27.79063 227.80833 27.47813 228.18333Q27.150005 228.55833 27.150005 229.08958Q27.150005 229.88646 27.72813 230.38646Q28.29063 230.88646 29.525005 230.88646Q30.79063 230.88646 31.35313 230.40208Q31.91563 229.91771 31.91563 229.15208Q31.91563 228.52708 31.54063 228.12083Q31.16563 227.69896 30.368755 227.57396ZM29.54063 226.02708Q27.806255 226.02708 26.97813 225.07396Q26.29063 224.27708 26.29063 223.12083Q26.29063 221.83958 27.13438 221.02708Q27.962505 220.19896 29.44688 220.19896Q30.650005 220.19896 31.337505 220.55833Q32.025005 220.91771 32.41563 221.62083Q32.79063 222.30833 32.79063 223.12083Q32.79063 224.41771 31.962505 225.23021Q31.118755 226.02708 29.54063 226.02708ZM29.54063 224.94896Q30.72813 224.94896 31.32188 224.43333Q31.91563 223.90208 31.91563 223.12083Q31.91563 222.32396 31.32188 221.80833Q30.72813 221.29271 29.50938 221.29271Q28.35313 221.29271 27.75938 221.82396Q27.16563 222.33958 27.16563 223.12083Q27.16563 223.90208 27.75938 224.43333Q28.337505 224.94896 29.54063 224.94896ZM32.650005 218.63646L26.431255 218.63646L26.431255 217.69896L27.306255 217.69896Q26.29063 217.01146 26.29063 215.71458Q26.29063 215.15208 26.493755 214.68333Q26.69688 214.19896 27.025005 213.96458Q27.35313 213.73021 27.79063 213.63646Q28.087505 213.58958 28.82188 213.58958L32.650005 213.58958L32.650005 214.63646L28.868755 214.63646Q28.212505 214.63646 27.900005 214.76146Q27.587505 214.88646 27.400005 215.19896Q27.19688 215.51146 27.19688 215.93333Q27.19688 216.60521 27.63438 217.10521Q28.056255 217.58958 29.243755 217.58958L32.650005 217.58958L32.650005 218.63646ZM32.650005 207.60521L31.868755 207.60521Q32.79063 208.19896 32.79063 209.33958Q32.79063 210.08958 32.38438 210.71458Q31.962505 211.33958 31.22813 211.68333Q30.493755 212.02708 29.54063 212.02708Q28.618755 212.02708 27.85313 211.71458Q27.087505 211.40208 26.69688 210.77708Q26.29063 210.15208 26.29063 209.38646Q26.29063 208.82396 26.525005 208.38646Q26.75938 207.94896 27.13438 207.66771L24.056255 207.66771L24.056255 206.62083L32.650005 206.62083L32.650005 207.60521ZM29.54063 210.93333Q30.743755 210.93333 31.337505 210.43333Q31.91563 209.93333 31.91563 209.24583Q31.91563 208.55833 31.35313 208.07396Q30.79063 207.58958 29.63438 207.58958Q28.35313 207.58958 27.75938 208.08958Q27.16563 208.57396 27.16563 209.29271Q27.16563 209.99583 27.743755 210.46458Q28.306255 210.93333 29.54063 210.93333ZM30.79063 205.05833L30.63438 204.02708Q31.25938 203.93333 31.587505 203.54271Q31.91563 203.13646 31.91563 202.40208Q31.91563 201.68333 31.63438 201.33958Q31.337505 200.98021 30.931255 200.98021Q30.57188 200.98021 30.368755 201.29271Q30.22813 201.51146 30.00938 202.37083Q29.712505 203.52708 29.50938 203.98021Q29.29063 204.41771 28.91563 204.65208Q28.54063 204.88646 28.07188 204.88646Q27.66563 204.88646 27.306255 204.69896Q26.94688 204.51146 26.712505 204.18333Q26.54063 203.93333 26.41563 203.51146Q26.29063 203.08958 26.29063 202.58958Q26.29063 201.87083 26.50938 201.32396Q26.712505 200.76146 27.07188 200.49583Q27.431255 200.23021 28.025005 200.13646L28.16563 201.16771Q27.69688 201.23021 27.431255 201.57396Q27.150005 201.90208 27.150005 202.52708Q27.150005 203.24583 27.400005 203.55833Q27.63438 203.87083 27.962505 203.87083Q28.16563 203.87083 28.32188 203.74583Q28.493755 203.60521 28.60313 203.33958Q28.66563 203.18333 28.868755 202.40208Q29.181255 201.27708 29.368755 200.83958Q29.556255 200.40208 29.91563 200.15208Q30.275005 199.90208 30.82188 199.90208Q31.35313 199.90208 31.82188 200.21458Q32.275005 200.51146 32.54063 201.08958Q32.79063 201.66771 32.79063 202.40208Q32.79063 203.62083 32.29063 204.26146Q31.775005 204.88646 30.79063 205.05833Z" fill-rule="nonzero"/><path fill="#000000" d="M68.15 359.11563Q68.15 357.58438 68.4625 356.6625Q68.775 355.725 69.38438 355.225Q70.00938 354.725 70.94688 354.725Q71.63438 354.725 72.15 355.00626Q72.68125 355.2875 73.025 355.81876Q73.36875 356.33438 73.55625 357.08438Q73.74375 357.83438 73.74375 359.11563Q73.74375 360.63126 73.43125 361.55313Q73.13438 362.475 72.50938 362.99063Q71.9 363.49063 70.94688 363.49063Q69.7125 363.49063 68.99375 362.6Q68.15 361.5375 68.15 359.11563ZM69.22813 359.11563Q69.22813 361.225 69.72813 361.92813Q70.22813 362.63126 70.94688 362.63126Q71.68125 362.63126 72.16563 361.92813Q72.66563 361.225 72.66563 359.11563Q72.66563 356.99063 72.16563 356.30313Q71.68125 355.6 70.93125 355.6Q70.2125 355.6 69.775 356.20938Q69.22813 356.99063 69.22813 359.11563ZM75.74375 363.35L75.74375 362.14688L76.94688 362.14688L76.94688 363.35L75.74375 363.35ZM78.15 359.11563Q78.15 357.58438 78.4625 356.6625Q78.775 355.725 79.38438 355.225Q80.00938 354.725 80.94688 354.725Q81.63438 354.725 82.15 355.00626Q82.68125 355.2875 83.025 355.81876Q83.36875 356.33438 83.55625 357.08438Q83.74375 357.83438 83.74375 359.11563Q83.74375 360.63126 83.43125 361.55313Q83.13438 362.475 82.50938 362.99063Q81.9 363.49063 80.94688 363.49063Q79.7125 363.49063 78.99375 362.6Q78.15 361.5375 78.15 359.11563ZM79.22813 359.11563Q79.22813 361.225 79.72813 361.92813Q80.22813 362.63126 80.94688 362.63126Q81.68125 362.63126 82.16563 361.92813Q82.66563 361.225 82.66563 359.11563Q82.66563 356.99063 82.16563 356.30313Q81.68125 355.6 80.93125 355.6Q80.2125 355.6 79.775 356.20938Q79.22813 356.99063 79.22813 359.11563ZM85.15 359.11563Q85.15 357.58438 85.4625 356.6625Q85.775 355.725 86.38438 355.225Q87.00938 354.725 87.94688 354.725Q88.63438 354.725 89.15 355.00626Q89.68125 355.2875 90.025 355.81876Q90.36875 356.33438 90.55625 357.08438Q90.74375 357.83438 90.74375 359.11563Q90.74375 360.63126 90.43125 361.55313Q90.13438 362.475 89.50938 362.99063Q88.9 363.49063 87.94688 363.49063Q86.7125 363.49063 85.99375 362.6Q85.15 361.5375 85.15 359.11563ZM86.22813 359.11563Q86.22813 361.225 86.72813 361.92813Q87.22813 362.63126 87.94688 362.63126Q88.68125 362.63126 89.16563 361.92813Q89.66563 361.225 89.66563 359.11563Q89.66563 356.99063 89.16563 356.30313Q88.68125 355.6 87.93125 355.6Q87.2125 355.6 86.775 356.20938Q86.22813 356.99063 86.22813 359.11563ZM92.15 359.11563Q92.15 357.58438 92.4625 356.6625Q92.775 355.725 93.38438 355.225Q94.00938 354.725 94.94688 354.725Q95.63438 354.725 96.15 355.00626Q96.68125 355.2875 97.025 355.81876Q97.36875 356.33438 97.55625 357.08438Q97.74375 357.83438 97.74375 359.11563Q97.74375 360.63126 97.43125 361.55313Q97.13438 362.475 96.50938 362.99063Q95.9 363.49063 94.94688 363.49063Q93.7125 363.49063 92.99375 362.6Q92.15 361.5375 92.15 359.11563ZM93.22813 359.11563Q93.22813 361.225 93.72813 361.92813Q94.22813 362.63126 94.94688 362.63126Q95.68125 362.63126 96.16563 361.92813Q96.66563 361.225 96.66563 359.11563Q96.66563 356.99063 96.16563 356.30313Q95.68125 355.6 94.93125 355.6Q94.2125 355.6 93.775 356.20938Q93.22813 356.99063 93.22813 359.11563Z" fill-rule="nonzero"/><path fill="#000000" d="M58.11875 310.58334L57.071877 310.58334L57.071877 303.8646Q56.68125 304.22397 56.05625 304.59897Q55.446877 304.95834 54.9625 305.13022L54.9625 304.1146Q55.8375 303.69272 56.49375 303.1146Q57.165627 302.52084 57.446877 301.95834L58.11875 301.95834L58.11875 310.58334ZM61.15 306.34897Q61.15 304.81772 61.4625 303.89584Q61.775 302.95834 62.384377 302.45834Q63.009377 301.95834 63.946877 301.95834Q64.63438 301.95834 65.15 302.2396Q65.68125 302.52084 66.025 303.0521Q66.36875 303.56772 66.55625 304.31772Q66.74375 305.06772 66.74375 306.34897Q66.74375 307.8646 66.43125 308.78647Q66.13438 309.70834 65.50938 310.22397Q64.9 310.72397 63.946877 310.72397Q62.7125 310.72397 61.99375 309.83334Q61.15 308.77084 61.15 306.34897ZM62.228127 306.34897Q62.228127 308.45834 62.728127 309.16147Q63.228127 309.8646 63.946877 309.8646Q64.68125 309.8646 65.16563 309.16147Q65.66563 308.45834 65.66563 306.34897Q65.66563 304.22397 65.16563 303.53647Q64.68125 302.83334 63.93125 302.83334Q63.2125 302.83334 62.775 303.44272Q62.228127 304.22397 62.228127 306.34897ZM68.15 306.34897Q68.15 304.81772 68.4625 303.89584Q68.775 302.95834 69.38438 302.45834Q70.00938 301.95834 70.94688 301.95834Q71.63438 301.95834 72.15 302.2396Q72.68125 302.52084 73.025 303.0521Q73.36875 303.56772 73.55625 304.31772Q73.74375 305.06772 73.74375 306.34897Q73.74375 307.8646 73.43125 308.78647Q73.13438 309.70834 72.50938 310.22397Q71.9 310.72397 70.94688 310.72397Q69.7125 310.72397 68.99375 309.83334Q68.15 308.77084 68.15 306.34897ZM69.22813 306.34897Q69.22813 308.45834 69.72813 309.16147Q70.22813 309.8646 70.94688 309.8646Q71.68125 309.8646 72.16563 309.16147Q72.66563 308.45834 72.66563 306.34897Q72.66563 304.22397 72.16563 303.53647Q71.68125 302.83334 70.93125 302.83334Q70.2125 302.83334 69.775 303.44272Q69.22813 304.22397 69.22813 306.34897ZM75.74375 310.58334L75.74375 309.38022L76.94688 309.38022L76.94688 310.58334L75.74375 310.58334ZM78.15 306.34897Q78.15 304.81772 78.4625 303.89584Q78.775 302.95834 79.38438 302.45834Q80.00938 301.95834 80.94688 301.95834Q81.63438 301.95834 82.15 302.2396Q82.68125 302.52084 83.025 303.0521Q83.36875 303.56772 83.55625 304.31772Q83.74375 305.06772 83.74375 306.34897Q83.74375 307.8646 83.43125 308.78647Q83.13438 309.70834 82.50938 310.22397Q81.9 310.72397 80.94688 310.72397Q79.7125 310.72397 78.99375 309.83334Q78.15 308.77084 78.15 306.34897ZM79.22813 306.34897Q79.22813 308.45834 79.72813 309.16147Q80.22813 309.8646 80.94688 309.8646Q81.68125 309.8646 82.16563 309.16147Q82.66563 308.45834 82.66563 306.34897Q82.66563 304.22397 82.16563 303.53647Q81.68125 302.83334 80.93125 302.83334Q80.2125 302.83334 79.775 303.44272Q79.22813 304.22397 79.22813 306.34897ZM85.15 306.34897Q85.15 304.81772 85.4625 303.89584Q85.775 302.95834 86.38438 302.45834Q87.00938 301.95834 87.94688 301.95834Q88.63438 301.95834 89.15 302.2396Q89.68125 302.52084 90.025 303.0521Q90.36875 303.56772 90.55625 304.31772Q90.74375 305.06772 90.74375 306.34897Q90.74375 307.8646 90.43125 308.78647Q90.13438 309.70834 89.50938 310.22397Q88.9 310.72397 87.94688 310.72397Q86.7125 310.72397 85.99375 309.83334Q85.15 308.77084 85.15 306.34897ZM86.22813 306.34897Q86.22813 308.45834 86.72813 309.16147Q87.22813 309.8646 87.94688 309.8646Q88.68125 309.8646 89.16563 309.16147Q89.66563 308.45834 89.66563 306.34897Q89.66563 304.22397 89.16563 303.53647Q88.68125 302.83334 87.93125 302.83334Q87.2125 302.83334 86.775 303.44272Q86.22813 304.22397 86.22813 306.34897ZM92.15 306.34897Q92.15 304.81772 92.4625 303.89584Q92.775 302.95834 93.38438 302.45834Q94.00938 301.95834 94.94688 301.95834Q95.63438 301.95834 96.15 302.2396Q96.68125 302.52084 97.025 303.0521Q97.36875 303.56772 97.55625 304.31772Q97.74375 305.06772 97.74375 306.34897Q97.74375 307.8646 97.43125 308.78647Q97.13438 309.70834 96.50938 310.22397Q95.9 310.72397 94.94688 310.72397Q93.7125 310.72397 92.99375 309.83334Q92.15 308.77084 92.15 306.34897ZM93.22813 306.34897Q93.22813 308.45834 93.72813 309.16147Q94.22813 309.8646 94.94688 309.8646Q95.68125 309.8646 96.16563 309.16147Q96.66563 308.45834 96.66563 306.34897Q96.66563 304.22397 96.16563 303.53647Q95.68125 302.83334 94.93125 302.83334Q94.2125 302.83334 93.775 303.44272Q93.22813 304.22397 93.22813 306.34897Z" fill-rule="nonzero"/><path fill="#000000" d="M59.696877 256.80106L59.696877 257.81668L54.009377 257.81668Q54.009377 257.44168 54.134377 257.0823Q54.353127 256.50418 54.821877 255.94168Q55.30625 255.37918 56.2125 254.6448Q57.61875 253.48856 58.103127 252.81668Q58.603127 252.1448 58.603127 251.55106Q58.603127 250.92606 58.15 250.50418Q57.696877 250.06668 56.978127 250.06668Q56.2125 250.06668 55.759377 250.5198Q55.30625 250.97293 55.290627 251.78543L54.2125 251.67606Q54.321877 250.4573 55.040627 249.8323Q55.775 249.19168 57.009377 249.19168Q58.24375 249.19168 58.9625 249.87918Q59.68125 250.56668 59.68125 251.5823Q59.68125 252.09793 59.4625 252.59793Q59.259377 253.0823 58.759377 253.6448Q58.275 254.19168 57.15 255.1448Q56.196877 255.94168 55.915627 256.23856Q55.65 256.5198 55.478127 256.80106L59.696877 256.80106ZM61.15 253.5823Q61.15 252.05106 61.4625 251.12918Q61.775 250.19168 62.384377 249.69168Q63.009377 249.19168 63.946877 249.19168Q64.63438 249.19168 65.15 249.47293Q65.68125 249.75418 66.025 250.28543Q66.36875 250.80106 66.55625 251.55106Q66.74375 252.30106 66.74375 253.5823Q66.74375 255.09793 66.43125 256.0198Q66.13438 256.94168 65.50938 257.4573Q64.9 257.9573 63.946877 257.9573Q62.7125 257.9573 61.99375 257.06668Q61.15 256.00418 61.15 253.5823ZM62.228127 253.5823Q62.228127 255.69168 62.728127 256.3948Q63.228127 257.09793 63.946877 257.09793Q64.68125 257.09793 65.16563 256.3948Q65.66563 255.69168 65.66563 253.5823Q65.66563 251.4573 65.16563 250.7698Q64.68125 250.06668 63.93125 250.06668Q63.2125 250.06668 62.775 250.67606Q62.228127 251.4573 62.228127 253.5823ZM68.15 253.5823Q68.15 252.05106 68.4625 251.12918Q68.775 250.19168 69.38438 249.69168Q70.00938 249.19168 70.94688 249.19168Q71.63438 249.19168 72.15 249.47293Q72.68125 249.75418 73.025 250.28543Q73.36875 250.80106 73.55625 251.55106Q73.74375 252.30106 73.74375 253.5823Q73.74375 255.09793 73.43125 256.0198Q73.13438 256.94168 72.50938 257.4573Q71.9 257.9573 70.94688 257.9573Q69.7125 257.9573 68.99375 257.06668Q68.15 256.00418 68.15 253.5823ZM69.22813 253.5823Q69.22813 255.69168 69.72813 256.3948Q70.22813 257.09793 70.94688 257.09793Q71.68125 257.09793 72.16563 256.3948Q72.66563 255.69168 72.66563 253.5823Q72.66563 251.4573 72.16563 250.7698Q71.68125 250.06668 70.93125 250.06668Q70.2125 250.06668 69.775 250.67606Q69.22813 251.4573 69.22813 253.5823ZM75.74375 257.81668L75.74375 256.61356L76.94688 256.61356L76.94688 257.81668L75.74375 257.81668ZM78.15 253.5823Q78.15 252.05106 78.4625 251.12918Q78.775 250.19168 79.38438 249.69168Q80.00938 249.19168 80.94688 249.19168Q81.63438 249.19168 82.15 249.47293Q82.68125 249.75418 83.025 250.28543Q83.36875 250.80106 83.55625 251.55106Q83.74375 252.30106 83.74375 253.5823Q83.74375 255.09793 83.43125 256.0198Q83.13438 256.94168 82.50938 257.4573Q81.9 257.9573 80.94688 257.9573Q79.7125 257.9573 78.99375 257.06668Q78.15 256.00418 78.15 253.5823ZM79.22813 253.5823Q79.22813 255.69168 79.72813 256.3948Q80.22813 257.09793 80.94688 257.09793Q81.68125 257.09793 82.16563 256.3948Q82.66563 255.69168 82.66563 253.5823Q82.66563 251.4573 82.16563 250.7698Q81.68125 250.06668 80.93125 250.06668Q80.2125 250.06668 79.775 250.67606Q79.22813 251.4573 79.22813 253.5823ZM85.15 253.5823Q85.15 252.05106 85.4625 251.12918Q85.775 250.19168 86.38438 249.69168Q87.00938 249.19168 87.94688 249.19168Q88.63438 249.19168 89.15 249.47293Q89.68125 249.75418 90.025 250.28543Q90.36875 250.80106 90.55625 251.55106Q90.74375 252.30106 90.74375 253.5823Q90.74375 255.09793 90.43125 256.0198Q90.13438 256.94168 89.50938 257.4573Q88.9 257.9573 87.94688 257.9573Q86.7125 257.9573 85.99375 257.06668Q85.15 256.00418 85.15 253.5823ZM86.22813 253.5823Q86.22813 255.69168 86.72813 256.3948Q87.22813 257.09793 87.94688 257.09793Q88.68125 257.09793 89.16563 256.3948Q89.66563 255.69168 89.66563 253.5823Q89.66563 251.4573 89.16563 250.7698Q88.68125 250.06668 87.93125 250.06668Q87.2125 250.06668 86.775 250.67606Q86.22813 251.4573 86.22813 253.5823ZM92.15 253.5823Q92.15 252.05106 92.4625 251.12918Q92.775 250.19168 93.38438 249.69168Q94.00938 249.19168 94.94688 249.19168Q95.63438 249.19168 96.15 249.47293Q96.68125 249.75418 97.025 250.28543Q97.36875 250.80106 97.55625 251.55106Q97.74375 252.30106 97.74375 253.5823Q97.74375 255.09793 97.43125 256.0198Q97.13438 256.94168 96.50938 257.4573Q95.9 257.9573 94.94688 257.9573Q93.7125 257.9573 92.99375 257.06668Q92.15 256.00418 92.15 253.5823ZM93.22813 253.5823Q93.22813 255.69168 93.72813 256.3948Q94.22813 257.09793 94.94688 257.09793Q95.68125 257.09793 96.16563 256.3948Q96.66563 255.69168 96.66563 253.5823Q96.66563 251.4573 96.16563 250.7698Q95.68125 250.06668 94.93125 250.06668Q94.2125 250.06668 93.775 250.67606Q93.22813 251.4573 93.22813 253.5823Z" fill-rule="nonzero"/><path fill="#000000" d="M54.15 202.78438L55.2125 202.64375Q55.384377 203.53438 55.821877 203.94063Q56.259377 204.33125 56.884377 204.33125Q57.634377 204.33125 58.15 203.81563Q58.665627 203.3 58.665627 202.53438Q58.665627 201.81563 58.18125 201.34688Q57.7125 200.8625 56.978127 200.8625Q56.68125 200.8625 56.228127 200.9875L56.353127 200.05Q56.4625 200.06563 56.525 200.06563Q57.196877 200.06563 57.728127 199.72188Q58.275 199.3625 58.275 198.62813Q58.275 198.05 57.884377 197.675Q57.49375 197.28438 56.86875 197.28438Q56.259377 197.28438 55.8375 197.675Q55.43125 198.06563 55.321877 198.83125L54.259377 198.64375Q54.446877 197.59688 55.134377 197.01875Q55.821877 196.425 56.8375 196.425Q57.540627 196.425 58.134377 196.7375Q58.728127 197.03438 59.040627 197.55Q59.353127 198.06563 59.353127 198.65938Q59.353127 199.20625 59.05625 199.675Q58.759377 200.12813 58.18125 200.39375Q58.93125 200.56563 59.353127 201.12813Q59.775 201.675 59.775 202.51875Q59.775 203.64375 58.946877 204.425Q58.134377 205.20625 56.884377 205.20625Q55.759377 205.20625 55.009377 204.53438Q54.259377 203.84688 54.15 202.78438ZM61.15 200.81563Q61.15 199.28438 61.4625 198.3625Q61.775 197.425 62.384377 196.925Q63.009377 196.425 63.946877 196.425Q64.63438 196.425 65.15 196.70625Q65.68125 196.9875 66.025 197.51875Q66.36875 198.03438 66.55625 198.78438Q66.74375 199.53438 66.74375 200.81563Q66.74375 202.33125 66.43125 203.25313Q66.13438 204.175 65.50938 204.69063Q64.9 205.19063 63.946877 205.19063Q62.7125 205.19063 61.99375 204.3Q61.15 203.2375 61.15 200.81563ZM62.228127 200.81563Q62.228127 202.925 62.728127 203.62813Q63.228127 204.33125 63.946877 204.33125Q64.68125 204.33125 65.16563 203.62813Q65.66563 202.925 65.66563 200.81563Q65.66563 198.69063 65.16563 198.00313Q64.68125 197.3 63.93125 197.3Q63.2125 197.3 62.775 197.90938Q62.228127 198.69063 62.228127 200.81563ZM68.15 200.81563Q68.15 199.28438 68.4625 198.3625Q68.775 197.425 69.38438 196.925Q70.00938 196.425 70.94688 196.425Q71.63438 196.425 72.15 196.70625Q72.68125 196.9875 73.025 197.51875Q73.36875 198.03438 73.55625 198.78438Q73.74375 199.53438 73.74375 200.81563Q73.74375 202.33125 73.43125 203.25313Q73.13438 204.175 72.50938 204.69063Q71.9 205.19063 70.94688 205.19063Q69.7125 205.19063 68.99375 204.3Q68.15 203.2375 68.15 200.81563ZM69.22813 200.81563Q69.22813 202.925 69.72813 203.62813Q70.22813 204.33125 70.94688 204.33125Q71.68125 204.33125 72.16563 203.62813Q72.66563 202.925 72.66563 200.81563Q72.66563 198.69063 72.16563 198.00313Q71.68125 197.3 70.93125 197.3Q70.2125 197.3 69.775 197.90938Q69.22813 198.69063 69.22813 200.81563ZM75.74375 205.05L75.74375 203.84688L76.94688 203.84688L76.94688 205.05L75.74375 205.05ZM78.15 200.81563Q78.15 199.28438 78.4625 198.3625Q78.775 197.425 79.38438 196.925Q80.00938 196.425 80.94688 196.425Q81.63438 196.425 82.15 196.70625Q82.68125 196.9875 83.025 197.51875Q83.36875 198.03438 83.55625 198.78438Q83.74375 199.53438 83.74375 200.81563Q83.74375 202.33125 83.43125 203.25313Q83.13438 204.175 82.50938 204.69063Q81.9 205.19063 80.94688 205.19063Q79.7125 205.19063 78.99375 204.3Q78.15 203.2375 78.15 200.81563ZM79.22813 200.81563Q79.22813 202.925 79.72813 203.62813Q80.22813 204.33125 80.94688 204.33125Q81.68125 204.33125 82.16563 203.62813Q82.66563 202.925 82.66563 200.81563Q82.66563 198.69063 82.16563 198.00313Q81.68125 197.3 80.93125 197.3Q80.2125 197.3 79.775 197.90938Q79.22813 198.69063 79.22813 200.81563ZM85.15 200.81563Q85.15 199.28438 85.4625 198.3625Q85.775 197.425 86.38438 196.925Q87.00938 196.425 87.94688 196.425Q88.63438 196.425 89.15 196.70625Q89.68125 196.9875 90.025 197.51875Q90.36875 198.03438 90.55625 198.78438Q90.74375 199.53438 90.74375 200.81563Q90.74375 202.33125 90.43125 203.25313Q90.13438 204.175 89.50938 204.69063Q88.9 205.19063 87.94688 205.19063Q86.7125 205.19063 85.99375 204.3Q85.15 203.2375 85.15 200.81563ZM86.22813 200.81563Q86.22813 202.925 86.72813 203.62813Q87.22813 204.33125 87.94688 204.33125Q88.68125 204.33125 89.16563 203.62813Q89.66563 202.925 89.66563 200.81563Q89.66563 198.69063 89.16563 198.00313Q88.68125 197.3 87.93125 197.3Q87.2125 197.3 86.775 197.90938Q86.22813 198.69063 86.22813 200.81563ZM92.15 200.81563Q92.15 199.28438 92.4625 198.3625Q92.775 197.425 93.38438 196.925Q94.00938 196.425 94.94688 196.425Q95.63438 196.425 96.15 196.70625Q96.68125 196.9875 97.025 197.51875Q97.36875 198.03438 97.55625 198.78438Q97.74375 199.53438 97.74375 200.81563Q97.74375 202.33125 97.43125 203.25313Q97.13438 204.175 96.50938 204.69063Q95.9 205.19063 94.94688 205.19063Q93.7125 205.19063 92.99375 204.3Q92.15 203.2375 92.15 200.81563ZM93.22813 200.81563Q93.22813 202.925 93.72813 203.62813Q94.22813 204.33125 94.94688 204.33125Q95.68125 204.33125 96.16563 203.62813Q96.66563 202.925 96.66563 200.81563Q96.66563 198.69063 96.16563 198.00313Q95.68125 197.3 94.93125 197.3Q94.2125 197.3 93.775 197.90938Q93.22813 198.69063 93.22813 200.81563Z" fill-rule="nonzero"/><path fill="#000000" d="M57.525 152.28334L57.525 150.22084L53.80625 150.22084L53.80625 149.25209L57.728127 143.68959L58.5875 143.68959L58.5875 149.25209L59.74375 149.25209L59.74375 150.22084L58.5875 150.22084L58.5875 152.28334L57.525 152.28334ZM57.525 149.25209L57.525 145.39272L54.8375 149.25209L57.525 149.25209ZM61.15 148.04897Q61.15 146.51772 61.4625 145.59584Q61.775 144.65834 62.384377 144.15834Q63.009377 143.65834 63.946877 143.65834Q64.63438 143.65834 65.15 143.93959Q65.68125 144.22084 66.025 144.75209Q66.36875 145.26772 66.55625 146.01772Q66.74375 146.76772 66.74375 148.04897Q66.74375 149.56459 66.43125 150.48647Q66.13438 151.40834 65.50938 151.92397Q64.9 152.42397 63.946877 152.42397Q62.7125 152.42397 61.99375 151.53334Q61.15 150.47084 61.15 148.04897ZM62.228127 148.04897Q62.228127 150.15834 62.728127 150.86147Q63.228127 151.56459 63.946877 151.56459Q64.68125 151.56459 65.16563 150.86147Q65.66563 150.15834 65.66563 148.04897Q65.66563 145.92397 65.16563 145.23647Q64.68125 144.53334 63.93125 144.53334Q63.2125 144.53334 62.775 145.14272Q62.228127 145.92397 62.228127 148.04897ZM68.15 148.04897Q68.15 146.51772 68.4625 145.59584Q68.775 144.65834 69.38438 144.15834Q70.00938 143.65834 70.94688 143.65834Q71.63438 143.65834 72.15 143.93959Q72.68125 144.22084 73.025 144.75209Q73.36875 145.26772 73.55625 146.01772Q73.74375 146.76772 73.74375 148.04897Q73.74375 149.56459 73.43125 150.48647Q73.13438 151.40834 72.50938 151.92397Q71.9 152.42397 70.94688 152.42397Q69.7125 152.42397 68.99375 151.53334Q68.15 150.47084 68.15 148.04897ZM69.22813 148.04897Q69.22813 150.15834 69.72813 150.86147Q70.22813 151.56459 70.94688 151.56459Q71.68125 151.56459 72.16563 150.86147Q72.66563 150.15834 72.66563 148.04897Q72.66563 145.92397 72.16563 145.23647Q71.68125 144.53334 70.93125 144.53334Q70.2125 144.53334 69.775 145.14272Q69.22813 145.92397 69.22813 148.04897ZM75.74375 152.28334L75.74375 151.08022L76.94688 151.08022L76.94688 152.28334L75.74375 152.28334ZM78.15 148.04897Q78.15 146.51772 78.4625 145.59584Q78.775 144.65834 79.38438 144.15834Q80.00938 143.65834 80.94688 143.65834Q81.63438 143.65834 82.15 143.93959Q82.68125 144.22084 83.025 144.75209Q83.36875 145.26772 83.55625 146.01772Q83.74375 146.76772 83.74375 148.04897Q83.74375 149.56459 83.43125 150.48647Q83.13438 151.40834 82.50938 151.92397Q81.9 152.42397 80.94688 152.42397Q79.7125 152.42397 78.99375 151.53334Q78.15 150.47084 78.15 148.04897ZM79.22813 148.04897Q79.22813 150.15834 79.72813 150.86147Q80.22813 151.56459 80.94688 151.56459Q81.68125 151.56459 82.16563 150.86147Q82.66563 150.15834 82.66563 148.04897Q82.66563 145.92397 82.16563 145.23647Q81.68125 144.53334 80.93125 144.53334Q80.2125 144.53334 79.775 145.14272Q79.22813 145.92397 79.22813 148.04897ZM85.15 148.04897Q85.15 146.51772 85.4625 145.59584Q85.775 144.65834 86.38438 144.15834Q87.00938 143.65834 87.94688 143.65834Q88.63438 143.65834 89.15 143.93959Q89.68125 144.22084 90.025 144.75209Q90.36875 145.26772 90.55625 146.01772Q90.74375 146.76772 90.74375 148.04897Q90.74375 149.56459 90.43125 150.48647Q90.13438 151.40834 89.50938 151.92397Q88.9 152.42397 87.94688 152.42397Q86.7125 152.42397 85.99375 151.53334Q85.15 150.47084 85.15 148.04897ZM86.22813 148.04897Q86.22813 150.15834 86.72813 150.86147Q87.22813 151.56459 87.94688 151.56459Q88.68125 151.56459 89.16563 150.86147Q89.66563 150.15834 89.66563 148.04897Q89.66563 145.92397 89.16563 145.23647Q88.68125 144.53334 87.93125 144.53334Q87.2125 144.53334 86.775 145.14272Q86.22813 145.92397 86.22813 148.04897ZM92.15 148.04897Q92.15 146.51772 92.4625 145.59584Q92.775 144.65834 93.38438 144.15834Q94.00938 143.65834 94.94688 143.65834Q95.63438 143.65834 96.15 143.93959Q96.68125 144.22084 97.025 144.75209Q97.36875 145.26772 97.55625 146.01772Q97.74375 146.76772 97.74375 148.04897Q97.74375 149.56459 97.43125 150.48647Q97.13438 151.40834 96.50938 151.92397Q95.9 152.42397 94.94688 152.42397Q93.7125 152.42397 92.99375 151.53334Q92.15 150.47084 92.15 148.04897ZM93.22813 148.04897Q93.22813 150.15834 93.72813 150.86147Q94.22813 151.56459 94.94688 151.56459Q95.68125 151.56459 96.16563 150.86147Q96.66563 150.15834 96.66563 148.04897Q96.66563 145.92397 96.16563 145.23647Q95.68125 144.53334 94.93125 144.53334Q94.2125 144.53334 93.775 145.14272Q93.22813 145.92397 93.22813 148.04897Z" fill-rule="nonzero"/><path fill="#000000" d="M54.15 97.26667L55.259377 97.17292Q55.384377 97.98542 55.821877 98.39167Q56.275 98.79792 56.915627 98.79792Q57.665627 98.79792 58.196877 98.219795Q58.728127 97.64167 58.728127 96.70417Q58.728127 95.79792 58.2125 95.282295Q57.7125 94.751045 56.884377 94.751045Q56.384377 94.751045 55.9625 94.98542Q55.55625 95.219795 55.321877 95.57917L54.3375 95.45417L55.165627 91.04792L59.446877 91.04792L59.446877 92.04792L56.009377 92.04792L55.55625 94.36042Q56.321877 93.813545 57.165627 93.813545Q58.290627 93.813545 59.05625 94.594795Q59.8375 95.376045 59.8375 96.61042Q59.8375 97.76667 59.165627 98.626045Q58.3375 99.657295 56.915627 99.657295Q55.74375 99.657295 54.99375 99.001045Q54.259377 98.344795 54.15 97.26667ZM61.15 95.282295Q61.15 93.751045 61.4625 92.82917Q61.775 91.89167 62.384377 91.39167Q63.009377 90.89167 63.946877 90.89167Q64.63438 90.89167 65.15 91.17292Q65.68125 91.45417 66.025 91.98542Q66.36875 92.501045 66.55625 93.251045Q66.74375 94.001045 66.74375 95.282295Q66.74375 96.79792 66.43125 97.719795Q66.13438 98.64167 65.50938 99.157295Q64.9 99.657295 63.946877 99.657295Q62.7125 99.657295 61.99375 98.76667Q61.15 97.70417 61.15 95.282295ZM62.228127 95.282295Q62.228127 97.39167 62.728127 98.094795Q63.228127 98.79792 63.946877 98.79792Q64.68125 98.79792 65.16563 98.094795Q65.66563 97.39167 65.66563 95.282295Q65.66563 93.157295 65.16563 92.469795Q64.68125 91.76667 63.93125 91.76667Q63.2125 91.76667 62.775 92.376045Q62.228127 93.157295 62.228127 95.282295ZM68.15 95.282295Q68.15 93.751045 68.4625 92.82917Q68.775 91.89167 69.38438 91.39167Q70.00938 90.89167 70.94688 90.89167Q71.63438 90.89167 72.15 91.17292Q72.68125 91.45417 73.025 91.98542Q73.36875 92.501045 73.55625 93.251045Q73.74375 94.001045 73.74375 95.282295Q73.74375 96.79792 73.43125 97.719795Q73.13438 98.64167 72.50938 99.157295Q71.9 99.657295 70.94688 99.657295Q69.7125 99.657295 68.99375 98.76667Q68.15 97.70417 68.15 95.282295ZM69.22813 95.282295Q69.22813 97.39167 69.72813 98.094795Q70.22813 98.79792 70.94688 98.79792Q71.68125 98.79792 72.16563 98.094795Q72.66563 97.39167 72.66563 95.282295Q72.66563 93.157295 72.16563 92.469795Q71.68125 91.76667 70.93125 91.76667Q70.2125 91.76667 69.775 92.376045Q69.22813 93.157295 69.22813 95.282295ZM75.74375 99.51667L75.74375 98.313545L76.94688 98.313545L76.94688 99.51667L75.74375 99.51667ZM78.15 95.282295Q78.15 93.751045 78.4625 92.82917Q78.775 91.89167 79.38438 91.39167Q80.00938 90.89167 80.94688 90.89167Q81.63438 90.89167 82.15 91.17292Q82.68125 91.45417 83.025 91.98542Q83.36875 92.501045 83.55625 93.251045Q83.74375 94.001045 83.74375 95.282295Q83.74375 96.79792 83.43125 97.719795Q83.13438 98.64167 82.50938 99.157295Q81.9 99.657295 80.94688 99.657295Q79.7125 99.657295 78.99375 98.76667Q78.15 97.70417 78.15 95.282295ZM79.22813 95.282295Q79.22813 97.39167 79.72813 98.094795Q80.22813 98.79792 80.94688 98.79792Q81.68125 98.79792 82.16563 98.094795Q82.66563 97.39167 82.66563 95.282295Q82.66563 93.157295 82.16563 92.469795Q81.68125 91.76667 80.93125 91.76667Q80.2125 91.76667 79.775 92.376045Q79.22813 93.157295 79.22813 95.282295ZM85.15 95.282295Q85.15 93.751045 85.4625 92.82917Q85.775 91.89167 86.38438 91.39167Q87.00938 90.89167 87.94688 90.89167Q88.63438 90.89167 89.15 91.17292Q89.68125 91.45417 90.025 91.98542Q90.36875 92.501045 90.55625 93.251045Q90.74375 94.001045 90.74375 95.282295Q90.74375 96.79792 90.43125 97.719795Q90.13438 98.64167 89.50938 99.157295Q88.9 99.657295 87.94688 99.657295Q86.7125 99.657295 85.99375 98.76667Q85.15 97.70417 85.15 95.282295ZM86.22813 95.282295Q86.22813 97.39167 86.72813 98.094795Q87.22813 98.79792 87.94688 98.79792Q88.68125 98.79792 89.16563 98.094795Q89.66563 97.39167 89.66563 95.282295Q89.66563 93.157295 89.16563 92.469795Q88.68125 91.76667 87.93125 91.76667Q87.2125 91.76667 86.775 92.376045Q86.22813 93.157295 86.22813 95.282295ZM92.15 95.282295Q92.15 93.751045 92.4625 92.82917Q92.775 91.89167 93.38438 91.39167Q94.00938 90.89167 94.94688 90.89167Q95.63438 90.89167 96.15 91.17292Q96.68125 91.45417 97.025 91.98542Q97.36875 92.501045 97.55625 93.251045Q97.74375 94.001045 97.74375 95.282295Q97.74375 96.79792 97.43125 97.719795Q97.13438 98.64167 96.50938 99.157295Q95.9 99.657295 94.94688 99.657295Q93.7125 99.657295 92.99375 98.76667Q92.15 97.70417 92.15 95.282295ZM93.22813 95.282295Q93.22813 97.39167 93.72813 98.094795Q94.22813 98.79792 94.94688 98.79792Q95.68125 98.79792 96.16563 98.094795Q96.66563 97.39167 96.66563 95.282295Q96.66563 93.157295 96.16563 92.469795Q95.68125 91.76667 94.93125 91.76667Q94.2125 91.76667 93.775 92.376045Q93.22813 93.157295 93.22813 95.282295Z" fill-rule="nonzero"/><path fill="#000000" d="M98.61875 376.35L97.57188 376.35L97.57188 369.63126Q97.18125 369.99063 96.55625 370.36563Q95.94688 370.725 95.4625 370.89688L95.4625 369.88126Q96.3375 369.45938 96.99375 368.88126Q97.66563 368.2875 97.94688 367.725L98.61875 367.725L98.61875 376.35ZM101.65 372.11563Q101.65 370.58438 101.9625 369.6625Q102.275 368.725 102.88438 368.225Q103.50938 367.725 104.44688 367.725Q105.13438 367.725 105.65 368.00626Q106.18125 368.2875 106.525 368.81876Q106.86875 369.33438 107.05625 370.08438Q107.24375 370.83438 107.24375 372.11563Q107.24375 373.63126 106.93125 374.55313Q106.63438 375.475 106.00938 375.99063Q105.4 376.49063 104.44688 376.49063Q103.2125 376.49063 102.49375 375.6Q101.65 374.5375 101.65 372.11563ZM102.72813 372.11563Q102.72813 374.225 103.22813 374.92813Q103.72813 375.63126 104.44688 375.63126Q105.18125 375.63126 105.66563 374.92813Q106.16563 374.225 106.16563 372.11563Q106.16563 369.99063 105.66563 369.30313Q105.18125 368.6 104.43125 368.6Q103.7125 368.6 103.275 369.20938Q102.72813 369.99063 102.72813 372.11563ZM108.65 372.11563Q108.65 370.58438 108.9625 369.6625Q109.275 368.725 109.88438 368.225Q110.50938 367.725 111.44688 367.725Q112.13438 367.725 112.65 368.00626Q113.18125 368.2875 113.525 368.81876Q113.86875 369.33438 114.05625 370.08438Q114.24375 370.83438 114.24375 372.11563Q114.24375 373.63126 113.93125 374.55313Q113.63438 375.475 113.00938 375.99063Q112.4 376.49063 111.44688 376.49063Q110.2125 376.49063 109.49375 375.6Q108.65 374.5375 108.65 372.11563ZM109.72813 372.11563Q109.72813 374.225 110.22813 374.92813Q110.72813 375.63126 111.44688 375.63126Q112.18125 375.63126 112.66563 374.92813Q113.16563 374.225 113.16563 372.11563Q113.16563 369.99063 112.66563 369.30313Q112.18125 368.6 111.43125 368.6Q110.7125 368.6 110.275 369.20938Q109.72813 369.99063 109.72813 372.11563Z" fill-rule="nonzero"/><path fill="#000000" d="M238.79375 376.35L237.74687 376.35L237.74687 369.63126Q237.35625 369.99063 236.73125 370.36563Q236.12187 370.725 235.6375 370.89688L235.6375 369.88126Q236.5125 369.45938 237.16875 368.88126Q237.84062 368.2875 238.12187 367.725L238.79375 367.725L238.79375 376.35ZM241.825 372.11563Q241.825 370.58438 242.1375 369.6625Q242.45 368.725 243.05937 368.225Q243.68437 367.725 244.62187 367.725Q245.30937 367.725 245.825 368.00626Q246.35625 368.2875 246.7 368.81876Q247.04375 369.33438 247.23125 370.08438Q247.41875 370.83438 247.41875 372.11563Q247.41875 373.63126 247.10625 374.55313Q246.80937 375.475 246.18437 375.99063Q245.575 376.49063 244.62187 376.49063Q243.3875 376.49063 242.66875 375.6Q241.825 374.5375 241.825 372.11563ZM242.90312 372.11563Q242.90312 374.225 243.40312 374.92813Q243.90312 375.63126 244.62187 375.63126Q245.35625 375.63126 245.84062 374.92813Q246.34062 374.225 246.34062 372.11563Q246.34062 369.99063 245.84062 369.30313Q245.35625 368.6 244.60625 368.6Q243.8875 368.6 243.45 369.20938Q242.90312 369.99063 242.90312 372.11563ZM248.825 372.11563Q248.825 370.58438 249.1375 369.6625Q249.45 368.725 250.05937 368.225Q250.68437 367.725 251.62187 367.725Q252.30937 367.725 252.825 368.00626Q253.35625 368.2875 253.7 368.81876Q254.04375 369.33438 254.23125 370.08438Q254.41875 370.83438 254.41875 372.11563Q254.41875 373.63126 254.10625 374.55313Q253.80937 375.475 253.18437 375.99063Q252.575 376.49063 251.62187 376.49063Q250.3875 376.49063 249.66875 375.6Q248.825 374.5375 248.825 372.11563ZM249.90312 372.11563Q249.90312 374.225 250.40312 374.92813Q250.90312 375.63126 251.62187 375.63126Q252.35625 375.63126 252.84062 374.92813Q253.34062 374.225 253.34062 372.11563Q253.34062 369.99063 252.84062 369.30313Q252.35625 368.6 251.60625 368.6Q250.8875 368.6 250.45 369.20938Q249.90312 369.99063 249.90312 372.11563ZM255.825 372.11563Q255.825 370.58438 256.1375 369.6625Q256.45 368.725 257.0594 368.225Q257.6844 367.725 258.6219 367.725Q259.3094 367.725 259.825 368.00626Q260.35626 368.2875 260.7 368.81876Q261.04376 369.33438 261.23126 370.08438Q261.41876 370.83438 261.41876 372.11563Q261.41876 373.63126 261.10626 374.55313Q260.8094 375.475 260.1844 375.99063Q259.575 376.49063 258.6219 376.49063Q257.3875 376.49063 256.66876 375.6Q255.825 374.5375 255.825 372.11563ZM256.90314 372.11563Q256.90314 374.225 257.40314 374.92813Q257.90314 375.63126 258.6219 375.63126Q259.35626 375.63126 259.84064 374.92813Q260.34064 374.225 260.34064 372.11563Q260.34064 369.99063 259.84064 369.30313Q259.35626 368.6 258.60626 368.6Q257.8875 368.6 257.45 369.20938Q256.90314 369.99063 256.90314 372.11563Z" fill-rule="nonzero"/><path fill="#000000" d="M378.96875 376.35L377.92188 376.35L377.92188 369.63126Q377.53125 369.99063 376.90625 370.36563Q376.29688 370.725 375.8125 370.89688L375.8125 369.88126Q376.6875 369.45938 377.34375 368.88126Q378.01562 368.2875 378.29688 367.725L378.96875 367.725L378.96875 376.35ZM382.0 372.11563Q382.0 370.58438 382.3125 369.6625Q382.625 368.725 383.23438 368.225Q383.85938 367.725 384.79688 367.725Q385.48438 367.725 386.0 368.00626Q386.53125 368.2875 386.875 368.81876Q387.21875 369.33438 387.40625 370.08438Q387.59375 370.83438 387.59375 372.11563Q387.59375 373.63126 387.28125 374.55313Q386.98438 375.475 386.35938 375.99063Q385.75 376.49063 384.79688 376.49063Q383.5625 376.49063 382.84375 375.6Q382.0 374.5375 382.0 372.11563ZM383.07812 372.11563Q383.07812 374.225 383.57812 374.92813Q384.07812 375.63126 384.79688 375.63126Q385.53125 375.63126 386.01562 374.92813Q386.51562 374.225 386.51562 372.11563Q386.51562 369.99063 386.01562 369.30313Q385.53125 368.6 384.78125 368.6Q384.0625 368.6 383.625 369.20938Q383.07812 369.99063 383.07812 372.11563ZM389.0 372.11563Q389.0 370.58438 389.3125 369.6625Q389.625 368.725 390.23438 368.225Q390.85938 367.725 391.79688 367.725Q392.48438 367.725 393.0 368.00626Q393.53125 368.2875 393.875 368.81876Q394.21875 369.33438 394.40625 370.08438Q394.59375 370.83438 394.59375 372.11563Q394.59375 373.63126 394.28125 374.55313Q393.98438 375.475 393.35938 375.99063Q392.75 376.49063 391.79688 376.49063Q390.5625 376.49063 389.84375 375.6Q389.0 374.5375 389.0 372.11563ZM390.07812 372.11563Q390.07812 374.225 390.57812 374.92813Q391.07812 375.63126 391.79688 375.63126Q392.53125 375.63126 393.01562 374.92813Q393.51562 374.225 393.51562 372.11563Q393.51562 369.99063 393.01562 369.30313Q392.53125 368.6 391.78125 368.6Q391.0625 368.6 390.625 369.20938Q390.07812 369.99063 390.07812 372.11563ZM396.0 372.11563Q396.0 370.58438 396.3125 369.6625Q396.625 368.725 397.23438 368.225Q397.85938 367.725 398.79688 367.725Q399.48438 367.725 400.0 368.00626Q400.53125 368.2875 400.875 368.81876Q401.21875 369.33438 401.40625 370.08438Q401.59375 370.83438 401.59375 372.11563Q401.59375 373.63126 401.28125 374.55313Q400.98438 375.475 400.35938 375.99063Q399.75 376.49063 398.79688 376.49063Q397.5625 376.49063 396.84375 375.6Q396.0 374.5375 396.0 372.11563ZM397.07812 372.11563Q397.07812 374.225 397.57812 374.92813Q398.07812 375.63126 398.79688 375.63126Q399.53125 375.63126 400.01562 374.92813Q400.51562 374.225 400.51562 372.11563Q400.51562 369.99063 400.01562 369.30313Q399.53125 368.6 398.78125 368.6Q398.0625 368.6 397.625 369.20938Q397.07812 369.99063 397.07812 372.11563ZM403.0 372.11563Q403.0 370.58438 403.3125 369.6625Q403.625 368.725 404.23438 368.225Q404.85938 367.725 405.79688 367.725Q406.48438 367.725 407.0 368.00626Q407.53125 368.2875 407.875 368.81876Q408.21875 369.33438 408.40625 370.08438Q408.59375 370.83438 408.59375 372.11563Q408.59375 373.63126 408.28125 374.55313Q407.98438 375.475 407.35938 375.99063Q406.75 376.49063 405.79688 376.49063Q404.5625 376.49063 403.84375 375.6Q403.0 374.5375 403.0 372.11563ZM404.07812 372.11563Q404.07812 374.225 404.57812 374.92813Q405.07812 375.63126 405.79688 375.63126Q406.53125 375.63126 407.01562 374.92813Q407.51562 374.225 407.51562 372.11563Q407.51562 369.99063 407.01562 369.30313Q406.53125 368.6 405.78125 368.6Q405.0625 368.6 404.625 369.20938Q404.07812 369.99063 404.07812 372.11563Z" fill-rule="nonzero"/><path fill="#000000" d="M519.14374 376.35L518.09686 376.35L518.09686 369.63126Q517.70624 369.99063 517.08124 370.36563Q516.47186 370.725 515.9875 370.89688L515.9875 369.88126Q516.8625 369.45938 517.51874 368.88126Q518.1906 368.2875 518.47186 367.725L519.14374 367.725L519.14374 376.35ZM522.175 372.11563Q522.175 370.58438 522.4875 369.6625Q522.8 368.725 523.40936 368.225Q524.03436 367.725 524.97186 367.725Q525.65936 367.725 526.175 368.00626Q526.70624 368.2875 527.05 368.81876Q527.39374 369.33438 527.58124 370.08438Q527.76874 370.83438 527.76874 372.11563Q527.76874 373.63126 527.45624 374.55313Q527.15936 375.475 526.53436 375.99063Q525.925 376.49063 524.97186 376.49063Q523.7375 376.49063 523.01874 375.6Q522.175 374.5375 522.175 372.11563ZM523.2531 372.11563Q523.2531 374.225 523.7531 374.92813Q524.2531 375.63126 524.97186 375.63126Q525.70624 375.63126 526.1906 374.92813Q526.6906 374.225 526.6906 372.11563Q526.6906 369.99063 526.1906 369.30313Q525.70624 368.6 524.95624 368.6Q524.2375 368.6 523.8 369.20938Q523.2531 369.99063 523.2531 372.11563ZM529.175 372.11563Q529.175 370.58438 529.4875 369.6625Q529.8 368.725 530.40936 368.225Q531.03436 367.725 531.97186 367.725Q532.65936 367.725 533.175 368.00626Q533.70624 368.2875 534.05 368.81876Q534.39374 369.33438 534.58124 370.08438Q534.76874 370.83438 534.76874 372.11563Q534.76874 373.63126 534.45624 374.55313Q534.15936 375.475 533.53436 375.99063Q532.925 376.49063 531.97186 376.49063Q530.7375 376.49063 530.01874 375.6Q529.175 374.5375 529.175 372.11563ZM530.2531 372.11563Q530.2531 374.225 530.7531 374.92813Q531.2531 375.63126 531.97186 375.63126Q532.70624 375.63126 533.1906 374.92813Q533.6906 374.225 533.6906 372.11563Q533.6906 369.99063 533.1906 369.30313Q532.70624 368.6 531.95624 368.6Q531.2375 368.6 530.8 369.20938Q530.2531 369.99063 530.2531 372.11563ZM536.175 372.11563Q536.175 370.58438 536.4875 369.6625Q536.8 368.725 537.40936 368.225Q538.03436 367.725 538.97186 367.725Q539.65936 367.725 540.175 368.00626Q540.70624 368.2875 541.05 368.81876Q541.39374 369.33438 541.58124 370.08438Q541.76874 370.83438 541.76874 372.11563Q541.76874 373.63126 541.45624 374.55313Q541.15936 375.475 540.53436 375.99063Q539.925 376.49063 538.97186 376.49063Q537.7375 376.49063 537.01874 375.6Q536.175 374.5375 536.175 372.11563ZM537.2531 372.11563Q537.2531 374.225 537.7531 374.92813Q538.2531 375.63126 538.97186 375.63126Q539.70624 375.63126 540.1906 374.92813Q540.6906 374.225 540.6906 372.11563Q540.6906 369.99063 540.1906 369.30313Q539.70624 368.6 538.95624 368.6Q538.2375 368.6 537.8 369.20938Q537.2531 369.99063 537.2531 372.11563ZM543.175 372.11563Q543.175 370.58438 543.4875 369.6625Q543.8 368.725 544.40936 368.225Q545.03436 367.725 545.97186 367.725Q546.65936 367.725 547.175 368.00626Q547.70624 368.2875 548.05 368.81876Q548.39374 369.33438 548.58124 370.08438Q548.76874 370.83438 548.76874 372.11563Q548.76874 373.63126 548.45624 374.55313Q548.15936 375.475 547.53436 375.99063Q546.925 376.49063 545.97186 376.49063Q544.7375 376.49063 544.01874 375.6Q543.175 374.5375 543.175 372.11563ZM544.2531 372.11563Q544.2531 374.225 544.7531 374.92813Q545.2531 375.63126 545.97186 375.63126Q546.70624 375.63126 547.1906 374.92813Q547.6906 374.225 547.6906 372.11563Q547.6906 369.99063 547.1906 369.30313Q546.70624 368.6 545.95624 368.6Q545.2375 368.6 544.8 369.20938Q544.2531 369.99063 544.2531 372.11563ZM550.175 372.11563Q550.175 370.58438 550.4875 369.6625Q550.8 368.725 551.40936 368.225Q552.03436 367.725 552.97186 367.725Q553.65936 367.725 554.175 368.00626Q554.70624 368.2875 555.05 368.81876Q555.39374 369.33438 555.58124 370.08438Q555.76874 370.83438 555.76874 372.11563Q555.76874 373.63126 555.45624 374.55313Q555.15936 375.475 554.53436 375.99063Q553.925 376.49063 552.97186 376.49063Q551.7375 376.49063 551.01874 375.6Q550.175 374.5375 550.175 372.11563ZM551.2531 372.11563Q551.2531 374.225 551.7531 374.92813Q552.2531 375.63126 552.97186 375.63126Q553.70624 375.63126 554.1906 374.92813Q554.6906 374.225 554.6906 372.11563Q554.6906 369.99063 554.1906 369.30313Q553.70624 368.6 552.95624 368.6Q552.2375 368.6 551.8 369.20938Q551.2531 369.99063 551.2531 372.11563Z" fill-rule="nonzero"/><path stroke="#4285f4" stroke-width="4.0" stroke-linecap="butt" d="M247.5 67.083336L259.5 67.083336" fill-rule="nonzero"/><path fill="#1a1a1a" d="M268.29688 73.47396L268.29688 64.864586L269.25 64.864586L269.25 65.66146Q269.59375 65.19271 270.01562 64.958336Q270.45312 64.72396 271.0625 64.72396Q271.85938 64.72396 272.46875 65.13021Q273.07812 65.53646 273.375 66.28646Q273.6875 67.03646 273.6875 67.927086Q273.6875 68.88021 273.34375 69.645836Q273.01562 70.41146 272.35938 70.81771Q271.70312 71.22396 270.98438 71.22396Q270.45312 71.22396 270.03125 71.00521Q269.60938 70.770836 269.34375 70.44271L269.34375 73.47396L268.29688 73.47396ZM269.25 68.00521Q269.25 69.208336 269.73438 69.78646Q270.21875 70.34896 270.90625 70.34896Q271.60938 70.34896 272.10938 69.75521Q272.60938 69.16146 272.60938 67.91146Q272.60938 66.72396 272.125 66.145836Q271.64062 65.552086 270.95312 65.552086Q270.28125 65.552086 269.76562 66.177086Q269.25 66.802086 269.25 68.00521ZM275.26562 71.083336L275.26562 62.489586L276.32812 62.489586L276.32812 71.083336L275.26562 71.083336ZM282.35938 70.31771Q281.76562 70.81771 281.21875 71.020836Q280.6875 71.22396 280.0625 71.22396Q279.03125 71.22396 278.48438 70.72396Q277.9375 70.22396 277.9375 69.44271Q277.9375 68.989586 278.14062 68.614586Q278.34375 68.22396 278.6875 68.00521Q279.03125 67.770836 279.45312 67.66146Q279.75 67.56771 280.39062 67.489586Q281.65625 67.34896 282.26562 67.13021Q282.26562 66.91146 282.26562 66.864586Q282.26562 66.208336 281.96875 65.94271Q281.5625 65.59896 280.76562 65.59896Q280.03125 65.59896 279.67188 65.864586Q279.3125 66.114586 279.14062 66.770836L278.10938 66.63021Q278.25 65.97396 278.57812 65.56771Q278.90625 65.16146 279.51562 64.94271Q280.125 64.72396 280.92188 64.72396Q281.71875 64.72396 282.21875 64.91146Q282.71875 65.09896 282.95312 65.38021Q283.1875 65.66146 283.28125 66.09896Q283.32812 66.364586 283.32812 67.06771L283.32812 68.47396Q283.32812 69.94271 283.39062 70.333336Q283.46875 70.72396 283.67188 71.083336L282.5625 71.083336Q282.40625 70.75521 282.35938 70.31771ZM282.26562 67.958336Q281.6875 68.19271 280.54688 68.364586Q279.89062 68.458336 279.625 68.583336Q279.35938 68.69271 279.20312 68.91146Q279.0625 69.13021 279.0625 69.41146Q279.0625 69.833336 279.375 70.114586Q279.70312 70.395836 280.3125 70.395836Q280.92188 70.395836 281.39062 70.13021Q281.875 69.864586 282.09375 69.395836Q282.26562 69.03646 282.26562 68.34896L282.26562 67.958336ZM285.29688 71.083336L285.29688 64.864586L286.23438 64.864586L286.23438 65.739586Q286.92188 64.72396 288.21875 64.72396Q288.78125 64.72396 289.25 64.927086Q289.73438 65.13021 289.96875 65.458336Q290.20312 65.78646 290.29688 66.22396Q290.34375 66.520836 290.34375 67.25521L290.34375 71.083336L289.29688 71.083336L289.29688 67.302086Q289.29688 66.645836 289.17188 66.333336Q289.04688 66.020836 288.73438 65.833336Q288.42188 65.63021 288.0 65.63021Q287.32812 65.63021 286.82812 66.06771Q286.34375 66.489586 286.34375 67.677086L286.34375 71.083336L285.29688 71.083336ZM292.29688 71.083336L292.29688 64.864586L293.23438 64.864586L293.23438 65.739586Q293.92188 64.72396 295.21875 64.72396Q295.78125 64.72396 296.25 64.927086Q296.73438 65.13021 296.96875 65.458336Q297.20312 65.78646 297.29688 66.22396Q297.34375 66.520836 297.34375 67.25521L297.34375 71.083336L296.29688 71.083336L296.29688 67.302086Q296.29688 66.645836 296.17188 66.333336Q296.04688 66.020836 295.73438 65.833336Q295.42188 65.63021 295.0 65.63021Q294.32812 65.63021 293.82812 66.06771Q293.34375 66.489586 293.34375 67.677086L293.34375 71.083336L292.29688 71.083336ZM299.29688 63.708336L299.29688 62.489586L300.35938 62.489586L300.35938 63.708336L299.29688 63.708336ZM299.29688 71.083336L299.29688 64.864586L300.35938 64.864586L300.35938 71.083336L299.29688 71.083336ZM302.29688 71.083336L302.29688 64.864586L303.23438 64.864586L303.23438 65.739586Q303.92188 64.72396 305.21875 64.72396Q305.78125 64.72396 306.25 64.927086Q306.73438 65.13021 306.96875 65.458336Q307.20312 65.78646 307.29688 66.22396Q307.34375 66.520836 307.34375 67.25521L307.34375 71.083336L306.29688 71.083336L306.29688 67.302086Q306.29688 66.645836 306.17188 66.333336Q306.04688 66.020836 305.73438 65.833336Q305.42188 65.63021 305.0 65.63021Q304.32812 65.63021 303.82812 66.06771Q303.34375 66.489586 303.34375 67.677086L303.34375 71.083336L302.29688 71.083336ZM309.09375 71.59896L310.125 71.75521Q310.1875 72.22396 310.48438 72.44271Q310.875 72.739586 311.54688 72.739586Q312.28125 72.739586 312.67188 72.44271Q313.07812 72.145836 313.21875 71.63021Q313.3125 71.302086 313.29688 70.270836Q312.60938 71.083336 311.57812 71.083336Q310.29688 71.083336 309.59375 70.16146Q308.89062 69.22396 308.89062 67.94271Q308.89062 67.052086 309.20312 66.302086Q309.53125 65.53646 310.14062 65.13021Q310.75 64.72396 311.57812 64.72396Q312.6875 64.72396 313.40625 65.614586L313.40625 64.864586L314.375 64.864586L314.375 70.239586Q314.375 71.69271 314.07812 72.302086Q313.78125 72.91146 313.14062 73.25521Q312.5 73.614586 311.5625 73.614586Q310.45312 73.614586 309.76562 73.114586Q309.07812 72.614586 309.09375 71.59896ZM309.96875 67.864586Q309.96875 69.083336 310.45312 69.645836Q310.9375 70.208336 311.67188 70.208336Q312.40625 70.208336 312.89062 69.645836Q313.39062 69.083336 313.39062 67.895836Q313.39062 66.75521 312.875 66.177086Q312.375 65.59896 311.65625 65.59896Q310.95312 65.59896 310.45312 66.177086Q309.96875 66.739586 309.96875 67.864586ZM315.3125 73.47396L315.3125 72.708336L322.3125 72.708336L322.3125 73.47396L315.3125 73.47396ZM323.29688 71.083336L323.29688 64.864586L324.23438 64.864586L324.23438 65.739586Q324.53125 65.270836 325.01562 65.00521Q325.5 64.72396 326.125 64.72396Q326.8125 64.72396 327.25 65.00521Q327.70312 65.28646 327.875 65.802086Q328.625 64.72396 329.79688 64.72396Q330.73438 64.72396 331.21875 65.239586Q331.71875 65.739586 331.71875 66.81771L331.71875 71.083336L330.67188 71.083336L330.67188 67.16146Q330.67188 66.53646 330.5625 66.25521Q330.46875 65.97396 330.20312 65.802086Q329.9375 65.63021 329.5625 65.63021Q328.90625 65.63021 328.46875 66.06771Q328.04688 66.50521 328.04688 67.47396L328.04688 71.083336L326.98438 71.083336L326.98438 67.03646Q326.98438 66.333336 326.71875 65.989586Q326.46875 65.63021 325.89062 65.63021Q325.4375 65.63021 325.0625 65.864586Q324.6875 66.09896 324.51562 66.552086Q324.34375 67.00521 324.34375 67.84896L324.34375 71.083336L323.29688 71.083336ZM333.875 69.22396L334.90625 69.06771Q335.0 69.69271 335.39062 70.020836Q335.79688 70.34896 336.53125 70.34896Q337.25 70.34896 337.59375 70.06771Q337.95312 69.770836 337.95312 69.364586Q337.95312 69.00521 337.64062 68.802086Q337.42188 68.66146 336.5625 68.44271Q335.40625 68.145836 334.95312 67.94271Q334.51562 67.72396 334.28125 67.34896Q334.04688 66.97396 334.04688 66.50521Q334.04688 66.09896 334.23438 65.739586Q334.42188 65.38021 334.75 65.145836Q335.0 64.97396 335.42188 64.84896Q335.84375 64.72396 336.34375 64.72396Q337.0625 64.72396 337.60938 64.94271Q338.17188 65.145836 338.4375 65.50521Q338.70312 65.864586 338.79688 66.458336L337.76562 66.59896Q337.70312 66.13021 337.35938 65.864586Q337.03125 65.583336 336.40625 65.583336Q335.6875 65.583336 335.375 65.833336Q335.0625 66.06771 335.0625 66.395836Q335.0625 66.59896 335.1875 66.75521Q335.32812 66.927086 335.59375 67.03646Q335.75 67.09896 336.53125 67.302086Q337.65625 67.614586 338.09375 67.802086Q338.53125 67.989586 338.78125 68.34896Q339.03125 68.708336 339.03125 69.25521Q339.03125 69.78646 338.71875 70.25521Q338.42188 70.708336 337.84375 70.97396Q337.26562 71.22396 336.53125 71.22396Q335.3125 71.22396 334.67188 70.72396Q334.04688 70.208336 333.875 69.22396Z" fill-rule="nonzero"/><path stroke="#ea4335" stroke-width="4.0" stroke-linecap="butt" d="M356.5 67.083336L368.5 67.083336" fill-rule="nonzero"/><path fill="#1a1a1a" d="M381.54688 69.083336L382.64062 69.208336Q382.39062 70.16146 381.6875 70.69271Q380.98438 71.22396 379.90625 71.22396Q378.54688 71.22396 377.73438 70.38021Q376.9375 69.53646 376.9375 68.020836Q376.9375 66.458336 377.75 65.59896Q378.5625 64.72396 379.84375 64.72396Q381.09375 64.72396 381.875 65.56771Q382.67188 66.41146 382.67188 67.958336Q382.67188 68.052086 382.67188 68.239586L378.03125 68.239586Q378.09375 69.270836 378.60938 69.81771Q379.125 70.34896 379.90625 70.34896Q380.48438 70.34896 380.89062 70.052086Q381.3125 69.739586 381.54688 69.083336ZM378.09375 67.38021L381.5625 67.38021Q381.5 66.583336 381.17188 66.19271Q380.65625 65.583336 379.85938 65.583336Q379.125 65.583336 378.625 66.06771Q378.14062 66.552086 378.09375 67.38021ZM383.59375 71.083336L385.85938 67.84896L383.76562 64.864586L385.07812 64.864586L386.03125 66.31771Q386.29688 66.739586 386.46875 67.020836Q386.71875 66.63021 386.9375 66.333336L387.98438 64.864586L389.25 64.864586L387.09375 67.78646L389.40625 71.083336L388.125 71.083336L386.84375 69.145836L386.5 68.63021L384.85938 71.083336L383.59375 71.083336ZM393.54688 69.083336L394.64062 69.208336Q394.39062 70.16146 393.6875 70.69271Q392.98438 71.22396 391.90625 71.22396Q390.54688 71.22396 389.73438 70.38021Q388.9375 69.53646 388.9375 68.020836Q388.9375 66.458336 389.75 65.59896Q390.5625 64.72396 391.84375 64.72396Q393.09375 64.72396 393.875 65.56771Q394.67188 66.41146 394.67188 67.958336Q394.67188 68.052086 394.67188 68.239586L390.03125 68.239586Q390.09375 69.270836 390.60938 69.81771Q391.125 70.34896 391.90625 70.34896Q392.48438 70.34896 392.89062 70.052086Q393.3125 69.739586 393.54688 69.083336ZM390.09375 67.38021L393.5625 67.38021Q393.5 66.583336 393.17188 66.19271Q392.65625 65.583336 391.85938 65.583336Q391.125 65.583336 390.625 66.06771Q390.14062 66.552086 390.09375 67.38021ZM400.35938 68.802086L401.39062 68.94271Q401.21875 70.00521 400.51562 70.614586Q399.8125 71.22396 398.79688 71.22396Q397.51562 71.22396 396.73438 70.395836Q395.96875 69.552086 395.96875 67.989586Q395.96875 66.989586 396.29688 66.239586Q396.64062 65.47396 397.3125 65.09896Q398.0 64.72396 398.8125 64.72396Q399.8125 64.72396 400.45312 65.239586Q401.10938 65.739586 401.29688 66.69271L400.26562 66.84896Q400.125 66.22396 399.75 65.91146Q399.375 65.583336 398.84375 65.583336Q398.04688 65.583336 397.54688 66.16146Q397.04688 66.72396 397.04688 67.958336Q397.04688 69.22396 397.53125 69.78646Q398.01562 70.34896 398.78125 70.34896Q399.40625 70.34896 399.8125 69.97396Q400.23438 69.59896 400.35938 68.802086ZM406.375 71.083336L406.375 70.16146Q405.64062 71.22396 404.39062 71.22396Q403.84375 71.22396 403.35938 71.020836Q402.89062 70.802086 402.65625 70.489586Q402.42188 70.16146 402.32812 69.69271Q402.26562 69.395836 402.26562 68.708336L402.26562 64.864586L403.32812 64.864586L403.32812 68.31771Q403.32812 69.13021 403.39062 69.427086Q403.48438 69.833336 403.79688 70.083336Q404.125 70.31771 404.60938 70.31771Q405.07812 70.31771 405.48438 70.083336Q405.90625 69.833336 406.07812 69.41146Q406.26562 68.989586 406.26562 68.19271L406.26562 64.864586L407.3125 64.864586L407.3125 71.083336L406.375 71.083336ZM411.59375 70.145836L411.75 71.06771Q411.29688 71.16146 410.95312 71.16146Q410.375 71.16146 410.0625 70.989586Q409.75 70.802086 409.60938 70.50521Q409.48438 70.208336 409.48438 69.25521L409.48438 65.677086L408.71875 65.677086L408.71875 64.864586L409.48438 64.864586L409.48438 63.31771L410.53125 62.69271L410.53125 64.864586L411.59375 64.864586L411.59375 65.677086L410.53125 65.677086L410.53125 69.31771Q410.53125 69.770836 410.57812 69.895836Q410.64062 70.020836 410.76562 70.09896Q410.89062 70.177086 411.125 70.177086Q411.3125 70.177086 411.59375 70.145836ZM412.29688 63.708336L412.29688 62.489586L413.35938 62.489586L413.35938 63.708336L412.29688 63.708336ZM412.29688 71.083336L412.29688 64.864586L413.35938 64.864586L413.35938 71.083336L412.29688 71.083336ZM414.90625 67.97396Q414.90625 66.239586 415.85938 65.41146Q416.65625 64.72396 417.8125 64.72396Q419.09375 64.72396 419.90625 65.56771Q420.73438 66.395836 420.73438 67.88021Q420.73438 69.083336 420.375 69.770836Q420.01562 70.458336 419.3125 70.84896Q418.625 71.22396 417.8125 71.22396Q416.51562 71.22396 415.70312 70.395836Q414.90625 69.552086 414.90625 67.97396ZM415.98438 67.97396Q415.98438 69.16146 416.5 69.75521Q417.03125 70.34896 417.8125 70.34896Q418.60938 70.34896 419.125 69.75521Q419.64062 69.16146 419.64062 67.94271Q419.64062 66.78646 419.10938 66.19271Q418.59375 65.59896 417.8125 65.59896Q417.03125 65.59896 416.5 66.19271Q415.98438 66.770836 415.98438 67.97396ZM422.29688 71.083336L422.29688 64.864586L423.23438 64.864586L423.23438 65.739586Q423.92188 64.72396 425.21875 64.72396Q425.78125 64.72396 426.25 64.927086Q426.73438 65.13021 426.96875 65.458336Q427.20312 65.78646 427.29688 66.22396Q427.34375 66.520836 427.34375 67.25521L427.34375 71.083336L426.29688 71.083336L426.29688 67.302086Q426.29688 66.645836 426.17188 66.333336Q426.04688 66.020836 425.73438 65.833336Q425.42188 65.63021 425.0 65.63021Q424.32812 65.63021 423.82812 66.06771Q423.34375 66.489586 423.34375 67.677086L423.34375 71.083336L422.29688 71.083336ZM428.3125 73.47396L428.3125 72.708336L435.3125 72.708336L435.3125 73.47396L428.3125 73.47396ZM436.29688 71.083336L436.29688 64.864586L437.23438 64.864586L437.23438 65.739586Q437.53125 65.270836 438.01562 65.00521Q438.5 64.72396 439.125 64.72396Q439.8125 64.72396 440.25 65.00521Q440.70312 65.28646 440.875 65.802086Q441.625 64.72396 442.79688 64.72396Q443.73438 64.72396 444.21875 65.239586Q444.71875 65.739586 444.71875 66.81771L444.71875 71.083336L443.67188 71.083336L443.67188 67.16146Q443.67188 66.53646 443.5625 66.25521Q443.46875 65.97396 443.20312 65.802086Q442.9375 65.63021 442.5625 65.63021Q441.90625 65.63021 441.46875 66.06771Q441.04688 66.50521 441.04688 67.47396L441.04688 71.083336L439.98438 71.083336L439.98438 67.03646Q439.98438 66.333336 439.71875 65.989586Q439.46875 65.63021 438.89062 65.63021Q438.4375 65.63021 438.0625 65.864586Q437.6875 66.09896 437.51562 66.552086Q437.34375 67.00521 437.34375 67.84896L437.34375 71.083336L436.29688 71.083336ZM446.875 69.22396L447.90625 69.06771Q448.0 69.69271 448.39062 70.020836Q448.79688 70.34896 449.53125 70.34896Q450.25 70.34896 450.59375 70.06771Q450.95312 69.770836 450.95312 69.364586Q450.95312 69.00521 450.64062 68.802086Q450.42188 68.66146 449.5625 68.44271Q448.40625 68.145836 447.95312 67.94271Q447.51562 67.72396 447.28125 67.34896Q447.04688 66.97396 447.04688 66.50521Q447.04688 66.09896 447.23438 65.739586Q447.42188 65.38021 447.75 65.145836Q448.0 64.97396 448.42188 64.84896Q448.84375 64.72396 449.34375 64.72396Q450.0625 64.72396 450.60938 64.94271Q451.17188 65.145836 451.4375 65.50521Q451.70312 65.864586 451.79688 66.458336L450.76562 66.59896Q450.70312 66.13021 450.35938 65.864586Q450.03125 65.583336 449.40625 65.583336Q448.6875 65.583336 448.375 65.833336Q448.0625 66.06771 448.0625 66.395836Q448.0625 66.59896 448.1875 66.75521Q448.32812 66.927086 448.59375 67.03646Q448.75 67.09896 449.53125 67.302086Q450.65625 67.614586 451.09375 67.802086Q451.53125 67.989586 451.78125 68.34896Q452.03125 68.708336 452.03125 69.25521Q452.03125 69.78646 451.71875 70.25521Q451.42188 70.708336 450.84375 70.97396Q450.26562 71.22396 449.53125 71.22396Q448.3125 71.22396 447.67188 70.72396Q447.04688 70.208336 446.875 69.22396Z" fill-rule="nonzero"/><path fill="#757575" d="M23.11875 40.65L23.11875 26.337502L25.009375 26.337502L25.009375 38.9625L32.05625 38.9625L32.05625 40.65L23.11875 40.65ZM34.509377 40.65L34.509377 26.337502L36.415627 26.337502L36.415627 40.65L34.509377 40.65ZM40.134377 40.65L40.134377 26.337502L42.99375 26.337502L46.36875 36.4625Q46.8375 37.884377 47.05625 38.5875Q47.30625 37.80625 47.821877 36.290627L51.24375 26.337502L53.790627 26.337502L53.790627 40.65L51.978127 40.65L51.978127 28.665627L47.80625 40.65L46.103127 40.65L41.9625 28.462502L41.9625 40.65L40.134377 40.65ZM57.509377 40.65L57.509377 26.337502L59.415627 26.337502L59.415627 40.65L57.509377 40.65ZM66.8375 40.65L66.8375 28.025002L62.11875 28.025002L62.11875 26.337502L73.4625 26.337502L73.4625 28.025002L68.72813 28.025002L68.72813 40.65L66.8375 40.65ZM73.65 40.9L77.80625 26.087502L79.2125 26.087502L75.07188 40.9L73.65 40.9ZM80.61875 33.68125Q80.61875 30.118752 82.525 28.103127Q84.44688 26.071877 87.47813 26.071877Q89.4625 26.071877 91.04063 27.025002Q92.63438 27.978127 93.4625 29.681252Q94.30625 31.368752 94.30625 33.509377Q94.30625 35.68125 93.43125 37.4Q92.55625 39.11875 90.93125 40.009377Q89.32188 40.9 87.4625 40.9Q85.44688 40.9 83.85313 39.93125Q82.25938 38.946877 81.43125 37.259377Q80.61875 35.55625 80.61875 33.68125ZM82.57188 33.7125Q82.57188 36.290627 83.9625 37.790627Q85.35313 39.275 87.44688 39.275Q89.5875 39.275 90.9625 37.775Q92.35313 36.259377 92.35313 33.49375Q92.35313 31.759377 91.75938 30.462502Q91.18125 29.150002 90.04063 28.431252Q88.9 27.712502 87.47813 27.712502Q85.47813 27.712502 84.025 29.103127Q82.57188 30.478127 82.57188 33.7125ZM97.29063 40.65L97.29063 26.337502L106.94688 26.337502L106.94688 28.025002L99.18125 28.025002L99.18125 32.4625L105.9 32.4625L105.9 34.15L99.18125 34.15L99.18125 40.65L97.29063 40.65ZM109.29063 40.65L109.29063 26.337502L118.94688 26.337502L118.94688 28.025002L111.18125 28.025002L111.18125 32.4625L117.9 32.4625L117.9 34.15L111.18125 34.15L111.18125 40.65L109.29063 40.65ZM120.55625 36.05625L122.3375 35.9Q122.4625 36.9625 122.91563 37.65Q123.38438 38.3375 124.35313 38.775Q125.3375 39.196877 126.57188 39.196877Q127.65 39.196877 128.47812 38.884377Q129.30624 38.55625 129.7125 37.99375Q130.11874 37.43125 130.11874 36.759377Q130.11874 36.0875 129.72812 35.5875Q129.3375 35.0875 128.44687 34.74375Q127.86875 34.509377 125.88438 34.040627Q123.91563 33.571877 123.13438 33.15Q122.10313 32.61875 121.60313 31.821877Q121.10313 31.025002 121.10313 30.040627Q121.10313 28.946877 121.7125 28.009377Q122.32188 27.071877 123.50938 26.587502Q124.69688 26.087502 126.13438 26.087502Q127.72813 26.087502 128.94687 26.603127Q130.16562 27.118752 130.80624 28.118752Q131.4625 29.103127 131.50937 30.368752L129.69687 30.509377Q129.55624 29.150002 128.7125 28.462502Q127.86875 27.759377 126.2125 27.759377Q124.49375 27.759377 123.69688 28.400002Q122.91563 29.025002 122.91563 29.900002Q122.91563 30.681252 123.47813 31.181252Q124.025 31.681252 126.3375 32.196877Q128.65 32.7125 129.50937 33.103127Q130.75937 33.68125 131.35312 34.571877Q131.94687 35.446877 131.94687 36.603127Q131.94687 37.74375 131.29062 38.759377Q130.63437 39.775 129.4 40.3375Q128.18124 40.9 126.65 40.9Q124.7125 40.9 123.4 40.3375Q122.0875 39.759377 121.3375 38.61875Q120.5875 37.478127 120.55625 36.05625ZM134.22812 40.65L134.22812 26.337502L144.5875 26.337502L144.5875 28.025002L136.13437 28.025002L136.13437 32.4L144.04062 32.4L144.04062 34.0875L136.13437 34.0875L136.13437 38.9625L144.91562 38.9625L144.91562 40.65L134.22812 40.65ZM150.8375 40.65L150.8375 28.025002L146.11874 28.025002L146.11874 26.337502L157.4625 26.337502L157.4625 28.025002L152.72812 28.025002L152.72812 40.65L150.8375 40.65ZM165.19687 40.65L165.19687 26.337502L170.5875 26.337502Q172.025 26.337502 172.775 26.462502Q173.82187 26.650002 174.54062 27.150002Q175.25937 27.634377 175.68124 28.525002Q176.11874 29.415627 176.11874 30.478127Q176.11874 32.30625 174.94687 33.571877Q173.79062 34.821877 170.75937 34.821877L167.0875 34.821877L167.0875 40.65L165.19687 40.65ZM167.0875 33.134377L170.79062 33.134377Q172.61874 33.134377 173.38437 32.4625Q174.16562 31.775002 174.16562 30.525002Q174.16562 29.634377 173.7125 28.993752Q173.25937 28.353127 172.525 28.150002Q172.04062 28.025002 170.74374 28.025002L167.0875 28.025002L167.0875 33.134377ZM177.93124 40.65L177.93124 26.337502L179.68124 26.337502L179.68124 40.65L177.93124 40.65ZM188.74374 39.36875Q187.75937 40.196877 186.85312 40.540627Q185.94687 40.884377 184.91562 40.884377Q183.2125 40.884377 182.29062 40.05625Q181.36874 39.2125 181.36874 37.915627Q181.36874 37.15 181.7125 36.525Q182.07187 35.9 182.63437 35.525Q183.19687 35.134377 183.9 34.93125Q184.41562 34.80625 185.4625 34.665627Q187.5875 34.415627 188.5875 34.071877Q188.60312 33.7125 188.60312 33.603127Q188.60312 32.540627 188.10312 32.0875Q187.43124 31.493752 186.10312 31.493752Q184.85312 31.493752 184.25937 31.931252Q183.68124 32.36875 183.4 33.478127L181.68124 33.24375Q181.91562 32.134377 182.44687 31.462502Q182.97812 30.775002 183.99374 30.415627Q185.00937 30.040627 186.35312 30.040627Q187.68124 30.040627 188.50937 30.353127Q189.3375 30.665627 189.72812 31.150002Q190.11874 31.618752 190.275 32.3375Q190.36874 32.790627 190.36874 33.9625L190.36874 36.30625Q190.36874 38.759377 190.47812 39.415627Q190.5875 40.05625 190.93124 40.65L189.0875 40.65Q188.82187 40.103127 188.74374 39.36875ZM188.5875 35.446877Q187.63437 35.8375 185.7125 36.103127Q184.63437 36.259377 184.18124 36.4625Q183.74374 36.65 183.49374 37.025Q183.24374 37.4 183.24374 37.86875Q183.24374 38.571877 183.775 39.040627Q184.30624 39.509377 185.3375 39.509377Q186.35312 39.509377 187.13437 39.071877Q187.93124 38.61875 188.30624 37.853127Q188.5875 37.24375 188.5875 36.0875L188.5875 35.446877ZM192.9625 40.65L192.9625 30.275002L194.55624 30.275002L194.55624 31.759377Q195.69687 30.040627 197.85312 30.040627Q198.79062 30.040627 199.57187 30.384377Q200.36874 30.712502 200.75937 31.259377Q201.15 31.806252 201.30624 32.55625Q201.4 33.05625 201.4 34.275L201.4 40.65L199.63437 40.65L199.63437 34.3375Q199.63437 33.259377 199.43124 32.728127Q199.22812 32.196877 198.69687 31.884377Q198.18124 31.571877 197.47812 31.571877Q196.35312 31.571877 195.54062 32.290627Q194.72812 32.99375 194.72812 34.978127L194.72812 40.65L192.9625 40.65ZM202.9625 40.65L202.9625 30.275002L204.55624 30.275002L204.55624 31.759377Q205.69687 30.040627 207.85312 30.040627Q208.79062 30.040627 209.57187 30.384377Q210.36874 30.712502 210.75937 31.259377Q211.15 31.806252 211.30624 32.55625Q211.4 33.05625 211.4 34.275L211.4 40.65L209.63437 40.65L209.63437 34.3375Q209.63437 33.259377 209.43124 32.728127Q209.22812 32.196877 208.69687 31.884377Q208.18124 31.571877 207.47812 31.571877Q206.35312 31.571877 205.54062 32.290627Q204.72812 32.99375 204.72812 34.978127L204.72812 40.65L202.9625 40.65ZM212.97812 28.353127L212.97812 26.337502L214.74374 26.337502L214.74374 28.353127L212.97812 28.353127ZM212.97812 40.65L212.97812 30.275002L214.74374 30.275002L214.74374 40.65L212.97812 40.65ZM216.9625 40.65L216.9625 30.275002L218.55624 30.275002L218.55624 31.759377Q219.69687 30.040627 221.85312 30.040627Q222.79062 30.040627 223.57187 30.384377Q224.36874 30.712502 224.75937 31.259377Q225.15 31.806252 225.30624 32.55625Q225.4 33.05625 225.4 34.275L225.4 40.65L223.63437 40.65L223.63437 34.3375Q223.63437 33.259377 223.43124 32.728127Q223.22812 32.196877 222.69687 31.884377Q222.18124 31.571877 221.47812 31.571877Q220.35312 31.571877 219.54062 32.290627Q218.72812 32.99375 218.72812 34.978127L218.72812 40.65L216.9625 40.65ZM226.65 41.509377L228.35312 41.759377Q228.4625 42.55625 228.94687 42.915627Q229.60312 43.4 230.74374 43.4Q231.9625 43.4 232.61874 42.915627Q233.29062 42.43125 233.525 41.55625Q233.66562 41.009377 233.65 39.290627Q232.49374 40.65 230.775 40.65Q228.63437 40.65 227.4625 39.103127Q226.29062 37.55625 226.29062 35.4Q226.29062 33.915627 226.82187 32.665627Q227.36874 31.415627 228.38437 30.728127Q229.41562 30.040627 230.79062 30.040627Q232.61874 30.040627 233.82187 31.525002L233.82187 30.275002L235.43124 30.275002L235.43124 39.24375Q235.43124 41.665627 234.93124 42.665627Q234.44687 43.68125 233.36874 44.259377Q232.30624 44.853127 230.74374 44.853127Q228.9 44.853127 227.74374 44.025Q226.60312 43.196877 226.65 41.509377ZM228.10312 35.275Q228.10312 37.321877 228.91562 38.259377Q229.72812 39.196877 230.94687 39.196877Q232.15 39.196877 232.9625 38.259377Q233.79062 37.321877 233.79062 35.3375Q233.79062 33.43125 232.94687 32.4625Q232.10312 31.493752 230.91562 31.493752Q229.74374 31.493752 228.91562 32.446877Q228.10312 33.4 228.10312 35.275ZM250.74374 39.36875Q249.75937 40.196877 248.85312 40.540627Q247.94687 40.884377 246.91562 40.884377Q245.2125 40.884377 244.29062 40.05625Q243.36874 39.2125 243.36874 37.915627Q243.36874 37.15 243.7125 36.525Q244.07187 35.9 244.63437 35.525Q245.19687 35.134377 245.9 34.93125Q246.41562 34.80625 247.4625 34.665627Q249.5875 34.415627 250.5875 34.071877Q250.60312 33.7125 250.60312 33.603127Q250.60312 32.540627 250.10312 32.0875Q249.43124 31.493752 248.10312 31.493752Q246.85312 31.493752 246.25937 31.931252Q245.68124 32.36875 245.4 33.478127L243.68124 33.24375Q243.91562 32.134377 244.44687 31.462502Q244.97812 30.775002 245.99374 30.415627Q247.00937 30.040627 248.35312 30.040627Q249.68124 30.040627 250.50937 30.353127Q251.3375 30.665627 251.72812 31.150002Q252.11874 31.618752 252.275 32.3375Q252.36874 32.790627 252.36874 33.9625L252.36874 36.30625Q252.36874 38.759377 252.47812 39.415627Q252.5875 40.05625 252.93124 40.65L251.0875 40.65Q250.82187 40.103127 250.74374 39.36875ZM250.5875 35.446877Q249.63437 35.8375 247.7125 36.103127Q246.63437 36.259377 246.18124 36.4625Q245.74374 36.65 245.49374 37.025Q245.24374 37.4 245.24374 37.86875Q245.24374 38.571877 245.775 39.040627Q246.30624 39.509377 247.3375 39.509377Q248.35312 39.509377 249.13437 39.071877Q249.93124 38.61875 250.30624 37.853127Q250.5875 37.24375 250.5875 36.0875L250.5875 35.446877ZM254.9625 40.65L254.9625 30.275002L256.55624 30.275002L256.55624 31.759377Q257.69687 30.040627 259.85312 30.040627Q260.79062 30.040627 261.57187 30.384377Q262.36874 30.712502 262.75937 31.259377Q263.15 31.806252 263.30624 32.55625Q263.4 33.05625 263.4 34.275L263.4 40.65L261.63437 40.65L261.63437 34.3375Q261.63437 33.259377 261.43124 32.728127Q261.22812 32.196877 260.69687 31.884377Q260.18124 31.571877 259.47812 31.571877Q258.35312 31.571877 257.54062 32.290627Q256.72812 32.99375 256.72812 34.978127L256.72812 40.65L254.9625 40.65ZM271.69687 40.65L271.69687 39.3375Q270.7125 40.884377 268.79062 40.884377Q267.55624 40.884377 266.50937 40.196877Q265.47812 39.509377 264.9 38.290627Q264.3375 37.071877 264.3375 35.478127Q264.3375 33.915627 264.85312 32.65Q265.36874 31.384377 266.4 30.712502Q267.44687 30.040627 268.7125 30.040627Q269.65 30.040627 270.38437 30.446877Q271.11874 30.837502 271.5875 31.462502L271.5875 26.337502L273.32187 26.337502L273.32187 40.65L271.69687 40.65ZM266.13437 35.478127Q266.13437 37.4625 266.97812 38.446877Q267.82187 39.43125 268.9625 39.43125Q270.11874 39.43125 270.91562 38.49375Q271.72812 37.55625 271.72812 35.61875Q271.72812 33.49375 270.9 32.49375Q270.0875 31.493752 268.88437 31.493752Q267.7125 31.493752 266.91562 32.4625Q266.13437 33.415627 266.13437 35.478127ZM282.22812 40.65L282.22812 26.337502L292.5875 26.337502L292.5875 28.025002L284.13437 28.025002L284.13437 32.4L292.04062 32.4L292.04062 34.0875L284.13437 34.0875L284.13437 38.9625L292.91562 38.9625L292.91562 40.65L282.22812 40.65ZM293.79062 40.65L297.5875 35.259377L294.0875 30.275002L296.275 30.275002L297.86874 32.7125Q298.32187 33.4 298.5875 33.86875Q299.025 33.228127 299.38437 32.728127L301.13437 30.275002L303.22812 30.275002L299.65 35.165627L303.50937 40.65L301.35312 40.65L299.2125 37.43125L298.65 36.55625L295.93124 40.65L293.79062 40.65ZM311.07187 37.30625L312.88437 37.540627Q312.4625 39.11875 311.29062 40.009377Q310.13437 40.884377 308.32187 40.884377Q306.05624 40.884377 304.7125 39.49375Q303.38437 38.0875 303.38437 35.55625Q303.38437 32.93125 304.72812 31.493752Q306.07187 30.040627 308.22812 30.040627Q310.30624 30.040627 311.61874 31.462502Q312.94687 32.86875 312.94687 35.446877Q312.94687 35.603127 312.93124 35.915627L305.19687 35.915627Q305.29062 37.61875 306.16562 38.525Q307.04062 39.43125 308.3375 39.43125Q309.30624 39.43125 309.97812 38.93125Q310.66562 38.415627 311.07187 37.30625ZM305.29062 34.4625L311.0875 34.4625Q310.97812 33.165627 310.43124 32.509377Q309.5875 31.493752 308.24374 31.493752Q307.04062 31.493752 306.2125 32.30625Q305.38437 33.103127 305.29062 34.4625ZM321.74374 36.853127L323.4625 37.071877Q323.18124 38.86875 322.00937 39.884377Q320.85312 40.884377 319.15 40.884377Q317.025 40.884377 315.72812 39.49375Q314.43124 38.103127 314.43124 35.509377Q314.43124 33.821877 314.97812 32.571877Q315.54062 31.306252 316.68124 30.681252Q317.82187 30.040627 319.16562 30.040627Q320.85312 30.040627 321.91562 30.900002Q322.99374 31.759377 323.30624 33.321877L321.5875 33.5875Q321.35312 32.540627 320.72812 32.025Q320.10312 31.493752 319.22812 31.493752Q317.9 31.493752 317.07187 32.446877Q316.24374 33.4 316.24374 35.446877Q316.24374 37.540627 317.04062 38.49375Q317.8375 39.43125 319.13437 39.43125Q320.16562 39.43125 320.85312 38.80625Q321.55624 38.165627 321.74374 36.853127ZM331.75937 40.65L331.75937 39.11875Q330.55624 40.884377 328.47812 40.884377Q327.55624 40.884377 326.75937 40.540627Q325.9625 40.18125 325.57187 39.65Q325.19687 39.11875 325.04062 38.3375Q324.93124 37.821877 324.93124 36.696877L324.93124 30.275002L326.68124 30.275002L326.68124 36.025Q326.68124 37.4 326.79062 37.884377Q326.9625 38.571877 327.49374 38.978127Q328.04062 39.36875 328.82187 39.36875Q329.61874 39.36875 330.30624 38.9625Q331.00937 38.55625 331.29062 37.86875Q331.5875 37.165627 331.5875 35.8375L331.5875 30.275002L333.3375 30.275002L333.3375 40.65L331.75937 40.65ZM338.80624 39.071877L339.05624 40.634377Q338.32187 40.790627 337.72812 40.790627Q336.775 40.790627 336.24374 40.49375Q335.72812 40.18125 335.50937 39.696877Q335.29062 39.196877 335.29062 37.61875L335.29062 31.650002L334.00937 31.650002L334.00937 30.275002L335.29062 30.275002L335.29062 27.712502L337.04062 26.650002L337.04062 30.275002L338.80624 30.275002L338.80624 31.650002L337.04062 31.650002L337.04062 37.7125Q337.04062 38.4625 337.13437 38.68125Q337.22812 38.884377 337.43124 39.025Q337.65 39.15 338.04062 39.15Q338.32187 39.15 338.80624 39.071877ZM340.97812 28.353127L340.97812 26.337502L342.74374 26.337502L342.74374 28.353127L340.97812 28.353127ZM340.97812 40.65L340.97812 30.275002L342.74374 30.275002L342.74374 40.65L340.97812 40.65ZM344.32187 35.4625Q344.32187 32.5875 345.91562 31.196877Q347.25937 30.040627 349.18124 30.040627Q351.32187 30.040627 352.66562 31.446877Q354.025 32.853127 354.025 35.321877Q354.025 37.321877 353.43124 38.478127Q352.8375 39.61875 351.68124 40.259377Q350.54062 40.884377 349.18124 40.884377Q346.99374 40.884377 345.65 39.49375Q344.32187 38.0875 344.32187 35.4625ZM346.11874 35.4625Q346.11874 37.4625 346.97812 38.446877Q347.85312 39.43125 349.18124 39.43125Q350.49374 39.43125 351.35312 38.446877Q352.22812 37.446877 352.22812 35.4Q352.22812 33.478127 351.35312 32.49375Q350.47812 31.493752 349.18124 31.493752Q347.85312 31.493752 346.97812 32.49375Q346.11874 33.478127 346.11874 35.4625ZM355.9625 40.65L355.9625 30.275002L357.55624 30.275002L357.55624 31.759377Q358.69687 30.040627 360.85312 30.040627Q361.79062 30.040627 362.57187 30.384377Q363.36874 30.712502 363.75937 31.259377Q364.15 31.806252 364.30624 32.55625Q364.4 33.05625 364.4 34.275L364.4 40.65L362.63437 40.65L362.63437 34.3375Q362.63437 33.259377 362.43124 32.728127Q362.22812 32.196877 361.69687 31.884377Q361.18124 31.571877 360.47812 31.571877Q359.35312 31.571877 358.54062 32.290627Q357.72812 32.99375 357.72812 34.978127L357.72812 40.65L355.9625 40.65ZM375.8375 40.65L375.8375 28.025002L371.11874 28.025002L371.11874 26.337502L382.4625 26.337502L382.4625 28.025002L377.72812 28.025002L377.72812 40.65L375.8375 40.65ZM383.97812 28.353127L383.97812 26.337502L385.74374 26.337502L385.74374 28.353127L383.97812 28.353127ZM383.97812 40.65L383.97812 30.275002L385.74374 30.275002L385.74374 40.65L383.97812 40.65ZM387.9625 40.65L387.9625 30.275002L389.54062 30.275002L389.54062 31.728127Q390.025 30.978127 390.8375 30.509377Q391.65 30.040627 392.68124 30.040627Q393.8375 30.040627 394.57187 30.525002Q395.30624 30.993752 395.61874 31.853127Q396.85312 30.040627 398.82187 30.040627Q400.36874 30.040627 401.19687 30.900002Q402.025 31.759377 402.025 33.525L402.025 40.65L400.275 40.65L400.275 34.11875Q400.275 33.05625 400.10312 32.603127Q399.93124 32.134377 399.47812 31.853127Q399.04062 31.571877 398.43124 31.571877Q397.3375 31.571877 396.60312 32.30625Q395.88437 33.025 395.88437 34.61875L395.88437 40.65L394.13437 40.65L394.13437 33.915627Q394.13437 32.74375 393.69687 32.165627Q393.275 31.571877 392.29062 31.571877Q391.55624 31.571877 390.91562 31.962502Q390.29062 32.353127 390.00937 33.103127Q389.72812 33.853127 389.72812 35.275L389.72812 40.65L387.9625 40.65ZM411.07187 37.30625L412.88437 37.540627Q412.4625 39.11875 411.29062 40.009377Q410.13437 40.884377 408.32187 40.884377Q406.05624 40.884377 404.7125 39.49375Q403.38437 38.0875 403.38437 35.55625Q403.38437 32.93125 404.72812 31.493752Q406.07187 30.040627 408.22812 30.040627Q410.30624 30.040627 411.61874 31.462502Q412.94687 32.86875 412.94687 35.446877Q412.94687 35.603127 412.93124 35.915627L405.19687 35.915627Q405.29062 37.61875 406.16562 38.525Q407.04062 39.43125 408.3375 39.43125Q409.30624 39.43125 409.97812 38.93125Q410.66562 38.415627 411.07187 37.30625ZM405.29062 34.4625L411.0875 34.4625Q410.97812 33.165627 410.43124 32.509377Q409.5875 31.493752 408.24374 31.493752Q407.04062 31.493752 406.2125 32.30625Q405.38437 33.103127 405.29062 34.4625ZM424.32187 44.853127Q422.86874 43.025 421.86874 40.571877Q420.86874 38.103127 420.86874 35.4625Q420.86874 33.134377 421.61874 31.009377Q422.49374 28.540627 424.32187 26.087502L425.5875 26.087502Q424.4 28.118752 424.025 28.993752Q423.43124 30.337502 423.0875 31.806252Q422.66562 33.634377 422.66562 35.478127Q422.66562 40.165627 425.5875 44.853127L424.32187 44.853127ZM427.9625 40.65L427.9625 30.275002L429.54062 30.275002L429.54062 31.728127Q430.025 30.978127 430.8375 30.509377Q431.65 30.040627 432.68124 30.040627Q433.8375 30.040627 434.57187 30.525002Q435.30624 30.993752 435.61874 31.853127Q436.85312 30.040627 438.82187 30.040627Q440.36874 30.040627 441.19687 30.900002Q442.025 31.759377 442.025 33.525L442.025 40.65L440.275 40.65L440.275 34.11875Q440.275 33.05625 440.10312 32.603127Q439.93124 32.134377 439.47812 31.853127Q439.04062 31.571877 438.43124 31.571877Q437.3375 31.571877 436.60312 32.30625Q435.88437 33.025 435.88437 34.61875L435.88437 40.65L434.13437 40.65L434.13437 33.915627Q434.13437 32.74375 433.69687 32.165627Q433.275 31.571877 432.29062 31.571877Q431.55624 31.571877 430.91562 31.962502Q430.29062 32.353127 430.00937 33.103127Q429.72812 33.853127 429.72812 35.275L429.72812 40.65L427.9625 40.65ZM443.25937 37.55625L445.00937 37.275Q445.15 38.321877 445.82187 38.884377Q446.49374 39.43125 447.69687 39.43125Q448.9 39.43125 449.47812 38.946877Q450.07187 38.446877 450.07187 37.790627Q450.07187 37.196877 449.55624 36.853127Q449.19687 36.61875 447.75937 36.259377Q445.82187 35.759377 445.07187 35.415627Q444.3375 35.05625 443.94687 34.43125Q443.55624 33.790627 443.55624 33.025Q443.55624 32.3375 443.86874 31.743752Q444.19687 31.150002 444.74374 30.759377Q445.15 30.462502 445.85312 30.259377Q446.57187 30.040627 447.38437 30.040627Q448.60312 30.040627 449.525 30.400002Q450.44687 30.743752 450.88437 31.353127Q451.32187 31.946877 451.49374 32.946877L449.775 33.18125Q449.65 32.384377 449.0875 31.946877Q448.525 31.493752 447.50937 31.493752Q446.29062 31.493752 445.775 31.900002Q445.25937 32.290627 445.25937 32.821877Q445.25937 33.165627 445.47812 33.446877Q445.68124 33.728127 446.15 33.915627Q446.41562 34.009377 447.69687 34.353127Q449.57187 34.853127 450.30624 35.18125Q451.04062 35.49375 451.4625 36.103127Q451.88437 36.696877 451.88437 37.603127Q451.88437 38.478127 451.36874 39.259377Q450.85312 40.040627 449.88437 40.4625Q448.91562 40.884377 447.69687 40.884377Q445.68124 40.884377 444.61874 40.040627Q443.55624 39.196877 443.25937 37.55625ZM455.11874 44.853127L453.86874 44.853127Q456.775 40.165627 456.775 35.478127Q456.775 33.634377 456.36874 31.837502Q456.025 30.368752 455.43124 29.025002Q455.05624 28.134377 453.86874 26.087502L455.11874 26.087502Q456.9625 28.540627 457.8375 31.009377Q458.5875 33.134377 458.5875 35.4625Q458.5875 38.103127 457.57187 40.571877Q456.57187 43.025 455.11874 44.853127Z" fill-rule="nonzero"/></svg>