<svg version="1.1" viewBox="0.0 0.0 701.0 433.0" fill="none" stroke="none" stroke-linecap="square" stroke-miterlimit="10" width="701" height="433" xmlns:xlink="http://www.w3.org/1999/xlink" xmlns="http://www.w3.org/2000/svg"><path fill="#ffffff" d="M0 0L701.0 0L701.0 433.0L0 433.0L0 0Z" fill-rule="nonzero"/><path stroke="#cccccc" stroke-width="1.0" stroke-linecap="butt" d="M104.5 95.5L104.5 359.5" fill-rule="nonzero"/><path stroke="#cccccc" stroke-width="1.0" stroke-linecap="butt" d="M248.5 95.5L248.5 359.5" fill-rule="nonzero"/><path stroke="#cccccc" stroke-width="1.0" stroke-linecap="butt" d="M392.5 95.5L392.5 359.5" fill-rule="nonzero"/><path stroke="#cccccc" stroke-width="1.0" stroke-linecap="butt" d="M535.5 95.5L535.5 359.5" fill-rule="nonzero"/><path stroke="#cccccc" stroke-width="1.0" stroke-linecap="butt" d="M679.5 95.5L679.5 359.5" fill-rule="nonzero"/><path stroke="#cccccc" stroke-width="1.0" stroke-linecap="butt" d="M104.5 356.5L679.5 356.5" fill-rule="nonzero"/><path stroke="#cccccc" stroke-width="1.0" stroke-linecap="butt" d="M104.5 285.5L679.5 285.5" fill-rule="nonzero"/><path stroke="#cccccc" stroke-width="1.0" stroke-linecap="butt" d="M104.5 215.5L679.5 215.5" fill-rule="nonzero"/><path stroke="#cccccc" stroke-width="1.0" stroke-linecap="butt" d="M104.5 144.5L679.5 144.5" fill-rule="nonzero"/><clipPath id="id_0"><path d="M104.65 95.51667L679.35 95.51667L679.35 359.35L104.65 359.35L104.65 95.51667Z" clip-rule="nonzero"/></clipPath><path stroke="#4285f4" stroke-width="2.0" stroke-linecap="butt" clip-path="url(#id_0)" d="M104.65 341.83804L248.325 336.7546L392.0 342.02927L535.675 359.35L679.35 355.84747" fill-rule="nonzero"/><path stroke="#ea4335" stroke-width="2.0" stroke-linecap="butt" clip-path="url(#id_0)" d="M104.65 313.98203L248.325 270.35486L392.0 204.83212L535.675 158.2977L679.35 95.51667" fill-rule="nonzero"/><path fill="#000000" fill-opacity="0.0" clip-path="url(#id_0)" d="M107.65 341.83804C107.65 343.4949 106.306854 344.83804 104.65 344.83804C102.99315 344.83804 101.65 343.4949 101.65 341.83804C101.65 340.18118 102.99315 338.83804 104.65 338.83804C106.306854 338.83804 107.65 340.18118 107.65 341.83804Z" fill-rule="nonzero"/><path fill="#000000" fill-opacity="0.0" clip-path="url(#id_0)" d="M251.325 336.7546C251.325 338.41147 249.98186 339.7546 248.325 339.7546C246.66815 339.7546 245.325 338.41147 245.325 336.7546C245.325 335.09775 246.66815 333.7546 248.325 333.7546C249.98186 333.7546 251.325 335.09775 251.325 336.7546Z" fill-rule="nonzero"/><path fill="#000000" fill-opacity="0.0" clip-path="url(#id_0)" d="M395.0 342.02927C395.0 343.68613 393.65686 345.02927 392.0 345.02927C390.34314 345.02927 389.0 343.68613 389.0 342.02927C389.0 340.3724 390.34314 339.02927 392.0 339.02927C393.65686 339.02927 395.0 340.3724 395.0 342.02927Z" fill-rule="nonzero"/><path fill="#000000" fill-opacity="0.0" clip-path="url(#id_0)" d="M538.675 359.35C538.675 361.00687 537.33185 362.35 535.675 362.35C534.0181 362.35 532.675 361.00687 532.675 359.35C532.675 357.69315 534.0181 356.35 535.675 356.35C537.33185 356.35 538.675 357.69315 538.675 359.35Z" fill-rule="nonzero"/><path fill="#000000" fill-opacity="0.0" clip-path="url(#id_0)" d="M682.35 355.84747C682.35 357.50433 681.00684 358.84747 679.35 358.84747C677.6931 358.84747 676.35 357.50433 676.35 355.84747C676.35 354.1906 677.6931 352.84747 679.35 352.84747C681.00684 352.84747 682.35 354.1906 682.35 355.84747Z" fill-rule="nonzero"/><path fill="#000000" fill-opacity="0.0" clip-path="url(#id_0)" d="M107.65 313.98203C107.65 315.6389 106.306854 316.98203 104.65 316.98203C102.99315 316.98203 101.65 315.6389 101.65 313.98203C101.65 312.32516 102.99315 310.98203 104.65 310.98203C106.306854 310.98203 107.65 312.32516 107.65 313.98203Z" fill-rule="nonzero"/><path fill="#000000" fill-opacity="0.0" clip-path="url(#id_0)" d="M251.325 270.35486C251.325 272.01172 249.98186 273.35486 248.325 273.35486C246.66815 273.35486 245.325 272.01172 245.325 270.35486C245.325 268.698 246.66815 267.35486 248.325 267.35486C249.98186 267.35486 251.325 268.698 251.325 270.35486Z" fill-rule="nonzero"/><path fill="#000000" fill-opacity="0.0" clip-path="url(#id_0)" d="M395.0 204.83212C395.0 206.48898 393.65686 207.83212 392.0 207.83212C390.34314 207.83212 389.0 206.48898 389.0 204.83212C389.0 203.17526 390.34314 201.83212 392.0 201.83212C393.65686 201.83212 395.0 203.17526 395.0 204.83212Z" fill-rule="nonzero"/><path fill="#000000" fill-opacity="0.0" clip-path="url(#id_0)" d="M538.675 158.2977C538.675 159.95456 537.33185 161.2977 535.675 161.2977C534.0181 161.2977 532.675 159.95456 532.675 158.2977C532.675 156.64085 534.0181 155.2977 535.675 155.2977C537.33185 155.2977 538.675 156.64085 538.675 158.2977Z" fill-rule="nonzero"/><path fill="#000000" fill-opacity="0.0" clip-path="url(#id_0)" d="M682.35 95.51667C682.35 97.17352 681.00684 98.51667 679.35 98.51667C677.6931 98.51667 676.35 97.17352 676.35 95.51667C676.35 93.85981 677.6931 92.51667 679.35 92.51667C681.00684 92.51667 682.35 93.85981 682.35 95.51667Z" fill-rule="nonzero"/><path fill="#000000" d="M377.40625 405.24063Q377.40625 403.50626 378.35938 402.67813Q379.15625 401.99063 380.3125 401.99063Q381.59375 401.99063 382.40625 402.83438Q383.23438 403.6625 383.23438 405.14688Q383.23438 406.35 382.875 407.0375Q382.51562 407.725 381.8125 408.11563Q381.125 408.49063 380.3125 408.49063Q379.01562 408.49063 378.20312 407.6625Q377.40625 406.81876 377.40625 405.24063ZM378.48438 405.24063Q378.48438 406.42813 379.0 407.02188Q379.53125 407.61563 380.3125 407.61563Q381.10938 407.61563 381.625 407.02188Q382.14062 406.42813 382.14062 405.20938Q382.14062 404.05313 381.60938 403.45938Q381.09375 402.86563 380.3125 402.86563Q379.53125 402.86563 379.0 403.45938Q378.48438 404.0375 378.48438 405.24063ZM385.04688 408.35L385.04688 402.94376L384.10938 402.94376L384.10938 402.13126L385.04688 402.13126L385.04688 401.45938Q385.04688 400.83438 385.15625 400.5375Q385.3125 400.11563 385.6875 399.86563Q386.07812 399.61563 386.76562 399.61563Q387.21875 399.61563 387.75 399.725L387.59375 400.63126Q387.26562 400.58438 386.96875 400.58438Q386.48438 400.58438 386.28125 400.7875Q386.09375 400.99063 386.09375 401.55313L386.09375 402.13126L387.3125 402.13126L387.3125 402.94376L386.09375 402.94376L386.09375 408.35L385.04688 408.35ZM388.04688 408.35L388.04688 402.94376L387.10938 402.94376L387.10938 402.13126L388.04688 402.13126L388.04688 401.45938Q388.04688 400.83438 388.15625 400.5375Q388.3125 400.11563 388.6875 399.86563Q389.07812 399.61563 389.76562 399.61563Q390.21875 399.61563 390.75 399.725L390.59375 400.63126Q390.26562 400.58438 389.96875 400.58438Q389.48438 400.58438 389.28125 400.7875Q389.09375 400.99063 389.09375 401.55313L389.09375 402.13126L390.3125 402.13126L390.3125 402.94376L389.09375 402.94376L389.09375 408.35L388.04688 408.35ZM390.375 406.49063L391.40625 406.33438Q391.5 406.95938 391.89062 407.2875Q392.29688 407.61563 393.03125 407.61563Q393.75 407.61563 394.09375 407.33438Q394.45312 407.0375 394.45312 406.63126Q394.45312 406.27188 394.14062 406.06876Q393.92188 405.92813 393.0625 405.70938Q391.90625 405.4125 391.45312 405.20938Q391.01562 404.99063 390.78125 404.61563Q390.54688 404.24063 390.54688 403.77188Q390.54688 403.36563 390.73438 403.00626Q390.92188 402.64688 391.25 402.4125Q391.5 402.24063 391.92188 402.11563Q392.34375 401.99063 392.84375 401.99063Q393.5625 401.99063 394.10938 402.20938Q394.67188 402.4125 394.9375 402.77188Q395.20312 403.13126 395.29688 403.725L394.26562 403.86563Q394.20312 403.39688 393.85938 403.13126Q393.53125 402.85 392.90625 402.85Q392.1875 402.85 391.875 403.1Q391.5625 403.33438 391.5625 403.6625Q391.5625 403.86563 391.6875 404.02188Q391.82812 404.19376 392.09375 404.30313Q392.25 404.36563 393.03125 404.56876Q394.15625 404.88126 394.59375 405.06876Q395.03125 405.25626 395.28125 405.61563Q395.53125 405.975 395.53125 406.52188Q395.53125 407.05313 395.21875 407.52188Q394.92188 407.975 394.34375 408.24063Q393.76562 408.49063 393.03125 408.49063Q391.8125 408.49063 391.17188 407.99063Q390.54688 407.475 390.375 406.49063ZM402.04688 406.35L403.14062 406.475Q402.89062 407.42813 402.1875 407.95938Q401.48438 408.49063 400.40625 408.49063Q399.04688 408.49063 398.23438 407.64688Q397.4375 406.80313 397.4375 405.2875Q397.4375 403.725 398.25 402.86563Q399.0625 401.99063 400.34375 401.99063Q401.59375 401.99063 402.375 402.83438Q403.17188 403.67813 403.17188 405.225Q403.17188 405.31876 403.17188 405.50626L398.53125 405.50626Q398.59375 406.5375 399.10938 407.08438Q399.625 407.61563 400.40625 407.61563Q400.98438 407.61563 401.39062 407.31876Q401.8125 407.00626 402.04688 406.35ZM398.59375 404.64688L402.0625 404.64688Q402.0 403.85 401.67188 403.45938Q401.15625 402.85 400.35938 402.85Q399.625 402.85 399.125 403.33438Q398.64062 403.81876 398.59375 404.64688ZM407.09375 407.4125L407.25 408.33438Q406.79688 408.42813 406.45312 408.42813Q405.875 408.42813 405.5625 408.25626Q405.25 408.06876 405.10938 407.77188Q404.98438 407.475 404.98438 406.52188L404.98438 402.94376L404.21875 402.94376L404.21875 402.13126L404.98438 402.13126L404.98438 400.58438L406.03125 399.95938L406.03125 402.13126L407.09375 402.13126L407.09375 402.94376L406.03125 402.94376L406.03125 406.58438Q406.03125 407.0375 406.07812 407.1625Q406.14062 407.2875 406.26562 407.36563Q406.39062 407.44376 406.625 407.44376Q406.8125 407.44376 407.09375 407.4125Z" fill-rule="nonzero"/><path fill="#000000" d="M32.650005 268.63647L26.431255 268.63647L26.431255 267.69897L27.306255 267.69897Q26.837505 267.4021 26.57188 266.91772Q26.29063 266.43335 26.29063 265.80835Q26.29063 265.12085 26.57188 264.68335Q26.85313 264.23022 27.368755 264.05835Q26.29063 263.30835 26.29063 262.13647Q26.29063 261.19897 26.806255 260.7146Q27.306255 260.2146 28.38438 260.2146L32.650005 260.2146L32.650005 261.26147L28.72813 261.26147Q28.10313 261.26147 27.82188 261.37085Q27.54063 261.4646 27.368755 261.73022Q27.19688 261.99585 27.19688 262.37085Q27.19688 263.0271 27.63438 263.4646Q28.07188 263.88647 29.04063 263.88647L32.650005 263.88647L32.650005 264.94897L28.60313 264.94897Q27.900005 264.94897 27.556255 265.2146Q27.19688 265.4646 27.19688 266.04272Q27.19688 266.49585 27.431255 266.87085Q27.66563 267.24585 28.118755 267.41772Q28.57188 267.5896 29.41563 267.5896L32.650005 267.5896L32.650005 268.63647ZM25.275005 257.63647L24.056255 257.63647L24.056255 256.57397L25.275005 256.57397L25.275005 257.63647ZM32.650005 257.63647L26.431255 257.63647L26.431255 256.57397L32.650005 256.57397L32.650005 257.63647ZM32.650005 254.66771L24.056255 254.66771L24.056255 253.60521L32.650005 253.60521L32.650005 254.66771ZM32.650005 251.66771L24.056255 251.66771L24.056255 250.60521L32.650005 250.60521L32.650005 251.66771ZM25.275005 248.63646L24.056255 248.63646L24.056255 247.57396L25.275005 247.57396L25.275005 248.63646ZM32.650005 248.63646L26.431255 248.63646L26.431255 247.57396L32.650005 247.57396L32.650005 248.63646ZM30.79063 246.05833L30.63438 245.02708Q31.25938 244.93333 31.587505 244.54271Q31.91563 244.13646 31.91563 243.40208Q31.91563 242.68333 31.63438 242.33958Q31.337505 241.98021 30.931255 241.98021Q30.57188 241.98021 30.368755 242.29271Q30.22813 242.51146 30.00938 243.37083Q29.712505 244.52708 29.50938 244.98021Q29.29063 245.41771 28.91563 245.65208Q28.54063 245.88646 28.07188 245.88646Q27.66563 245.88646 27.306255 245.69896Q26.94688 245.51146 26.712505 245.18333Q26.54063 244.93333 26.41563 244.51146Q26.29063 244.08958 26.29063 243.58958Q26.29063 242.87083 26.50938 242.32396Q26.712505 241.76146 27.07188 241.49583Q27.431255 241.23021 28.025005 241.13646L28.16563 242.16771Q27.69688 242.23021 27.431255 242.57396Q27.150005 242.90208 27.150005 243.52708Q27.150005 244.24583 27.400005 244.55833Q27.63438 244.87083 27.962505 244.87083Q28.16563 244.87083 28.32188 244.74583Q28.493755 244.60521 28.60313 244.33958Q28.66563 244.18333 28.868755 243.40208Q29.181255 242.27708 29.368755 241.83958Q29.556255 241.40208 29.91563 241.15208Q30.275005 240.90208 30.82188 240.90208Q31.35313 240.90208 31.82188 241.21458Q32.275005 241.51146 32.54063 242.08958Q32.79063 242.66771 32.79063 243.40208Q32.79063 244.62083 32.29063 245.26146Q31.775005 245.88646 30.79063 246.05833ZM30.650005 234.38646L30.775005 233.29271Q31.72813 233.54271 32.25938 234.24583Q32.79063 234.94896 32.79063 236.02708Q32.79063 237.38646 31.94688 238.19896Q31.10313 238.99583 29.587505 238.99583Q28.025005 238.99583 27.16563 238.18333Q26.29063 237.37083 26.29063 236.08958Q26.29063 234.83958 27.13438 234.05833Q27.97813 233.26146 29.525005 233.26146Q29.618755 233.26146 29.806255 233.26146L29.806255 237.90208Q30.837505 237.83958 31.38438 237.32396Q31.91563 236.80833 31.91563 236.02708Q31.91563 235.44896 31.618755 235.04271Q31.306255 234.62083 30.650005 234.38646ZM28.94688 237.83958L28.94688 234.37083Q28.150005 234.43333 27.75938 234.76146Q27.150005 235.27708 27.150005 236.07396Q27.150005 236.80833 27.63438 237.30833Q28.118755 237.79271 28.94688 237.83958ZM30.368755 227.57396L30.50938 226.54271Q31.57188 226.71458 32.181255 227.41771Q32.79063 228.12083 32.79063 229.13646Q32.79063 230.41771 31.962505 231.19896Q31.118755 231.96458 29.556255 231.96458Q28.556255 231.96458 27.806255 231.63646Q27.04063 231.29271 26.66563 230.62083Q26.29063 229.93333 26.29063 229.12083Q26.29063 228.12083 26.806255 227.48021Q27.306255 226.82396 28.25938 226.63646L28.41563 227.66771Q27.79063 227.80833 27.47813 228.18333Q27.150005 228.55833 27.150005 229.08958Q27.150005 229.88646 27.72813 230.38646Q28.29063 230.88646 29.525005 230.88646Q30.79063 230.88646 31.35313 230.40208Q31.91563 229.91771 31.91563 229.15208Q31.91563 228.52708 31.54063 228.12083Q31.16563 227.69896 30.368755 227.57396ZM29.54063 226.02708Q27.806255 226.02708 26.97813 225.07396Q26.29063 224.27708 26.29063 223.12083Q26.29063 221.83958 27.13438 221.02708Q27.962505 220.19896 29.44688 220.19896Q30.650005 220.19896 31.337505 220.55833Q32.025005 220.91771 32.41563 221.62083Q32.79063 222.30833 32.79063 223.12083Q32.79063 224.41771 31.962505 225.23021Q31.118755 226.02708 29.54063 226.02708ZM29.54063 224.94896Q30.72813 224.94896 31.32188 224.43333Q31.91563 223.90208 31.91563 223.12083Q31.91563 222.32396 31.32188 221.80833Q30.72813 221.29271 29.50938 221.29271Q28.35313 221.29271 27.75938 221.82396Q27.16563 222.33958 27.16563 223.12083Q27.16563 223.90208 27.75938 224.43333Q28.337505 224.94896 29.54063 224.94896ZM32.650005 218.63646L26.431255 218.63646L26.431255 217.69896L27.306255 217.69896Q26.29063 217.01146 26.29063 215.71458Q26.29063 215.15208 26.493755 214.68333Q26.69688 214.19896 27.025005 213.96458Q27.35313 213.73021 27.79063 213.63646Q28.087505 213.58958 28.82188 213.58958L32.650005 213.58958L32.650005 214.63646L28.868755 214.63646Q28.212505 214.63646 27.900005 214.76146Q27.587505 214.88646 27.400005 215.19896Q27.19688 215.51146 27.19688 215.93333Q27.19688 216.60521 27.63438 217.10521Q28.056255 217.58958 29.243755 217.58958L32.650005 217.58958L32.650005 218.63646ZM32.650005 207.60521L31.868755 207.60521Q32.79063 208.19896 32.79063 209.33958Q32.79063 210.08958 32.38438 210.71458Q31.962505 211.33958 31.22813 211.68333Q30.493755 212.02708 29.54063 212.02708Q28.618755 212.02708 27.85313 211.71458Q27.087505 211.40208 26.69688 210.77708Q26.29063 210.15208 26.29063 209.38646Q26.29063 208.82396 26.525005 208.38646Q26.75938 207.94896 27.13438 207.66771L24.056255 207.66771L24.056255 206.62083L32.650005 206.62083L32.650005 207.60521ZM29.54063 210.93333Q30.743755 210.93333 31.337505 210.43333Q31.91563 209.93333 31.91563 209.24583Q31.91563 208.55833 31.35313 208.07396Q30.79063 207.58958 29.63438 207.58958Q28.35313 207.58958 27.75938 208.08958Q27.16563 208.57396 27.16563 209.29271Q27.16563 209.99583 27.743755 210.46458Q28.306255 210.93333 29.54063 210.93333ZM30.79063 205.05833L30.63438 204.02708Q31.25938 203.93333 31.587505 203.54271Q31.91563 203.13646 31.91563 202.40208Q31.91563 201.68333 31.63438 201.33958Q31.337505 200.98021 30.931255 200.98021Q30.57188 200.98021 30.368755 201.29271Q30.22813 201.51146 30.00938 202.37083Q29.712505 203.52708 29.50938 203.98021Q29.29063 204.41771 28.91563 204.65208Q28.54063 204.88646 28.07188 204.88646Q27.66563 204.88646 27.306255 204.69896Q26.94688 204.51146 26.712505 204.18333Q26.54063 203.93333 26.41563 203.51146Q26.29063 203.08958 26.29063 202.58958Q26.29063 201.87083 26.50938 201.32396Q26.712505 200.76146 27.07188 200.49583Q27.431255 200.23021 28.025005 200.13646L28.16563 201.16771Q27.69688 201.23021 27.431255 201.57396Q27.150005 201.90208 27.150005 202.52708Q27.150005 203.24583 27.400005 203.55833Q27.63438 203.87083 27.962505 203.87083Q28.16563 203.87083 28.32188 203.74583Q28.493755 203.60521 28.60313 203.33958Q28.66563 203.18333 28.868755 202.40208Q29.181255 201.27708 29.368755 200.83958Q29.556255 200.40208 29.91563 200.15208Q30.275005 199.90208 30.82188 199.90208Q31.35313 199.90208 31.82188 200.21458Q32.275005 200.51146 32.54063 201.08958Q32.79063 201.66771 32.79063 202.40208Q32.79063 203.62083 32.29063 204.26146Q31.775005 204.88646 30.79063 205.05833Z" fill-rule="nonzero"/><path fill="#000000" d="M68.15 356.22092Q68.15 354.68967 68.4625 353.7678Q68.775 352.8303 69.38438 352.3303Q70.00938 351.8303 70.94688 351.8303Q71.63438 351.8303 72.15 352.11154Q72.68125 352.3928 73.025 352.92404Q73.36875 353.43967 73.55625 354.18967Q73.74375 354.93967 73.74375 356.22092Q73.74375 357.73654 73.43125 358.65842Q73.13438 359.5803 72.50938 360.09592Q71.9 360.59592 70.94688 360.59592Q69.7125 360.59592 68.99375 359.7053Q68.15 358.6428 68.15 356.22092ZM69.22813 356.22092Q69.22813 358.3303 69.72813 359.03342Q70.22813 359.73654 70.94688 359.73654Q71.68125 359.73654 72.16563 359.03342Q72.66563 358.3303 72.66563 356.22092Q72.66563 354.09592 72.16563 353.40842Q71.68125 352.7053 70.93125 352.7053Q70.2125 352.7053 69.775 353.31467Q69.22813 354.09592 69.22813 356.22092ZM75.74375 360.4553L75.74375 359.25217L76.94688 359.25217L76.94688 360.4553L75.74375 360.4553ZM82.11875 360.4553L81.07188 360.4553L81.07188 353.73654Q80.68125 354.09592 80.05625 354.47092Q79.44688 354.8303 78.9625 355.00217L78.9625 353.98654Q79.8375 353.56467 80.49375 352.98654Q81.16563 352.3928 81.44688 351.8303L82.11875 351.8303L82.11875 360.4553ZM85.15 356.22092Q85.15 354.68967 85.4625 353.7678Q85.775 352.8303 86.38438 352.3303Q87.00938 351.8303 87.94688 351.8303Q88.63438 351.8303 89.15 352.11154Q89.68125 352.3928 90.025 352.92404Q90.36875 353.43967 90.55625 354.18967Q90.74375 354.93967 90.74375 356.22092Q90.74375 357.73654 90.43125 358.65842Q90.13438 359.5803 89.50938 360.09592Q88.9 360.59592 87.94688 360.59592Q86.7125 360.59592 85.99375 359.7053Q85.15 358.6428 85.15 356.22092ZM86.22813 356.22092Q86.22813 358.3303 86.72813 359.03342Q87.22813 359.73654 87.94688 359.73654Q88.68125 359.73654 89.16563 359.03342Q89.66563 358.3303 89.66563 356.22092Q89.66563 354.09592 89.16563 353.40842Q88.68125 352.7053 87.93125 352.7053Q87.2125 352.7053 86.775 353.31467Q86.22813 354.09592 86.22813 356.22092ZM92.15 356.22092Q92.15 354.68967 92.4625 353.7678Q92.775 352.8303 93.38438 352.3303Q94.00938 351.8303 94.94688 351.8303Q95.63438 351.8303 96.15 352.11154Q96.68125 352.3928 97.025 352.92404Q97.36875 353.43967 97.55625 354.18967Q97.74375 354.93967 97.74375 356.22092Q97.74375 357.73654 97.43125 358.65842Q97.13438 359.5803 96.50938 360.09592Q95.9 360.59592 94.94688 360.59592Q93.7125 360.59592 92.99375 359.7053Q92.15 358.6428 92.15 356.22092ZM93.22813 356.22092Q93.22813 358.3303 93.72813 359.03342Q94.22813 359.73654 94.94688 359.73654Q95.68125 359.73654 96.16563 359.03342Q96.66563 358.3303 96.66563 356.22092Q96.66563 354.09592 96.16563 353.40842Q95.68125 352.7053 94.93125 352.7053Q94.2125 352.7053 93.775 353.31467Q93.22813 354.09592 93.22813 356.22092Z" fill-rule="nonzero"/><path fill="#000000" d="M72.11875 289.7811L71.07188 289.7811L71.07188 283.06235Q70.68125 283.42172 70.05625 283.79672Q69.44688 284.1561 68.9625 284.32797L68.9625 283.31235Q69.8375 282.89047 70.49375 282.31235Q71.16563 281.7186 71.44688 281.1561L72.11875 281.1561L72.11875 289.7811ZM75.74375 289.7811L75.74375 288.57797L76.94688 288.57797L76.94688 289.7811L75.74375 289.7811ZM78.15 285.54672Q78.15 284.01547 78.4625 283.0936Q78.775 282.1561 79.38438 281.6561Q80.00938 281.1561 80.94688 281.1561Q81.63438 281.1561 82.15 281.43735Q82.68125 281.7186 83.025 282.24985Q83.36875 282.76547 83.55625 283.51547Q83.74375 284.26547 83.74375 285.54672Q83.74375 287.06235 83.43125 287.98422Q83.13438 288.9061 82.50938 289.42172Q81.9 289.92172 80.94688 289.92172Q79.7125 289.92172 78.99375 289.0311Q78.15 287.9686 78.15 285.54672ZM79.22813 285.54672Q79.22813 287.6561 79.72813 288.35922Q80.22813 289.06235 80.94688 289.06235Q81.68125 289.06235 82.16563 288.35922Q82.66563 287.6561 82.66563 285.54672Q82.66563 283.42172 82.16563 282.73422Q81.68125 282.0311 80.93125 282.0311Q80.2125 282.0311 79.775 282.64047Q79.22813 283.42172 79.22813 285.54672ZM85.15 285.54672Q85.15 284.01547 85.4625 283.0936Q85.775 282.1561 86.38438 281.6561Q87.00938 281.1561 87.94688 281.1561Q88.63438 281.1561 89.15 281.43735Q89.68125 281.7186 90.025 282.24985Q90.36875 282.76547 90.55625 283.51547Q90.74375 284.26547 90.74375 285.54672Q90.74375 287.06235 90.43125 287.98422Q90.13438 288.9061 89.50938 289.42172Q88.9 289.92172 87.94688 289.92172Q86.7125 289.92172 85.99375 289.0311Q85.15 287.9686 85.15 285.54672ZM86.22813 285.54672Q86.22813 287.6561 86.72813 288.35922Q87.22813 289.06235 87.94688 289.06235Q88.68125 289.06235 89.16563 288.35922Q89.66563 287.6561 89.66563 285.54672Q89.66563 283.42172 89.16563 282.73422Q88.68125 282.0311 87.93125 282.0311Q87.2125 282.0311 86.775 282.64047Q86.22813 283.42172 86.22813 285.54672ZM92.15 285.54672Q92.15 284.01547 92.4625 283.0936Q92.775 282.1561 93.38438 281.6561Q94.00938 281.1561 94.94688 281.1561Q95.63438 281.1561 96.15 281.43735Q96.68125 281.7186 97.025 282.24985Q97.36875 282.76547 97.55625 283.51547Q97.74375 284.26547 97.74375 285.54672Q97.74375 287.06235 97.43125 287.98422Q97.13438 288.9061 96.50938 289.42172Q95.9 289.92172 94.94688 289.92172Q93.7125 289.92172 92.99375 289.0311Q92.15 287.9686 92.15 285.54672ZM93.22813 285.54672Q93.22813 287.6561 93.72813 288.35922Q94.22813 289.06235 94.94688 289.06235Q95.68125 289.06235 96.16563 288.35922Q96.66563 287.6561 96.66563 285.54672Q96.66563 283.42172 96.16563 282.73422Q95.68125 282.0311 94.93125 282.0311Q94.2125 282.0311 93.775 282.64047Q93.22813 283.42172 93.22813 285.54672Z" fill-rule="nonzero"/><path fill="#000000" d="M65.11875 219.10693L64.07188 219.10693L64.07188 212.38818Q63.68125 212.74756 63.05625 213.12256Q62.446877 213.48193 61.9625 213.65381L61.9625 212.63818Q62.8375 212.21631 63.49375 211.63818Q64.16563 211.04443 64.44688 210.48193L65.11875 210.48193L65.11875 219.10693ZM68.15 214.87256Q68.15 213.34131 68.4625 212.41943Q68.775 211.48193 69.38438 210.98193Q70.00938 210.48193 70.94688 210.48193Q71.63438 210.48193 72.15 210.76318Q72.68125 211.04443 73.025 211.57568Q73.36875 212.09131 73.55625 212.84131Q73.74375 213.59131 73.74375 214.87256Q73.74375 216.38818 73.43125 217.31006Q73.13438 218.23193 72.50938 218.74756Q71.9 219.24756 70.94688 219.24756Q69.7125 219.24756 68.99375 218.35693Q68.15 217.29443 68.15 214.87256ZM69.22813 214.87256Q69.22813 216.98193 69.72813 217.68506Q70.22813 218.38818 70.94688 218.38818Q71.68125 218.38818 72.16563 217.68506Q72.66563 216.98193 72.66563 214.87256Q72.66563 212.74756 72.16563 212.06006Q71.68125 211.35693 70.93125 211.35693Q70.2125 211.35693 69.775 211.96631Q69.22813 212.74756 69.22813 214.87256ZM75.74375 219.10693L75.74375 217.90381L76.94688 217.90381L76.94688 219.10693L75.74375 219.10693ZM78.15 214.87256Q78.15 213.34131 78.4625 212.41943Q78.775 211.48193 79.38438 210.98193Q80.00938 210.48193 80.94688 210.48193Q81.63438 210.48193 82.15 210.76318Q82.68125 211.04443 83.025 211.57568Q83.36875 212.09131 83.55625 212.84131Q83.74375 213.59131 83.74375 214.87256Q83.74375 216.38818 83.43125 217.31006Q83.13438 218.23193 82.50938 218.74756Q81.9 219.24756 80.94688 219.24756Q79.7125 219.24756 78.99375 218.35693Q78.15 217.29443 78.15 214.87256ZM79.22813 214.87256Q79.22813 216.98193 79.72813 217.68506Q80.22813 218.38818 80.94688 218.38818Q81.68125 218.38818 82.16563 217.68506Q82.66563 216.98193 82.66563 214.87256Q82.66563 212.74756 82.16563 212.06006Q81.68125 211.35693 80.93125 211.35693Q80.2125 211.35693 79.775 211.96631Q79.22813 212.74756 79.22813 214.87256ZM85.15 214.87256Q85.15 213.34131 85.4625 212.41943Q85.775 211.48193 86.38438 210.98193Q87.00938 210.48193 87.94688 210.48193Q88.63438 210.48193 89.15 210.76318Q89.68125 211.04443 90.025 211.57568Q90.36875 212.09131 90.55625 212.84131Q90.74375 213.59131 90.74375 214.87256Q90.74375 216.38818 90.43125 217.31006Q90.13438 218.23193 89.50938 218.74756Q88.9 219.24756 87.94688 219.24756Q86.7125 219.24756 85.99375 218.35693Q85.15 217.29443 85.15 214.87256ZM86.22813 214.87256Q86.22813 216.98193 86.72813 217.68506Q87.22813 218.38818 87.94688 218.38818Q88.68125 218.38818 89.16563 217.68506Q89.66563 216.98193 89.66563 214.87256Q89.66563 212.74756 89.16563 212.06006Q88.68125 211.35693 87.93125 211.35693Q87.2125 211.35693 86.775 211.96631Q86.22813 212.74756 86.22813 214.87256ZM92.15 214.87256Q92.15 213.34131 92.4625 212.41943Q92.775 211.48193 93.38438 210.98193Q94.00938 210.48193 94.94688 210.48193Q95.63438 210.48193 96.15 210.76318Q96.68125 211.04443 97.025 211.57568Q97.36875 212.09131 97.55625 212.84131Q97.74375 213.59131 97.74375 214.87256Q97.74375 216.38818 97.43125 217.31006Q97.13438 218.23193 96.50938 218.74756Q95.9 219.24756 94.94688 219.24756Q93.7125 219.24756 92.99375 218.35693Q92.15 217.29443 92.15 214.87256ZM93.22813 214.87256Q93.22813 216.98193 93.72813 217.68506Q94.22813 218.38818 94.94688 218.38818Q95.68125 218.38818 96.16563 217.68506Q96.66563 216.98193 96.66563 214.87256Q96.66563 212.74756 96.16563 212.06006Q95.68125 211.35693 94.93125 211.35693Q94.2125 211.35693 93.775 211.96631Q93.22813 212.74756 93.22813 214.87256Z" fill-rule="nonzero"/><path fill="#000000" d="M58.11875 148.43277L57.071877 148.43277L57.071877 141.71402Q56.68125 142.0734 56.05625 142.4484Q55.446877 142.80777 54.9625 142.97964L54.9625 141.96402Q55.8375 141.54214 56.49375 140.96402Q57.165627 140.37027 57.446877 139.80777L58.11875 139.80777L58.11875 148.43277ZM61.15 144.1984Q61.15 142.66714 61.4625 141.74527Q61.775 140.80777 62.384377 140.30777Q63.009377 139.80777 63.946877 139.80777Q64.63438 139.80777 65.15 140.08902Q65.68125 140.37027 66.025 140.90152Q66.36875 141.41714 66.55625 142.16714Q66.74375 142.91714 66.74375 144.1984Q66.74375 145.71402 66.43125 146.6359Q66.13438 147.55777 65.50938 148.0734Q64.9 148.5734 63.946877 148.5734Q62.7125 148.5734 61.99375 147.68277Q61.15 146.62027 61.15 144.1984ZM62.228127 144.1984Q62.228127 146.30777 62.728127 147.0109Q63.228127 147.71402 63.946877 147.71402Q64.68125 147.71402 65.16563 147.0109Q65.66563 146.30777 65.66563 144.1984Q65.66563 142.0734 65.16563 141.3859Q64.68125 140.68277 63.93125 140.68277Q63.2125 140.68277 62.775 141.29214Q62.228127 142.0734 62.228127 144.1984ZM68.15 144.1984Q68.15 142.66714 68.4625 141.74527Q68.775 140.80777 69.38438 140.30777Q70.00938 139.80777 70.94688 139.80777Q71.63438 139.80777 72.15 140.08902Q72.68125 140.37027 73.025 140.90152Q73.36875 141.41714 73.55625 142.16714Q73.74375 142.91714 73.74375 144.1984Q73.74375 145.71402 73.43125 146.6359Q73.13438 147.55777 72.50938 148.0734Q71.9 148.5734 70.94688 148.5734Q69.7125 148.5734 68.99375 147.68277Q68.15 146.62027 68.15 144.1984ZM69.22813 144.1984Q69.22813 146.30777 69.72813 147.0109Q70.22813 147.71402 70.94688 147.71402Q71.68125 147.71402 72.16563 147.0109Q72.66563 146.30777 72.66563 144.1984Q72.66563 142.0734 72.16563 141.3859Q71.68125 140.68277 70.93125 140.68277Q70.2125 140.68277 69.775 141.29214Q69.22813 142.0734 69.22813 144.1984ZM75.74375 148.43277L75.74375 147.22964L76.94688 147.22964L76.94688 148.43277L75.74375 148.43277ZM78.15 144.1984Q78.15 142.66714 78.4625 141.74527Q78.775 140.80777 79.38438 140.30777Q80.00938 139.80777 80.94688 139.80777Q81.63438 139.80777 82.15 140.08902Q82.68125 140.37027 83.025 140.90152Q83.36875 141.41714 83.55625 142.16714Q83.74375 142.91714 83.74375 144.1984Q83.74375 145.71402 83.43125 146.6359Q83.13438 147.55777 82.50938 148.0734Q81.9 148.5734 80.94688 148.5734Q79.7125 148.5734 78.99375 147.68277Q78.15 146.62027 78.15 144.1984ZM79.22813 144.1984Q79.22813 146.30777 79.72813 147.0109Q80.22813 147.71402 80.94688 147.71402Q81.68125 147.71402 82.16563 147.0109Q82.66563 146.30777 82.66563 144.1984Q82.66563 142.0734 82.16563 141.3859Q81.68125 140.68277 80.93125 140.68277Q80.2125 140.68277 79.775 141.29214Q79.22813 142.0734 79.22813 144.1984ZM85.15 144.1984Q85.15 142.66714 85.4625 141.74527Q85.775 140.80777 86.38438 140.30777Q87.00938 139.80777 87.94688 139.80777Q88.63438 139.80777 89.15 140.08902Q89.68125 140.37027 90.025 140.90152Q90.36875 141.41714 90.55625 142.16714Q90.74375 142.91714 90.74375 144.1984Q90.74375 145.71402 90.43125 146.6359Q90.13438 147.55777 89.50938 148.0734Q88.9 148.5734 87.94688 148.5734Q86.7125 148.5734 85.99375 147.68277Q85.15 146.62027 85.15 144.1984ZM86.22813 144.1984Q86.22813 146.30777 86.72813 147.0109Q87.22813 147.71402 87.94688 147.71402Q88.68125 147.71402 89.16563 147.0109Q89.66563 146.30777 89.66563 144.1984Q89.66563 142.0734 89.16563 141.3859Q88.68125 140.68277 87.93125 140.68277Q87.2125 140.68277 86.775 141.29214Q86.22813 142.0734 86.22813 144.1984ZM92.15 144.1984Q92.15 142.66714 92.4625 141.74527Q92.775 140.80777 93.38438 140.30777Q94.00938 139.80777 94.94688 139.80777Q95.63438 139.80777 96.15 140.08902Q96.68125 140.37027 97.025 140.90152Q97.36875 141.41714 97.55625 142.16714Q97.74375 142.91714 97.74375 144.1984Q97.74375 145.71402 97.43125 146.6359Q97.13438 147.55777 96.50938 148.0734Q95.9 148.5734 94.94688 148.5734Q93.7125 148.5734 92.99375 147.68277Q92.15 146.62027 92.15 144.1984ZM93.22813 144.1984Q93.22813 146.30777 93.72813 147.0109Q94.22813 147.71402 94.94688 147.71402Q95.68125 147.71402 96.16563 147.0109Q96.66563 146.30777 96.66563 144.1984Q96.66563 142.0734 96.16563 141.3859Q95.68125 140.68277 94.93125 140.68277Q94.2125 140.68277 93.775 141.29214Q93.22813 142.0734 93.22813 144.1984Z" fill-rule="nonzero"/><path fill="#000000" d="M98.61875 376.35L97.57188 376.35L97.57188 369.63126Q97.18125 369.99063 96.55625 370.36563Q95.94688 370.725 95.4625 370.89688L95.4625 369.88126Q96.3375 369.45938 96.99375 368.88126Q97.66563 368.2875 97.94688 367.725L98.61875 367.725L98.61875 376.35ZM101.65 372.11563Q101.65 370.58438 101.9625 369.6625Q102.275 368.725 102.88438 368.225Q103.50938 367.725 104.44688 367.725Q105.13438 367.725 105.65 368.00626Q106.18125 368.2875 106.525 368.81876Q106.86875 369.33438 107.05625 370.08438Q107.24375 370.83438 107.24375 372.11563Q107.24375 373.63126 106.93125 374.55313Q106.63438 375.475 106.00938 375.99063Q105.4 376.49063 104.44688 376.49063Q103.2125 376.49063 102.49375 375.6Q101.65 374.5375 101.65 372.11563ZM102.72813 372.11563Q102.72813 374.225 103.22813 374.92813Q103.72813 375.63126 104.44688 375.63126Q105.18125 375.63126 105.66563 374.92813Q106.16563 374.225 106.16563 372.11563Q106.16563 369.99063 105.66563 369.30313Q105.18125 368.6 104.43125 368.6Q103.7125 368.6 103.275 369.20938Q102.72813 369.99063 102.72813 372.11563ZM108.65 372.11563Q108.65 370.58438 108.9625 369.6625Q109.275 368.725 109.88438 368.225Q110.50938 367.725 111.44688 367.725Q112.13438 367.725 112.65 368.00626Q113.18125 368.2875 113.525 368.81876Q113.86875 369.33438 114.05625 370.08438Q114.24375 370.83438 114.24375 372.11563Q114.24375 373.63126 113.93125 374.55313Q113.63438 375.475 113.00938 375.99063Q112.4 376.49063 111.44688 376.49063Q110.2125 376.49063 109.49375 375.6Q108.65 374.5375 108.65 372.11563ZM109.72813 372.11563Q109.72813 374.225 110.22813 374.92813Q110.72813 375.63126 111.44688 375.63126Q112.18125 375.63126 112.66563 374.92813Q113.16563 374.225 113.16563 372.11563Q113.16563 369.99063 112.66563 369.30313Q112.18125 368.6 111.43125 368.6Q110.7125 368.6 110.275 369.20938Q109.72813 369.99063 109.72813 372.11563Z" fill-rule="nonzero"/><path fill="#000000" d="M238.79375 376.35L237.74687 376.35L237.74687 369.63126Q237.35625 369.99063 236.73125 370.36563Q236.12187 370.725 235.6375 370.89688L235.6375 369.88126Q236.5125 369.45938 237.16875 368.88126Q237.84062 368.2875 238.12187 367.725L238.79375 367.725L238.79375 376.35ZM241.825 372.11563Q241.825 370.58438 242.1375 369.6625Q242.45 368.725 243.05937 368.225Q243.68437 367.725 244.62187 367.725Q245.30937 367.725 245.825 368.00626Q246.35625 368.2875 246.7 368.81876Q247.04375 369.33438 247.23125 370.08438Q247.41875 370.83438 247.41875 372.11563Q247.41875 373.63126 247.10625 374.55313Q246.80937 375.475 246.18437 375.99063Q245.575 376.49063 244.62187 376.49063Q243.3875 376.49063 242.66875 375.6Q241.825 374.5375 241.825 372.11563ZM242.90312 372.11563Q242.90312 374.225 243.40312 374.92813Q243.90312 375.63126 244.62187 375.63126Q245.35625 375.63126 245.84062 374.92813Q246.34062 374.225 246.34062 372.11563Q246.34062 369.99063 245.84062 369.30313Q245.35625 368.6 244.60625 368.6Q243.8875 368.6 243.45 369.20938Q242.90312 369.99063 242.90312 372.11563ZM248.825 372.11563Q248.825 370.58438 249.1375 369.6625Q249.45 368.725 250.05937 368.225Q250.68437 367.725 251.62187 367.725Q252.30937 367.725 252.825 368.00626Q253.35625 368.2875 253.7 368.81876Q254.04375 369.33438 254.23125 370.08438Q254.41875 370.83438 254.41875 372.11563Q254.41875 373.63126 254.10625 374.55313Q253.80937 375.475 253.18437 375.99063Q252.575 376.49063 251.62187 376.49063Q250.3875 376.49063 249.66875 375.6Q248.825 374.5375 248.825 372.11563ZM249.90312 372.11563Q249.90312 374.225 250.40312 374.92813Q250.90312 375.63126 251.62187 375.63126Q252.35625 375.63126 252.84062 374.92813Q253.34062 374.225 253.34062 372.11563Q253.34062 369.99063 252.84062 369.30313Q252.35625 368.6 251.60625 368.6Q250.8875 368.6 250.45 369.20938Q249.90312 369.99063 249.90312 372.11563ZM255.825 372.11563Q255.825 370.58438 256.1375 369.6625Q256.45 368.725 257.0594 368.225Q257.6844 367.725 258.6219 367.725Q259.3094 367.725 259.825 368.00626Q260.35626 368.2875 260.7 368.81876Q261.04376 369.33438 261.23126 370.08438Q261.41876 370.83438 261.41876 372.11563Q261.41876 373.63126 261.10626 374.55313Q260.8094 375.475 260.1844 375.99063Q259.575 376.49063 258.6219 376.49063Q257.3875 376.49063 256.66876 375.6Q255.825 374.5375 255.825 372.11563ZM256.90314 372.11563Q256.90314 374.225 257.40314 374.92813Q257.90314 375.63126 258.6219 375.63126Q259.35626 375.63126 259.84064 374.92813Q260.34064 374.225 260.34064 372.11563Q260.34064 369.99063 259.84064 369.30313Q259.35626 368.6 258.60626 368.6Q257.8875 368.6 257.45 369.20938Q256.90314 369.99063 256.90314 372.11563Z" fill-rule="nonzero"/><path fill="#000000" d="M378.96875 376.35L377.92188 376.35L377.92188 369.63126Q377.53125 369.99063 376.90625 370.36563Q376.29688 370.725 375.8125 370.89688L375.8125 369.88126Q376.6875 369.45938 377.34375 368.88126Q378.01562 368.2875 378.29688 367.725L378.96875 367.725L378.96875 376.35ZM382.0 372.11563Q382.0 370.58438 382.3125 369.6625Q382.625 368.725 383.23438 368.225Q383.85938 367.725 384.79688 367.725Q385.48438 367.725 386.0 368.00626Q386.53125 368.2875 386.875 368.81876Q387.21875 369.33438 387.40625 370.08438Q387.59375 370.83438 387.59375 372.11563Q387.59375 373.63126 387.28125 374.55313Q386.98438 375.475 386.35938 375.99063Q385.75 376.49063 384.79688 376.49063Q383.5625 376.49063 382.84375 375.6Q382.0 374.5375 382.0 372.11563ZM383.07812 372.11563Q383.07812 374.225 383.57812 374.92813Q384.07812 375.63126 384.79688 375.63126Q385.53125 375.63126 386.01562 374.92813Q386.51562 374.225 386.51562 372.11563Q386.51562 369.99063 386.01562 369.30313Q385.53125 368.6 384.78125 368.6Q384.0625 368.6 383.625 369.20938Q383.07812 369.99063 383.07812 372.11563ZM389.0 372.11563Q389.0 370.58438 389.3125 369.6625Q389.625 368.725 390.23438 368.225Q390.85938 367.725 391.79688 367.725Q392.48438 367.725 393.0 368.00626Q393.53125 368.2875 393.875 368.81876Q394.21875 369.33438 394.40625 370.08438Q394.59375 370.83438 394.59375 372.11563Q394.59375 373.63126 394.28125 374.55313Q393.98438 375.475 393.35938 375.99063Q392.75 376.49063 391.79688 376.49063Q390.5625 376.49063 389.84375 375.6Q389.0 374.5375 389.0 372.11563ZM390.07812 372.11563Q390.07812 374.225 390.57812 374.92813Q391.07812 375.63126 391.79688 375.63126Q392.53125 375.63126 393.01562 374.92813Q393.51562 374.225 393.51562 372.11563Q393.51562 369.99063 393.01562 369.30313Q392.53125 368.6 391.78125 368.6Q391.0625 368.6 390.625 369.20938Q390.07812 369.99063 390.07812 372.11563ZM396.0 372.11563Q396.0 370.58438 396.3125 369.6625Q396.625 368.725 397.23438 368.225Q397.85938 367.725 398.79688 367.725Q399.48438 367.725 400.0 368.00626Q400.53125 368.2875 400.875 368.81876Q401.21875 369.33438 401.40625 370.08438Q401.59375 370.83438 401.59375 372.11563Q401.59375 373.63126 401.28125 374.55313Q400.98438 375.475 400.35938 375.99063Q399.75 376.49063 398.79688 376.49063Q397.5625 376.49063 396.84375 375.6Q396.0 374.5375 396.0 372.11563ZM397.07812 372.11563Q397.07812 374.225 397.57812 374.92813Q398.07812 375.63126 398.79688 375.63126Q399.53125 375.63126 400.01562 374.92813Q400.51562 374.225 400.51562 372.11563Q400.51562 369.99063 400.01562 369.30313Q399.53125 368.6 398.78125 368.6Q398.0625 368.6 397.625 369.20938Q397.07812 369.99063 397.07812 372.11563ZM403.0 372.11563Q403.0 370.58438 403.3125 369.6625Q403.625 368.725 404.23438 368.225Q404.85938 367.725 405.79688 367.725Q406.48438 367.725 407.0 368.00626Q407.53125 368.2875 407.875 368.81876Q408.21875 369.33438 408.40625 370.08438Q408.59375 370.83438 408.59375 372.11563Q408.59375 373.63126 408.28125 374.55313Q407.98438 375.475 407.35938 375.99063Q406.75 376.49063 405.79688 376.49063Q404.5625 376.49063 403.84375 375.6Q403.0 374.5375 403.0 372.11563ZM404.07812 372.11563Q404.07812 374.225 404.57812 374.92813Q405.07812 375.63126 405.79688 375.63126Q406.53125 375.63126 407.01562 374.92813Q407.51562 374.225 407.51562 372.11563Q407.51562 369.99063 407.01562 369.30313Q406.53125 368.6 405.78125 368.6Q405.0625 368.6 404.625 369.20938Q404.07812 369.99063 404.07812 372.11563Z" fill-rule="nonzero"/><path fill="#000000" d="M519.14374 376.35L518.09686 376.35L518.09686 369.63126Q517.70624 369.99063 517.08124 370.36563Q516.47186 370.725 515.9875 370.89688L515.9875 369.88126Q516.8625 369.45938 517.51874 368.88126Q518.1906 368.2875 518.47186 367.725L519.14374 367.725L519.14374 376.35ZM522.175 372.11563Q522.175 370.58438 522.4875 369.6625Q522.8 368.725 523.40936 368.225Q524.03436 367.725 524.97186 367.725Q525.65936 367.725 526.175 368.00626Q526.70624 368.2875 527.05 368.81876Q527.39374 369.33438 527.58124 370.08438Q527.76874 370.83438 527.76874 372.11563Q527.76874 373.63126 527.45624 374.55313Q527.15936 375.475 526.53436 375.99063Q525.925 376.49063 524.97186 376.49063Q523.7375 376.49063 523.01874 375.6Q522.175 374.5375 522.175 372.11563ZM523.2531 372.11563Q523.2531 374.225 523.7531 374.92813Q524.2531 375.63126 524.97186 375.63126Q525.70624 375.63126 526.1906 374.92813Q526.6906 374.225 526.6906 372.11563Q526.6906 369.99063 526.1906 369.30313Q525.70624 368.6 524.95624 368.6Q524.2375 368.6 523.8 369.20938Q523.2531 369.99063 523.2531 372.11563ZM529.175 372.11563Q529.175 370.58438 529.4875 369.6625Q529.8 368.725 530.40936 368.225Q531.03436 367.725 531.97186 367.725Q532.65936 367.725 533.175 368.00626Q533.70624 368.2875 534.05 368.81876Q534.39374 369.33438 534.58124 370.08438Q534.76874 370.83438 534.76874 372.11563Q534.76874 373.63126 534.45624 374.55313Q534.15936 375.475 533.53436 375.99063Q532.925 376.49063 531.97186 376.49063Q530.7375 376.49063 530.01874 375.6Q529.175 374.5375 529.175 372.11563ZM530.2531 372.11563Q530.2531 374.225 530.7531 374.92813Q531.2531 375.63126 531.97186 375.63126Q532.70624 375.63126 533.1906 374.92813Q533.6906 374.225 533.6906 372.11563Q533.6906 369.99063 533.1906 369.30313Q532.70624 368.6 531.95624 368.6Q531.2375 368.6 530.8 369.20938Q530.2531 369.99063 530.2531 372.11563ZM536.175 372.11563Q536.175 370.58438 536.4875 369.6625Q536.8 368.725 537.40936 368.225Q538.03436 367.725 538.97186 367.725Q539.65936 367.725 540.175 368.00626Q540.70624 368.2875 541.05 368.81876Q541.39374 369.33438 541.58124 370.08438Q541.76874 370.83438 541.76874 372.11563Q541.76874 373.63126 541.45624 374.55313Q541.15936 375.475 540.53436 375.99063Q539.925 376.49063 538.97186 376.49063Q537.7375 376.49063 537.01874 375.6Q536.175 374.5375 536.175 372.11563ZM537.2531 372.11563Q537.2531 374.225 537.7531 374.92813Q538.2531 375.63126 538.97186 375.63126Q539.70624 375.63126 540.1906 374.92813Q540.6906 374.225 540.6906 372.11563Q540.6906 369.99063 540.1906 369.30313Q539.70624 368.6 538.95624 368.6Q538.2375 368.6 537.8 369.20938Q537.2531 369.99063 537.2531 372.11563ZM543.175 372.11563Q543.175 370.58438 543.4875 369.6625Q543.8 368.725 544.40936 368.225Q545.03436 367.725 545.97186 367.725Q546.65936 367.725 547.175 368.00626Q547.70624 368.2875 548.05 368.81876Q548.39374 369.33438 548.58124 370.08438Q548.76874 370.83438 548.76874 372.11563Q548.76874 373.63126 548.45624 374.55313Q548.15936 375.475 547.53436 375.99063Q546.925 376.49063 545.97186 376.49063Q544.7375 376.49063 544.01874 375.6Q543.175 374.5375 543.175 372.11563ZM544.2531 372.11563Q544.2531 374.225 544.7531 374.92813Q545.2531 375.63126 545.97186 375.63126Q546.70624 375.63126 547.1906 374.92813Q547.6906 374.225 547.6906 372.11563Q547.6906 369.99063 547.1906 369.30313Q546.70624 368.6 545.95624 368.6Q545.2375 368.6 544.8 369.20938Q544.2531 369.99063 544.2531 372.11563ZM550.175 372.11563Q550.175 370.58438 550.4875 369.6625Q550.8 368.725 551.40936 368.225Q552.03436 367.725 552.97186 367.725Q553.65936 367.725 554.175 368.00626Q554.70624 368.2875 555.05 368.81876Q555.39374 369.33438 555.58124 370.08438Q555.76874 370.83438 555.76874 372.11563Q555.76874 373.63126 555.45624 374.55313Q555.15936 375.475 554.53436 375.99063Q553.925 376.49063 552.97186 376.49063Q551.7375 376.49063 551.01874 375.6Q550.175 374.5375 550.175 372.11563ZM551.2531 372.11563Q551.2531 374.225 551.7531 374.92813Q552.2531 375.63126 552.97186 375.63126Q553.70624 375.63126 554.1906 374.92813Q554.6906 374.225 554.6906 372.11563Q554.6906 369.99063 554.1906 369.30313Q553.70624 368.6 552.95624 368.6Q552.2375 368.6 551.8 369.20938Q551.2531 369.99063 551.2531 372.11563Z" fill-rule="nonzero"/><path stroke="#4285f4" stroke-width="4.0" stroke-linecap="butt" d="M247.5 67.083336L259.5 67.083336" fill-rule="nonzero"/><path fill="#1a1a1a" d="M268.29688 73.47396L268.29688 64.864586L269.25 64.864586L269.25 65.66146Q269.59375 65.19271 270.01562 64.958336Q270.45312 64.72396 271.0625 64.72396Q271.85938 64.72396 272.46875 65.13021Q273.07812 65.53646 273.375 66.28646Q273.6875 67.03646 273.6875 67.927086Q273.6875 68.88021 273.34375 69.645836Q273.01562 70.41146 272.35938 70.81771Q271.70312 71.22396 270.98438 71.22396Q270.45312 71.22396 270.03125 71.00521Q269.60938 70.770836 269.34375 70.44271L269.34375 73.47396L268.29688 73.47396ZM269.25 68.00521Q269.25 69.208336 269.73438 69.78646Q270.21875 70.34896 270.90625 70.34896Q271.60938 70.34896 272.10938 69.75521Q272.60938 69.16146 272.60938 67.91146Q272.60938 66.72396 272.125 66.145836Q271.64062 65.552086 270.95312 65.552086Q270.28125 65.552086 269.76562 66.177086Q269.25 66.802086 269.25 68.00521ZM275.26562 71.083336L275.26562 62.489586L276.32812 62.489586L276.32812 71.083336L275.26562 71.083336ZM282.35938 70.31771Q281.76562 70.81771 281.21875 71.020836Q280.6875 71.22396 280.0625 71.22396Q279.03125 71.22396 278.48438 70.72396Q277.9375 70.22396 277.9375 69.44271Q277.9375 68.989586 278.14062 68.614586Q278.34375 68.22396 278.6875 68.00521Q279.03125 67.770836 279.45312 67.66146Q279.75 67.56771 280.39062 67.489586Q281.65625 67.34896 282.26562 67.13021Q282.26562 66.91146 282.26562 66.864586Q282.26562 66.208336 281.96875 65.94271Q281.5625 65.59896 280.76562 65.59896Q280.03125 65.59896 279.67188 65.864586Q279.3125 66.114586 279.14062 66.770836L278.10938 66.63021Q278.25 65.97396 278.57812 65.56771Q278.90625 65.16146 279.51562 64.94271Q280.125 64.72396 280.92188 64.72396Q281.71875 64.72396 282.21875 64.91146Q282.71875 65.09896 282.95312 65.38021Q283.1875 65.66146 283.28125 66.09896Q283.32812 66.364586 283.32812 67.06771L283.32812 68.47396Q283.32812 69.94271 283.39062 70.333336Q283.46875 70.72396 283.67188 71.083336L282.5625 71.083336Q282.40625 70.75521 282.35938 70.31771ZM282.26562 67.958336Q281.6875 68.19271 280.54688 68.364586Q279.89062 68.458336 279.625 68.583336Q279.35938 68.69271 279.20312 68.91146Q279.0625 69.13021 279.0625 69.41146Q279.0625 69.833336 279.375 70.114586Q279.70312 70.395836 280.3125 70.395836Q280.92188 70.395836 281.39062 70.13021Q281.875 69.864586 282.09375 69.395836Q282.26562 69.03646 282.26562 68.34896L282.26562 67.958336ZM285.29688 71.083336L285.29688 64.864586L286.23438 64.864586L286.23438 65.739586Q286.92188 64.72396 288.21875 64.72396Q288.78125 64.72396 289.25 64.927086Q289.73438 65.13021 289.96875 65.458336Q290.20312 65.78646 290.29688 66.22396Q290.34375 66.520836 290.34375 67.25521L290.34375 71.083336L289.29688 71.083336L289.29688 67.302086Q289.29688 66.645836 289.17188 66.333336Q289.04688 66.020836 288.73438 65.833336Q288.42188 65.63021 288.0 65.63021Q287.32812 65.63021 286.82812 66.06771Q286.34375 66.489586 286.34375 67.677086L286.34375 71.083336L285.29688 71.083336ZM292.29688 71.083336L292.29688 64.864586L293.23438 64.864586L293.23438 65.739586Q293.92188 64.72396 295.21875 64.72396Q295.78125 64.72396 296.25 64.927086Q296.73438 65.13021 296.96875 65.458336Q297.20312 65.78646 297.29688 66.22396Q297.34375 66.520836 297.34375 67.25521L297.34375 71.083336L296.29688 71.083336L296.29688 67.302086Q296.29688 66.645836 296.17188 66.333336Q296.04688 66.020836 295.73438 65.833336Q295.42188 65.63021 295.0 65.63021Q294.32812 65.63021 293.82812 66.06771Q293.34375 66.489586 293.34375 67.677086L293.34375 71.083336L292.29688 71.083336ZM299.29688 63.708336L299.29688 62.489586L300.35938 62.489586L300.35938 63.708336L299.29688 63.708336ZM299.29688 71.083336L299.29688 64.864586L300.35938 64.864586L300.35938 71.083336L299.29688 71.083336ZM302.29688 71.083336L302.29688 64.864586L303.23438 64.864586L303.23438 65.739586Q303.92188 64.72396 305.21875 64.72396Q305.78125 64.72396 306.25 64.927086Q306.73438 65.13021 306.96875 65.458336Q307.20312 65.78646 307.29688 66.22396Q307.34375 66.520836 307.34375 67.25521L307.34375 71.083336L306.29688 71.083336L306.29688 67.302086Q306.29688 66.645836 306.17188 66.333336Q306.04688 66.020836 305.73438 65.833336Q305.42188 65.63021 305.0 65.63021Q304.32812 65.63021 303.82812 66.06771Q303.34375 66.489586 303.34375 67.677086L303.34375 71.083336L302.29688 71.083336ZM309.09375 71.59896L310.125 71.75521Q310.1875 72.22396 310.48438 72.44271Q310.875 72.739586 311.54688 72.739586Q312.28125 72.739586 312.67188 72.44271Q313.07812 72.145836 313.21875 71.63021Q313.3125 71.302086 313.29688 70.270836Q312.60938 71.083336 311.57812 71.083336Q310.29688 71.083336 309.59375 70.16146Q308.89062 69.22396 308.89062 67.94271Q308.89062 67.052086 309.20312 66.302086Q309.53125 65.53646 310.14062 65.13021Q310.75 64.72396 311.57812 64.72396Q312.6875 64.72396 313.40625 65.614586L313.40625 64.864586L314.375 64.864586L314.375 70.239586Q314.375 71.69271 314.07812 72.302086Q313.78125 72.91146 313.14062 73.25521Q312.5 73.614586 311.5625 73.614586Q310.45312 73.614586 309.76562 73.114586Q309.07812 72.614586 309.09375 71.59896ZM309.96875 67.864586Q309.96875 69.083336 310.45312 69.645836Q310.9375 70.208336 311.67188 70.208336Q312.40625 70.208336 312.89062 69.645836Q313.39062 69.083336 313.39062 67.895836Q313.39062 66.75521 312.875 66.177086Q312.375 65.59896 311.65625 65.59896Q310.95312 65.59896 310.45312 66.177086Q309.96875 66.739586 309.96875 67.864586ZM315.3125 73.47396L315.3125 72.708336L322.3125 72.708336L322.3125 73.47396L315.3125 73.47396ZM323.29688 71.083336L323.29688 64.864586L324.23438 64.864586L324.23438 65.739586Q324.53125 65.270836 325.01562 65.00521Q325.5 64.72396 326.125 64.72396Q326.8125 64.72396 327.25 65.00521Q327.70312 65.28646 327.875 65.802086Q328.625 64.72396 329.79688 64.72396Q330.73438 64.72396 331.21875 65.239586Q331.71875 65.739586 331.71875 66.81771L331.71875 71.083336L330.67188 71.083336L330.67188 67.16146Q330.67188 66.53646 330.5625 66.25521Q330.46875 65.97396 330.20312 65.802086Q329.9375 65.63021 329.5625 65.63021Q328.90625 65.63021 328.46875 66.06771Q328.04688 66.50521 328.04688 67.47396L328.04688 71.083336L326.98438 71.083336L326.98438 67.03646Q326.98438 66.333336 326.71875 65.989586Q326.46875 65.63021 325.89062 65.63021Q325.4375 65.63021 325.0625 65.864586Q324.6875 66.09896 324.51562 66.552086Q324.34375 67.00521 324.34375 67.84896L324.34375 71.083336L323.29688 71.083336ZM333.875 69.22396L334.90625 69.06771Q335.0 69.69271 335.39062 70.020836Q335.79688 70.34896 336.53125 70.34896Q337.25 70.34896 337.59375 70.06771Q337.95312 69.770836 337.95312 69.364586Q337.95312 69.00521 337.64062 68.802086Q337.42188 68.66146 336.5625 68.44271Q335.40625 68.145836 334.95312 67.94271Q334.51562 67.72396 334.28125 67.34896Q334.04688 66.97396 334.04688 66.50521Q334.04688 66.09896 334.23438 65.739586Q334.42188 65.38021 334.75 65.145836Q335.0 64.97396 335.42188 64.84896Q335.84375 64.72396 336.34375 64.72396Q337.0625 64.72396 337.60938 64.94271Q338.17188 65.145836 338.4375 65.50521Q338.70312 65.864586 338.79688 66.458336L337.76562 66.59896Q337.70312 66.13021 337.35938 65.864586Q337.03125 65.583336 336.40625 65.583336Q335.6875 65.583336 335.375 65.833336Q335.0625 66.06771 335.0625 66.395836Q335.0625 66.59896 335.1875 66.75521Q335.32812 66.927086 335.59375 67.03646Q335.75 67.09896 336.53125 67.302086Q337.65625 67.614586 338.09375 67.802086Q338.53125 67.989586 338.78125 68.34896Q339.03125 68.708336 339.03125 69.25521Q339.03125 69.78646 338.71875 70.25521Q338.42188 70.708336 337.84375 70.97396Q337.26562 71.22396 336.53125 71.22396Q335.3125 71.22396 334.67188 70.72396Q334.04688 70.208336 333.875 69.22396Z" fill-rule="nonzero"/><path stroke="#ea4335" stroke-width="4.0" stroke-linecap="butt" d="M356.5 67.083336L368.5 67.083336" fill-rule="nonzero"/><path fill="#1a1a1a" d="M381.54688 69.083336L382.64062 69.208336Q382.39062 70.16146 381.6875 70.69271Q380.98438 71.22396 379.90625 71.22396Q378.54688 71.22396 377.73438 70.38021Q376.9375 69.53646 376.9375 68.020836Q376.9375 66.458336 377.75 65.59896Q378.5625 64.72396 379.84375 64.72396Q381.09375 64.72396 381.875 65.56771Q382.67188 66.41146 382.67188 67.958336Q382.67188 68.052086 382.67188 68.239586L378.03125 68.239586Q378.09375 69.270836 378.60938 69.81771Q379.125 70.34896 379.90625 70.34896Q380.48438 70.34896 380.89062 70.052086Q381.3125 69.739586 381.54688 69.083336ZM378.09375 67.38021L381.5625 67.38021Q381.5 66.583336 381.17188 66.19271Q380.65625 65.583336 379.85938 65.583336Q379.125 65.583336 378.625 66.06771Q378.14062 66.552086 378.09375 67.38021ZM383.59375 71.083336L385.85938 67.84896L383.76562 64.864586L385.07812 64.864586L386.03125 66.31771Q386.29688 66.739586 386.46875 67.020836Q386.71875 66.63021 386.9375 66.333336L387.98438 64.864586L389.25 64.864586L387.09375 67.78646L389.40625 71.083336L388.125 71.083336L386.84375 69.145836L386.5 68.63021L384.85938 71.083336L383.59375 71.083336ZM393.54688 69.083336L394.64062 69.208336Q394.39062 70.16146 393.6875 70.69271Q392.98438 71.22396 391.90625 71.22396Q390.54688 71.22396 389.73438 70.38021Q388.9375 69.53646 388.9375 68.020836Q388.9375 66.458336 389.75 65.59896Q390.5625 64.72396 391.84375 64.72396Q393.09375 64.72396 393.875 65.56771Q394.67188 66.41146 394.67188 67.958336Q394.67188 68.052086 394.67188 68.239586L390.03125 68.239586Q390.09375 69.270836 390.60938 69.81771Q391.125 70.34896 391.90625 70.34896Q392.48438 70.34896 392.89062 70.052086Q393.3125 69.739586 393.54688 69.083336ZM390.09375 67.38021L393.5625 67.38021Q393.5 66.583336 393.17188 66.19271Q392.65625 65.583336 391.85938 65.583336Q391.125 65.583336 390.625 66.06771Q390.14062 66.552086 390.09375 67.38021ZM400.35938 68.802086L401.39062 68.94271Q401.21875 70.00521 400.51562 70.614586Q399.8125 71.22396 398.79688 71.22396Q397.51562 71.22396 396.73438 70.395836Q395.96875 69.552086 395.96875 67.989586Q395.96875 66.989586 396.29688 66.239586Q396.64062 65.47396 397.3125 65.09896Q398.0 64.72396 398.8125 64.72396Q399.8125 64.72396 400.45312 65.239586Q401.10938 65.739586 401.29688 66.69271L400.26562 66.84896Q400.125 66.22396 399.75 65.91146Q399.375 65.583336 398.84375 65.583336Q398.04688 65.583336 397.54688 66.16146Q397.04688 66.72396 397.04688 67.958336Q397.04688 69.22396 397.53125 69.78646Q398.01562 70.34896 398.78125 70.34896Q399.40625 70.34896 399.8125 69.97396Q400.23438 69.59896 400.35938 68.802086ZM406.375 71.083336L406.375 70.16146Q405.64062 71.22396 404.39062 71.22396Q403.84375 71.22396 403.35938 71.020836Q402.89062 70.802086 402.65625 70.489586Q402.42188 70.16146 402.32812 69.69271Q402.26562 69.395836 402.26562 68.708336L402.26562 64.864586L403.32812 64.864586L403.32812 68.31771Q403.32812 69.13021 403.39062 69.427086Q403.48438 69.833336 403.79688 70.083336Q404.125 70.31771 404.60938 70.31771Q405.07812 70.31771 405.48438 70.083336Q405.90625 69.833336 406.07812 69.41146Q406.26562 68.989586 406.26562 68.19271L406.26562 64.864586L407.3125 64.864586L407.3125 71.083336L406.375 71.083336ZM411.59375 70.145836L411.75 71.06771Q411.29688 71.16146 410.95312 71.16146Q410.375 71.16146 410.0625 70.989586Q409.75 70.802086 409.60938 70.50521Q409.48438 70.208336 409.48438 69.25521L409.48438 65.677086L408.71875 65.677086L408.71875 64.864586L409.48438 64.864586L409.48438 63.31771L410.53125 62.69271L410.53125 64.864586L411.59375 64.864586L411.59375 65.677086L410.53125 65.677086L410.53125 69.31771Q410.53125 69.770836 410.57812 69.895836Q410.64062 70.020836 410.76562 70.09896Q410.89062 70.177086 411.125 70.177086Q411.3125 70.177086 411.59375 70.145836ZM412.29688 63.708336L412.29688 62.489586L413.35938 62.489586L413.35938 63.708336L412.29688 63.708336ZM412.29688 71.083336L412.29688 64.864586L413.35938 64.864586L413.35938 71.083336L412.29688 71.083336ZM414.90625 67.97396Q414.90625 66.239586 415.85938 65.41146Q416.65625 64.72396 417.8125 64.72396Q419.09375 64.72396 419.90625 65.56771Q420.73438 66.395836 420.73438 67.88021Q420.73438 69.083336 420.375 69.770836Q420.01562 70.458336 419.3125 70.84896Q418.625 71.22396 417.8125 71.22396Q416.51562 71.22396 415.70312 70.395836Q414.90625 69.552086 414.90625 67.97396ZM415.98438 67.97396Q415.98438 69.16146 416.5 69.75521Q417.03125 70.34896 417.8125 70.34896Q418.60938 70.34896 419.125 69.75521Q419.64062 69.16146 419.64062 67.94271Q419.64062 66.78646 419.10938 66.19271Q418.59375 65.59896 417.8125 65.59896Q417.03125 65.59896 416.5 66.19271Q415.98438 66.770836 415.98438 67.97396ZM422.29688 71.083336L422.29688 64.864586L423.23438 64.864586L423.23438 65.739586Q423.92188 64.72396 425.21875 64.72396Q425.78125 64.72396 426.25 64.927086Q426.73438 65.13021 426.96875 65.458336Q427.20312 65.78646 427.29688 66.22396Q427.34375 66.520836 427.34375 67.25521L427.34375 71.083336L426.29688 71.083336L426.29688 67.302086Q426.29688 66.645836 426.17188 66.333336Q426.04688 66.020836 425.73438 65.833336Q425.42188 65.63021 425.0 65.63021Q424.32812 65.63021 423.82812 66.06771Q423.34375 66.489586 423.34375 67.677086L423.34375 71.083336L422.29688 71.083336ZM428.3125 73.47396L428.3125 72.708336L435.3125 72.708336L435.3125 73.47396L428.3125 73.47396ZM436.29688 71.083336L436.29688 64.864586L437.23438 64.864586L437.23438 65.739586Q437.53125 65.270836 438.01562 65.00521Q438.5 64.72396 439.125 64.72396Q439.8125 64.72396 440.25 65.00521Q440.70312 65.28646 440.875 65.802086Q441.625 64.72396 442.79688 64.72396Q443.73438 64.72396 444.21875 65.239586Q444.71875 65.739586 444.71875 66.81771L444.71875 71.083336L443.67188 71.083336L443.67188 67.16146Q443.67188 66.53646 443.5625 66.25521Q443.46875 65.97396 443.20312 65.802086Q442.9375 65.63021 442.5625 65.63021Q441.90625 65.63021 441.46875 66.06771Q441.04688 66.50521 441.04688 67.47396L441.04688 71.083336L439.98438 71.083336L439.98438 67.03646Q439.98438 66.333336 439.71875 65.989586Q439.46875 65.63021 438.89062 65.63021Q438.4375 65.63021 438.0625 65.864586Q437.6875 66.09896 437.51562 66.552086Q437.34375 67.00521 437.34375 67.84896L437.34375 71.083336L436.29688 71.083336ZM446.875 69.22396L447.90625 69.06771Q448.0 69.69271 448.39062 70.020836Q448.79688 70.34896 449.53125 70.34896Q450.25 70.34896 450.59375 70.06771Q450.95312 69.770836 450.95312 69.364586Q450.95312 69.00521 450.64062 68.802086Q450.42188 68.66146 449.5625 68.44271Q448.40625 68.145836 447.95312 67.94271Q447.51562 67.72396 447.28125 67.34896Q447.04688 66.97396 447.04688 66.50521Q447.04688 66.09896 447.23438 65.739586Q447.42188 65.38021 447.75 65.145836Q448.0 64.97396 448.42188 64.84896Q448.84375 64.72396 449.34375 64.72396Q450.0625 64.72396 450.60938 64.94271Q451.17188 65.145836 451.4375 65.50521Q451.70312 65.864586 451.79688 66.458336L450.76562 66.59896Q450.70312 66.13021 450.35938 65.864586Q450.03125 65.583336 449.40625 65.583336Q448.6875 65.583336 448.375 65.833336Q448.0625 66.06771 448.0625 66.395836Q448.0625 66.59896 448.1875 66.75521Q448.32812 66.927086 448.59375 67.03646Q448.75 67.09896 449.53125 67.302086Q450.65625 67.614586 451.09375 67.802086Q451.53125 67.989586 451.78125 68.34896Q452.03125 68.708336 452.03125 69.25521Q452.03125 69.78646 451.71875 70.25521Q451.42188 70.708336 450.84375 70.97396Q450.26562 71.22396 449.53125 71.22396Q448.3125 71.22396 447.67188 70.72396Q447.04688 70.208336 446.875 69.22396Z" fill-rule="nonzero"/><path fill="#757575" d="M23.11875 40.65L23.11875 26.337502L25.009375 26.337502L25.009375 38.9625L32.05625 38.9625L32.05625 40.65L23.11875 40.65ZM34.509377 40.65L34.509377 26.337502L36.415627 26.337502L36.415627 40.65L34.509377 40.65ZM40.134377 40.65L40.134377 26.337502L42.99375 26.337502L46.36875 36.4625Q46.8375 37.884377 47.05625 38.5875Q47.30625 37.80625 47.821877 36.290627L51.24375 26.337502L53.790627 26.337502L53.790627 40.65L51.978127 40.65L51.978127 28.665627L47.80625 40.65L46.103127 40.65L41.9625 28.462502L41.9625 40.65L40.134377 40.65ZM57.509377 40.65L57.509377 26.337502L59.415627 26.337502L59.415627 40.65L57.509377 40.65ZM66.8375 40.65L66.8375 28.025002L62.11875 28.025002L62.11875 26.337502L73.4625 26.337502L73.4625 28.025002L68.72813 28.025002L68.72813 40.65L66.8375 40.65ZM73.65 40.9L77.80625 26.087502L79.2125 26.087502L75.07188 40.9L73.65 40.9ZM80.61875 33.68125Q80.61875 30.118752 82.525 28.103127Q84.44688 26.071877 87.47813 26.071877Q89.4625 26.071877 91.04063 27.025002Q92.63438 27.978127 93.4625 29.681252Q94.30625 31.368752 94.30625 33.509377Q94.30625 35.68125 93.43125 37.4Q92.55625 39.11875 90.93125 40.009377Q89.32188 40.9 87.4625 40.9Q85.44688 40.9 83.85313 39.93125Q82.25938 38.946877 81.43125 37.259377Q80.61875 35.55625 80.61875 33.68125ZM82.57188 33.7125Q82.57188 36.290627 83.9625 37.790627Q85.35313 39.275 87.44688 39.275Q89.5875 39.275 90.9625 37.775Q92.35313 36.259377 92.35313 33.49375Q92.35313 31.759377 91.75938 30.462502Q91.18125 29.150002 90.04063 28.431252Q88.9 27.712502 87.47813 27.712502Q85.47813 27.712502 84.025 29.103127Q82.57188 30.478127 82.57188 33.7125ZM97.29063 40.65L97.29063 26.337502L106.94688 26.337502L106.94688 28.025002L99.18125 28.025002L99.18125 32.4625L105.9 32.4625L105.9 34.15L99.18125 34.15L99.18125 40.65L97.29063 40.65ZM109.29063 40.65L109.29063 26.337502L118.94688 26.337502L118.94688 28.025002L111.18125 28.025002L111.18125 32.4625L117.9 32.4625L117.9 34.15L111.18125 34.15L111.18125 40.65L109.29063 40.65ZM120.55625 36.05625L122.3375 35.9Q122.4625 36.9625 122.91563 37.65Q123.38438 38.3375 124.35313 38.775Q125.3375 39.196877 126.57188 39.196877Q127.65 39.196877 128.47812 38.884377Q129.30624 38.55625 129.7125 37.99375Q130.11874 37.43125 130.11874 36.759377Q130.11874 36.0875 129.72812 35.5875Q129.3375 35.0875 128.44687 34.74375Q127.86875 34.509377 125.88438 34.040627Q123.91563 33.571877 123.13438 33.15Q122.10313 32.61875 121.60313 31.821877Q121.10313 31.025002 121.10313 30.040627Q121.10313 28.946877 121.7125 28.009377Q122.32188 27.071877 123.50938 26.587502Q124.69688 26.087502 126.13438 26.087502Q127.72813 26.087502 128.94687 26.603127Q130.16562 27.118752 130.80624 28.118752Q131.4625 29.103127 131.50937 30.368752L129.69687 30.509377Q129.55624 29.150002 128.7125 28.462502Q127.86875 27.759377 126.2125 27.759377Q124.49375 27.759377 123.69688 28.400002Q122.91563 29.025002 122.91563 29.900002Q122.91563 30.681252 123.47813 31.181252Q124.025 31.681252 126.3375 32.196877Q128.65 32.7125 129.50937 33.103127Q130.75937 33.68125 131.35312 34.571877Q131.94687 35.446877 131.94687 36.603127Q131.94687 37.74375 131.29062 38.759377Q130.63437 39.775 129.4 40.3375Q128.18124 40.9 126.65 40.9Q124.7125 40.9 123.4 40.3375Q122.0875 39.759377 121.3375 38.61875Q120.5875 37.478127 120.55625 36.05625ZM134.22812 40.65L134.22812 26.337502L144.5875 26.337502L144.5875 28.025002L136.13437 28.025002L136.13437 32.4L144.04062 32.4L144.04062 34.0875L136.13437 34.0875L136.13437 38.9625L144.91562 38.9625L144.91562 40.65L134.22812 40.65ZM150.8375 40.65L150.8375 28.025002L146.11874 28.025002L146.11874 26.337502L157.4625 26.337502L157.4625 28.025002L152.72812 28.025002L152.72812 40.65L150.8375 40.65ZM165.19687 40.65L165.19687 26.337502L170.5875 26.337502Q172.025 26.337502 172.775 26.462502Q173.82187 26.650002 174.54062 27.150002Q175.25937 27.634377 175.68124 28.525002Q176.11874 29.415627 176.11874 30.478127Q176.11874 32.30625 174.94687 33.571877Q173.79062 34.821877 170.75937 34.821877L167.0875 34.821877L167.0875 40.65L165.19687 40.65ZM167.0875 33.134377L170.79062 33.134377Q172.61874 33.134377 173.38437 32.4625Q174.16562 31.775002 174.16562 30.525002Q174.16562 29.634377 173.7125 28.993752Q173.25937 28.353127 172.525 28.150002Q172.04062 28.025002 170.74374 28.025002L167.0875 28.025002L167.0875 33.134377ZM177.93124 40.65L177.93124 26.337502L179.68124 26.337502L179.68124 40.65L177.93124 40.65ZM188.74374 39.36875Q187.75937 40.196877 186.85312 40.540627Q185.94687 40.884377 184.91562 40.884377Q183.2125 40.884377 182.29062 40.05625Q181.36874 39.2125 181.36874 37.915627Q181.36874 37.15 181.7125 36.525Q182.07187 35.9 182.63437 35.525Q183.19687 35.134377 183.9 34.93125Q184.41562 34.80625 185.4625 34.665627Q187.5875 34.415627 188.5875 34.071877Q188.60312 33.7125 188.60312 33.603127Q188.60312 32.540627 188.10312 32.0875Q187.43124 31.493752 186.10312 31.493752Q184.85312 31.493752 184.25937 31.931252Q183.68124 32.36875 183.4 33.478127L181.68124 33.24375Q181.91562 32.134377 182.44687 31.462502Q182.97812 30.775002 183.99374 30.415627Q185.00937 30.040627 186.35312 30.040627Q187.68124 30.040627 188.50937 30.353127Q189.3375 30.665627 189.72812 31.150002Q190.11874 31.618752 190.275 32.3375Q190.36874 32.790627 190.36874 33.9625L190.36874 36.30625Q190.36874 38.759377 190.47812 39.415627Q190.5875 40.05625 190.93124 40.65L189.0875 40.65Q188.82187 40.103127 188.74374 39.36875ZM188.5875 35.446877Q187.63437 35.8375 185.7125 36.103127Q184.63437 36.259377 184.18124 36.4625Q183.74374 36.65 183.49374 37.025Q183.24374 37.4 183.24374 37.86875Q183.24374 38.571877 183.775 39.040627Q184.30624 39.509377 185.3375 39.509377Q186.35312 39.509377 187.13437 39.071877Q187.93124 38.61875 188.30624 37.853127Q188.5875 37.24375 188.5875 36.0875L188.5875 35.446877ZM192.9625 40.65L192.9625 30.275002L194.55624 30.275002L194.55624 31.759377Q195.69687 30.040627 197.85312 30.040627Q198.79062 30.040627 199.57187 30.384377Q200.36874 30.712502 200.75937 31.259377Q201.15 31.806252 201.30624 32.55625Q201.4 33.05625 201.4 34.275L201.4 40.65L199.63437 40.65L199.63437 34.3375Q199.63437 33.259377 199.43124 32.728127Q199.22812 32.196877 198.69687 31.884377Q198.18124 31.571877 197.47812 31.571877Q196.35312 31.571877 195.54062 32.290627Q194.72812 32.99375 194.72812 34.978127L194.72812 40.65L192.9625 40.65ZM202.9625 40.65L202.9625 30.275002L204.55624 30.275002L204.55624 31.759377Q205.69687 30.040627 207.85312 30.040627Q208.79062 30.040627 209.57187 30.384377Q210.36874 30.712502 210.75937 31.259377Q211.15 31.806252 211.30624 32.55625Q211.4 33.05625 211.4 34.275L211.4 40.65L209.63437 40.65L209.63437 34.3375Q209.63437 33.259377 209.43124 32.728127Q209.22812 32.196877 208.69687 31.884377Q208.18124 31.571877 207.47812 31.571877Q206.35312 31.571877 205.54062 32.290627Q204.72812 32.99375 204.72812 34.978127L204.72812 40.65L202.9625 40.65ZM212.97812 28.353127L212.97812 26.337502L214.74374 26.337502L214.74374 28.353127L212.97812 28.353127ZM212.97812 40.65L212.97812 30.275002L214.74374 30.275002L214.74374 40.65L212.97812 40.65ZM216.9625 40.65L216.9625 30.275002L218.55624 30.275002L218.55624 31.759377Q219.69687 30.040627 221.85312 30.040627Q222.79062 30.040627 223.57187 30.384377Q224.36874 30.712502 224.75937 31.259377Q225.15 31.806252 225.30624 32.55625Q225.4 33.05625 225.4 34.275L225.4 40.65L223.63437 40.65L223.63437 34.3375Q223.63437 33.259377 223.43124 32.728127Q223.22812 32.196877 222.69687 31.884377Q222.18124 31.571877 221.47812 31.571877Q220.35312 31.571877 219.54062 32.290627Q218.72812 32.99375 218.72812 34.978127L218.72812 40.65L216.9625 40.65ZM226.65 41.509377L228.35312 41.759377Q228.4625 42.55625 228.94687 42.915627Q229.60312 43.4 230.74374 43.4Q231.9625 43.4 232.61874 42.915627Q233.29062 42.43125 233.525 41.55625Q233.66562 41.009377 233.65 39.290627Q232.49374 40.65 230.775 40.65Q228.63437 40.65 227.4625 39.103127Q226.29062 37.55625 226.29062 35.4Q226.29062 33.915627 226.82187 32.665627Q227.36874 31.415627 228.38437 30.728127Q229.41562 30.040627 230.79062 30.040627Q232.61874 30.040627 233.82187 31.525002L233.82187 30.275002L235.43124 30.275002L235.43124 39.24375Q235.43124 41.665627 234.93124 42.665627Q234.44687 43.68125 233.36874 44.259377Q232.30624 44.853127 230.74374 44.853127Q228.9 44.853127 227.74374 44.025Q226.60312 43.196877 226.65 41.509377ZM228.10312 35.275Q228.10312 37.321877 228.91562 38.259377Q229.72812 39.196877 230.94687 39.196877Q232.15 39.196877 232.9625 38.259377Q233.79062 37.321877 233.79062 35.3375Q233.79062 33.43125 232.94687 32.4625Q232.10312 31.493752 230.91562 31.493752Q229.74374 31.493752 228.91562 32.446877Q228.10312 33.4 228.10312 35.275ZM250.74374 39.36875Q249.75937 40.196877 248.85312 40.540627Q247.94687 40.884377 246.91562 40.884377Q245.2125 40.884377 244.29062 40.05625Q243.36874 39.2125 243.36874 37.915627Q243.36874 37.15 243.7125 36.525Q244.07187 35.9 244.63437 35.525Q245.19687 35.134377 245.9 34.93125Q246.41562 34.80625 247.4625 34.665627Q249.5875 34.415627 250.5875 34.071877Q250.60312 33.7125 250.60312 33.603127Q250.60312 32.540627 250.10312 32.0875Q249.43124 31.493752 248.10312 31.493752Q246.85312 31.493752 246.25937 31.931252Q245.68124 32.36875 245.4 33.478127L243.68124 33.24375Q243.91562 32.134377 244.44687 31.462502Q244.97812 30.775002 245.99374 30.415627Q247.00937 30.040627 248.35312 30.040627Q249.68124 30.040627 250.50937 30.353127Q251.3375 30.665627 251.72812 31.150002Q252.11874 31.618752 252.275 32.3375Q252.36874 32.790627 252.36874 33.9625L252.36874 36.30625Q252.36874 38.759377 252.47812 39.415627Q252.5875 40.05625 252.93124 40.65L251.0875 40.65Q250.82187 40.103127 250.74374 39.36875ZM250.5875 35.446877Q249.63437 35.8375 247.7125 36.103127Q246.63437 36.259377 246.18124 36.4625Q245.74374 36.65 245.49374 37.025Q245.24374 37.4 245.24374 37.86875Q245.24374 38.571877 245.775 39.040627Q246.30624 39.509377 247.3375 39.509377Q248.35312 39.509377 249.13437 39.071877Q249.93124 38.61875 250.30624 37.853127Q250.5875 37.24375 250.5875 36.0875L250.5875 35.446877ZM254.9625 40.65L254.9625 30.275002L256.55624 30.275002L256.55624 31.759377Q257.69687 30.040627 259.85312 30.040627Q260.79062 30.040627 261.57187 30.384377Q262.36874 30.712502 262.75937 31.259377Q263.15 31.806252 263.30624 32.55625Q263.4 33.05625 263.4 34.275L263.4 40.65L261.63437 40.65L261.63437 34.3375Q261.63437 33.259377 261.43124 32.728127Q261.22812 32.196877 260.69687 31.884377Q260.18124 31.571877 259.47812 31.571877Q258.35312 31.571877 257.54062 32.290627Q256.72812 32.99375 256.72812 34.978127L256.72812 40.65L254.9625 40.65ZM271.69687 40.65L271.69687 39.3375Q270.7125 40.884377 268.79062 40.884377Q267.55624 40.884377 266.50937 40.196877Q265.47812 39.509377 264.9 38.290627Q264.3375 37.071877 264.3375 35.478127Q264.3375 33.915627 264.85312 32.65Q265.36874 31.384377 266.4 30.712502Q267.44687 30.040627 268.7125 30.040627Q269.65 30.040627 270.38437 30.446877Q271.11874 30.837502 271.5875 31.462502L271.5875 26.337502L273.32187 26.337502L273.32187 40.65L271.69687 40.65ZM266.13437 35.478127Q266.13437 37.4625 266.97812 38.446877Q267.82187 39.43125 268.9625 39.43125Q270.11874 39.43125 270.91562 38.49375Q271.72812 37.55625 271.72812 35.61875Q271.72812 33.49375 270.9 32.49375Q270.0875 31.493752 268.88437 31.493752Q267.7125 31.493752 266.91562 32.4625Q266.13437 33.415627 266.13437 35.478127ZM282.22812 40.65L282.22812 26.337502L292.5875 26.337502L292.5875 28.025002L284.13437 28.025002L284.13437 32.4L292.04062 32.4L292.04062 34.0875L284.13437 34.0875L284.13437 38.9625L292.91562 38.9625L292.91562 40.65L282.22812 40.65ZM293.79062 40.65L297.5875 35.259377L294.0875 30.275002L296.275 30.275002L297.86874 32.7125Q298.32187 33.4 298.5875 33.86875Q299.025 33.228127 299.38437 32.728127L301.13437 30.275002L303.22812 30.275002L299.65 35.165627L303.50937 40.65L301.35312 40.65L299.2125 37.43125L298.65 36.55625L295.93124 40.65L293.79062 40.65ZM311.07187 37.30625L312.88437 37.540627Q312.4625 39.11875 311.29062 40.009377Q310.13437 40.884377 308.32187 40.884377Q306.05624 40.884377 304.7125 39.49375Q303.38437 38.0875 303.38437 35.55625Q303.38437 32.93125 304.72812 31.493752Q306.07187 30.040627 308.22812 30.040627Q310.30624 30.040627 311.61874 31.462502Q312.94687 32.86875 312.94687 35.446877Q312.94687 35.603127 312.93124 35.915627L305.19687 35.915627Q305.29062 37.61875 306.16562 38.525Q307.04062 39.43125 308.3375 39.43125Q309.30624 39.43125 309.97812 38.93125Q310.66562 38.415627 311.07187 37.30625ZM305.29062 34.4625L311.0875 34.4625Q310.97812 33.165627 310.43124 32.509377Q309.5875 31.493752 308.24374 31.493752Q307.04062 31.493752 306.2125 32.30625Q305.38437 33.103127 305.29062 34.4625ZM321.74374 36.853127L323.4625 37.071877Q323.18124 38.86875 322.00937 39.884377Q320.85312 40.884377 319.15 40.884377Q317.025 40.884377 315.72812 39.49375Q314.43124 38.103127 314.43124 35.509377Q314.43124 33.821877 314.97812 32.571877Q315.54062 31.306252 316.68124 30.681252Q317.82187 30.040627 319.16562 30.040627Q320.85312 30.040627 321.91562 30.900002Q322.99374 31.759377 323.30624 33.321877L321.5875 33.5875Q321.35312 32.540627 320.72812 32.025Q320.10312 31.493752 319.22812 31.493752Q317.9 31.493752 317.07187 32.446877Q316.24374 33.4 316.24374 35.446877Q316.24374 37.540627 317.04062 38.49375Q317.8375 39.43125 319.13437 39.43125Q320.16562 39.43125 320.85312 38.80625Q321.55624 38.165627 321.74374 36.853127ZM331.75937 40.65L331.75937 39.11875Q330.55624 40.884377 328.47812 40.884377Q327.55624 40.884377 326.75937 40.540627Q325.9625 40.18125 325.57187 39.65Q325.19687 39.11875 325.04062 38.3375Q324.93124 37.821877 324.93124 36.696877L324.93124 30.275002L326.68124 30.275002L326.68124 36.025Q326.68124 37.4 326.79062 37.884377Q326.9625 38.571877 327.49374 38.978127Q328.04062 39.36875 328.82187 39.36875Q329.61874 39.36875 330.30624 38.9625Q331.00937 38.55625 331.29062 37.86875Q331.5875 37.165627 331.5875 35.8375L331.5875 30.275002L333.3375 30.275002L333.3375 40.65L331.75937 40.65ZM338.80624 39.071877L339.05624 40.634377Q338.32187 40.790627 337.72812 40.790627Q336.775 40.790627 336.24374 40.49375Q335.72812 40.18125 335.50937 39.696877Q335.29062 39.196877 335.29062 37.61875L335.29062 31.650002L334.00937 31.650002L334.00937 30.275002L335.29062 30.275002L335.29062 27.712502L337.04062 26.650002L337.04062 30.275002L338.80624 30.275002L338.80624 31.650002L337.04062 31.650002L337.04062 37.7125Q337.04062 38.4625 337.13437 38.68125Q337.22812 38.884377 337.43124 39.025Q337.65 39.15 338.04062 39.15Q338.32187 39.15 338.80624 39.071877ZM340.97812 28.353127L340.97812 26.337502L342.74374 26.337502L342.74374 28.353127L340.97812 28.353127ZM340.97812 40.65L340.97812 30.275002L342.74374 30.275002L342.74374 40.65L340.97812 40.65ZM344.32187 35.4625Q344.32187 32.5875 345.91562 31.196877Q347.25937 30.040627 349.18124 30.040627Q351.32187 30.040627 352.66562 31.446877Q354.025 32.853127 354.025 35.321877Q354.025 37.321877 353.43124 38.478127Q352.8375 39.61875 351.68124 40.259377Q350.54062 40.884377 349.18124 40.884377Q346.99374 40.884377 345.65 39.49375Q344.32187 38.0875 344.32187 35.4625ZM346.11874 35.4625Q346.11874 37.4625 346.97812 38.446877Q347.85312 39.43125 349.18124 39.43125Q350.49374 39.43125 351.35312 38.446877Q352.22812 37.446877 352.22812 35.4Q352.22812 33.478127 351.35312 32.49375Q350.47812 31.493752 349.18124 31.493752Q347.85312 31.493752 346.97812 32.49375Q346.11874 33.478127 346.11874 35.4625ZM355.9625 40.65L355.9625 30.275002L357.55624 30.275002L357.55624 31.759377Q358.69687 30.040627 360.85312 30.040627Q361.79062 30.040627 362.57187 30.384377Q363.36874 30.712502 363.75937 31.259377Q364.15 31.806252 364.30624 32.55625Q364.4 33.05625 364.4 34.275L364.4 40.65L362.63437 40.65L362.63437 34.3375Q362.63437 33.259377 362.43124 32.728127Q362.22812 32.196877 361.69687 31.884377Q361.18124 31.571877 360.47812 31.571877Q359.35312 31.571877 358.54062 32.290627Q357.72812 32.99375 357.72812 34.978127L357.72812 40.65L355.9625 40.65ZM375.8375 40.65L375.8375 28.025002L371.11874 28.025002L371.11874 26.337502L382.4625 26.337502L382.4625 28.025002L377.72812 28.025002L377.72812 40.65L375.8375 40.65ZM383.97812 28.353127L383.97812 26.337502L385.74374 26.337502L385.74374 28.353127L383.97812 28.353127ZM383.97812 40.65L383.97812 30.275002L385.74374 30.275002L385.74374 40.65L383.97812 40.65ZM387.9625 40.65L387.9625 30.275002L389.54062 30.275002L389.54062 31.728127Q390.025 30.978127 390.8375 30.509377Q391.65 30.040627 392.68124 30.040627Q393.8375 30.040627 394.57187 30.525002Q395.30624 30.993752 395.61874 31.853127Q396.85312 30.040627 398.82187 30.040627Q400.36874 30.040627 401.19687 30.900002Q402.025 31.759377 402.025 33.525L402.025 40.65L400.275 40.65L400.275 34.11875Q400.275 33.05625 400.10312 32.603127Q399.93124 32.134377 399.47812 31.853127Q399.04062 31.571877 398.43124 31.571877Q397.3375 31.571877 396.60312 32.30625Q395.88437 33.025 395.88437 34.61875L395.88437 40.65L394.13437 40.65L394.13437 33.915627Q394.13437 32.74375 393.69687 32.165627Q393.275 31.571877 392.29062 31.571877Q391.55624 31.571877 390.91562 31.962502Q390.29062 32.353127 390.00937 33.103127Q389.72812 33.853127 389.72812 35.275L389.72812 40.65L387.9625 40.65ZM411.07187 37.30625L412.88437 37.540627Q412.4625 39.11875 411.29062 40.009377Q410.13437 40.884377 408.32187 40.884377Q406.05624 40.884377 404.7125 39.49375Q403.38437 38.0875 403.38437 35.55625Q403.38437 32.93125 404.72812 31.493752Q406.07187 30.040627 408.22812 30.040627Q410.30624 30.040627 411.61874 31.462502Q412.94687 32.86875 412.94687 35.446877Q412.94687 35.603127 412.93124 35.915627L405.19687 35.915627Q405.29062 37.61875 406.16562 38.525Q407.04062 39.43125 408.3375 39.43125Q409.30624 39.43125 409.97812 38.93125Q410.66562 38.415627 411.07187 37.30625ZM405.29062 34.4625L411.0875 34.4625Q410.97812 33.165627 410.43124 32.509377Q409.5875 31.493752 408.24374 31.493752Q407.04062 31.493752 406.2125 32.30625Q405.38437 33.103127 405.29062 34.4625ZM424.32187 44.853127Q422.86874 43.025 421.86874 40.571877Q420.86874 38.103127 420.86874 35.4625Q420.86874 33.134377 421.61874 31.009377Q422.49374 28.540627 424.32187 26.087502L425.5875 26.087502Q424.4 28.118752 424.025 28.993752Q423.43124 30.337502 423.0875 31.806252Q422.66562 33.634377 422.66562 35.478127Q422.66562 40.165627 425.5875 44.853127L424.32187 44.853127ZM427.9625 40.65L427.9625 30.275002L429.54062 30.275002L429.54062 31.728127Q430.025 30.978127 430.8375 30.509377Q431.65 30.040627 432.68124 30.040627Q433.8375 30.040627 434.57187 30.525002Q435.30624 30.993752 435.61874 31.853127Q436.85312 30.040627 438.82187 30.040627Q440.36874 30.040627 441.19687 30.900002Q442.025 31.759377 442.025 33.525L442.025 40.65L440.275 40.65L440.275 34.11875Q440.275 33.05625 440.10312 32.603127Q439.93124 32.134377 439.47812 31.853127Q439.04062 31.571877 438.43124 31.571877Q437.3375 31.571877 436.60312 32.30625Q435.88437 33.025 435.88437 34.61875L435.88437 40.65L434.13437 40.65L434.13437 33.915627Q434.13437 32.74375 433.69687 32.165627Q433.275 31.571877 432.29062 31.571877Q431.55624 31.571877 430.91562 31.962502Q430.29062 32.353127 430.00937 33.103127Q429.72812 33.853127 429.72812 35.275L429.72812 40.65L427.9625 40.65ZM443.25937 37.55625L445.00937 37.275Q445.15 38.321877 445.82187 38.884377Q446.49374 39.43125 447.69687 39.43125Q448.9 39.43125 449.47812 38.946877Q450.07187 38.446877 450.07187 37.790627Q450.07187 37.196877 449.55624 36.853127Q449.19687 36.61875 447.75937 36.259377Q445.82187 35.759377 445.07187 35.415627Q444.3375 35.05625 443.94687 34.43125Q443.55624 33.790627 443.55624 33.025Q443.55624 32.3375 443.86874 31.743752Q444.19687 31.150002 444.74374 30.759377Q445.15 30.462502 445.85312 30.259377Q446.57187 30.040627 447.38437 30.040627Q448.60312 30.040627 449.525 30.400002Q450.44687 30.743752 450.88437 31.353127Q451.32187 31.946877 451.49374 32.946877L449.775 33.18125Q449.65 32.384377 449.0875 31.946877Q448.525 31.493752 447.50937 31.493752Q446.29062 31.493752 445.775 31.900002Q445.25937 32.290627 445.25937 32.821877Q445.25937 33.165627 445.47812 33.446877Q445.68124 33.728127 446.15 33.915627Q446.41562 34.009377 447.69687 34.353127Q449.57187 34.853127 450.30624 35.18125Q451.04062 35.49375 451.4625 36.103127Q451.88437 36.696877 451.88437 37.603127Q451.88437 38.478127 451.36874 39.259377Q450.85312 40.040627 449.88437 40.4625Q448.91562 40.884377 447.69687 40.884377Q445.68124 40.884377 444.61874 40.040627Q443.55624 39.196877 443.25937 37.55625ZM455.11874 44.853127L453.86874 44.853127Q456.775 40.165627 456.775 35.478127Q456.775 33.634377 456.36874 31.837502Q456.025 30.368752 455.43124 29.025002Q455.05624 28.134377 453.86874 26.087502L455.11874 26.087502Q456.9625 28.540627 457.8375 31.009377Q458.5875 33.134377 458.5875 35.4625Q458.5875 38.103127 457.57187 40.571877Q456.57187 43.025 455.11874 44.853127ZM466.29062 36.353127L466.29062 34.5875L471.68124 34.5875L471.68124 36.353127L466.29062 36.353127ZM480.11874 40.65L480.11874 26.337502L482.00937 26.337502L482.00937 38.9625L489.05624 38.9625L489.05624 40.65L480.11874 40.65ZM490.32187 35.4625Q490.32187 32.5875 491.91562 31.196877Q493.25937 30.040627 495.18124 30.040627Q497.32187 30.040627 498.66562 31.446877Q500.025 32.853127 500.025 35.321877Q500.025 37.321877 499.43124 38.478127Q498.8375 39.61875 497.68124 40.259377Q496.54062 40.884377 495.18124 40.884377Q492.99374 40.884377 491.65 39.49375Q490.32187 38.0875 490.32187 35.4625ZM492.11874 35.4625Q492.11874 37.4625 492.97812 38.446877Q493.85312 39.43125 495.18124 39.43125Q496.49374 39.43125 497.35312 38.446877Q498.22812 37.446877 498.22812 35.4Q498.22812 33.478127 497.35312 32.49375Q496.47812 31.493752 495.18124 31.493752Q493.85312 31.493752 492.97812 32.49375Q492.11874 33.478127 492.11874 35.4625ZM501.65 41.509377L503.35312 41.759377Q503.4625 42.55625 503.94687 42.915627Q504.60312 43.4 505.74374 43.4Q506.9625 43.4 507.61874 42.915627Q508.29062 42.43125 508.525 41.55625Q508.66562 41.009377 508.65 39.290627Q507.49374 40.65 505.775 40.65Q503.63437 40.65 502.4625 39.103127Q501.29062 37.55625 501.29062 35.4Q501.29062 33.915627 501.82187 32.665627Q502.36874 31.415627 503.38437 30.728127Q504.41562 30.040627 505.79062 30.040627Q507.61874 30.040627 508.82187 31.525002L508.82187 30.275002L510.43124 30.275002L510.43124 39.24375Q510.43124 41.665627 509.93124 42.665627Q509.44687 43.68125 508.36874 44.259377Q507.30624 44.853127 505.74374 44.853127Q503.9 44.853127 502.74374 44.025Q501.60312 43.196877 501.65 41.509377ZM503.10312 35.275Q503.10312 37.321877 503.91562 38.259377Q504.72812 39.196877 505.94687 39.196877Q507.15 39.196877 507.9625 38.259377Q508.79062 37.321877 508.79062 35.3375Q508.79062 33.43125 507.94687 32.4625Q507.10312 31.493752 505.91562 31.493752Q504.74374 31.493752 503.91562 32.446877Q503.10312 33.4 503.10312 35.275ZM518.5563 36.05625L520.3375 35.9Q520.4625 36.9625 520.91565 37.65Q521.3844 38.3375 522.35315 38.775Q523.3375 39.196877 524.5719 39.196877Q525.65 39.196877 526.47815 38.884377Q527.3063 38.55625 527.7125 37.99375Q528.1188 37.43125 528.1188 36.759377Q528.1188 36.0875 527.72815 35.5875Q527.3375 35.0875 526.4469 34.74375Q525.8688 34.509377 523.8844 34.040627Q521.91565 33.571877 521.1344 33.15Q520.10315 32.61875 519.60315 31.821877Q519.10315 31.025002 519.10315 30.040627Q519.10315 28.946877 519.7125 28.009377Q520.3219 27.071877 521.5094 26.587502Q522.6969 26.087502 524.1344 26.087502Q525.72815 26.087502 526.9469 26.603127Q528.16565 27.118752 528.8063 28.118752Q529.4625 29.103127 529.5094 30.368752L527.6969 30.509377Q527.5563 29.150002 526.7125 28.462502Q525.8688 27.759377 524.2125 27.759377Q522.4938 27.759377 521.6969 28.400002Q520.91565 29.025002 520.91565 29.900002Q520.91565 30.681252 521.47815 31.181252Q522.025 31.681252 524.3375 32.196877Q526.65 32.7125 527.5094 33.103127Q528.7594 33.68125 529.35315 34.571877Q529.9469 35.446877 529.9469 36.603127Q529.9469 37.74375 529.29065 38.759377Q528.6344 39.775 527.4 40.3375Q526.1813 40.9 524.65 40.9Q522.7125 40.9 521.4 40.3375Q520.0875 39.759377 519.3375 38.61875Q518.5875 37.478127 518.5563 36.05625ZM538.7438 36.853127L540.4625 37.071877Q540.1813 38.86875 539.0094 39.884377Q537.85315 40.884377 536.15 40.884377Q534.025 40.884377 532.72815 39.49375Q531.4313 38.103127 531.4313 35.509377Q531.4313 33.821877 531.97815 32.571877Q532.54065 31.306252 533.6813 30.681252Q534.8219 30.040627 536.16565 30.040627Q537.85315 30.040627 538.91565 30.900002Q539.9938 31.759377 540.3063 33.321877L538.5875 33.5875Q538.35315 32.540627 537.72815 32.025Q537.10315 31.493752 536.22815 31.493752Q534.9 31.493752 534.0719 32.446877Q533.2438 33.4 533.2438 35.446877Q533.2438 37.540627 534.04065 38.49375Q534.8375 39.43125 536.1344 39.43125Q537.16565 39.43125 537.85315 38.80625Q538.5563 38.165627 538.7438 36.853127ZM548.7438 39.36875Q547.7594 40.196877 546.85315 40.540627Q545.9469 40.884377 544.91565 40.884377Q543.2125 40.884377 542.29065 40.05625Q541.3688 39.2125 541.3688 37.915627Q541.3688 37.15 541.7125 36.525Q542.0719 35.9 542.6344 35.525Q543.1969 35.134377 543.9 34.93125Q544.41565 34.80625 545.4625 34.665627Q547.5875 34.415627 548.5875 34.071877Q548.60315 33.7125 548.60315 33.603127Q548.60315 32.540627 548.10315 32.0875Q547.4313 31.493752 546.10315 31.493752Q544.85315 31.493752 544.2594 31.931252Q543.6813 32.36875 543.4 33.478127L541.6813 33.24375Q541.91565 32.134377 542.4469 31.462502Q542.97815 30.775002 543.9938 30.415627Q545.0094 30.040627 546.35315 30.040627Q547.6813 30.040627 548.5094 30.353127Q549.3375 30.665627 549.72815 31.150002Q550.1188 31.618752 550.275 32.3375Q550.3688 32.790627 550.3688 33.9625L550.3688 36.30625Q550.3688 38.759377 550.47815 39.415627Q550.5875 40.05625 550.9313 40.65L549.0875 40.65Q548.8219 40.103127 548.7438 39.36875ZM548.5875 35.446877Q547.6344 35.8375 545.7125 36.103127Q544.6344 36.259377 544.1813 36.4625Q543.7438 36.65 543.4938 37.025Q543.2438 37.4 543.2438 37.86875Q543.2438 38.571877 543.775 39.040627Q544.3063 39.509377 545.3375 39.509377Q546.35315 39.509377 547.1344 39.071877Q547.9313 38.61875 548.3063 37.853127Q548.5875 37.24375 548.5875 36.0875L548.5875 35.446877ZM552.9313 40.65L552.9313 26.337502L554.6813 26.337502L554.6813 40.65L552.9313 40.65ZM564.0719 37.30625L565.8844 37.540627Q565.4625 39.11875 564.29065 40.009377Q563.1344 40.884377 561.3219 40.884377Q559.0563 40.884377 557.7125 39.49375Q556.3844 38.0875 556.3844 35.55625Q556.3844 32.93125 557.72815 31.493752Q559.0719 30.040627 561.22815 30.040627Q563.3063 30.040627 564.6188 31.462502Q565.9469 32.86875 565.9469 35.446877Q565.9469 35.603127 565.9313 35.915627L558.1969 35.915627Q558.29065 37.61875 559.16565 38.525Q560.04065 39.43125 561.3375 39.43125Q562.3063 39.43125 562.97815 38.93125Q563.66565 38.415627 564.0719 37.30625ZM558.29065 34.4625L564.0875 34.4625Q563.97815 33.165627 563.4313 32.509377Q562.5875 31.493752 561.2438 31.493752Q560.04065 31.493752 559.2125 32.30625Q558.3844 33.103127 558.29065 34.4625Z" fill-rule="nonzero"/></svg>